<svg width="14" height="14" viewBox="0 0 14 14" fill="none" xmlns="http://www.w3.org/2000/svg">
<g id="teenyicons:tick-circle-solid" clip-path="url(#clip0_507_2147)">
<path id="Vector" fill-rule="evenodd" clip-rule="evenodd" d="M0.25 7.37037C0.25 5.61454 0.934819 3.93062 2.15381 2.68906C3.37279 1.4475 5.02609 0.75 6.75 0.75C8.47391 0.75 10.1272 1.4475 11.3462 2.68906C12.5652 3.93062 13.25 5.61454 13.25 7.37037C13.25 9.1262 12.5652 10.8101 11.3462 12.0517C10.1272 13.2932 8.47391 13.9907 6.75 13.9907C5.02609 13.9907 3.37279 13.2932 2.15381 12.0517C0.934819 10.8101 0.25 9.1262 0.25 7.37037H0.25ZM6.37907 10.2039L10.1213 5.43899L9.44533 4.88817L6.25427 8.94955L3.994 7.03141L3.43933 7.70933L6.37907 10.2048V10.2039Z" fill="#161518"/>
</g>
<defs>
<clipPath id="clip0_507_2147">
<rect width="13" height="13.2407" fill="white" transform="translate(0.25 0.75)"/>
</clipPath>
</defs>
</svg>
