<svg width="83" height="86" viewBox="0 0 83 86" fill="none" xmlns="http://www.w3.org/2000/svg">
<g id="Logo" clip-path="url(#clip0_373_370)">
<path id="Vector" d="M65.1072 28.067C65.1072 27.1688 65.1194 26.2705 65.1194 25.3722C65.1194 23.7626 65.1194 22.1531 65.1194 20.5435C65.1315 20.4238 65.1056 20.3034 65.0453 20.1993C64.985 20.0951 64.8934 20.0126 64.7834 19.9632C59.2971 16.8169 53.8157 13.6657 48.3392 10.5097C46.7055 9.57012 45.0669 8.63544 43.4405 7.68377C43.3366 7.60928 43.2118 7.56921 43.0838 7.56921C42.9558 7.56921 42.8311 7.60928 42.7271 7.68377C37.9356 10.4352 33.1416 13.1818 28.3452 15.9235C26.0419 17.2418 23.7435 18.5697 21.433 19.8783C21.2764 19.947 21.1453 20.0628 21.058 20.2095C20.9707 20.3562 20.9315 20.5265 20.946 20.6964C20.959 28.7743 20.959 36.8506 20.946 44.9252C20.946 45.6389 20.8632 45.5127 21.4792 45.8672L36.9933 54.8498C38.851 55.9228 40.7112 56.9935 42.5616 58.0787C42.6966 58.1735 42.8578 58.2245 43.023 58.2245C43.1882 58.2245 43.3493 58.1735 43.4843 58.0787C48.4252 55.2091 53.3702 52.3468 58.3192 49.4918L64.5716 45.8793C64.6321 45.8389 64.6946 45.8016 64.759 45.7676C64.8943 45.7157 65.0078 45.6193 65.0809 45.4944C65.1539 45.3695 65.1821 45.2236 65.1608 45.0806C65.1315 43.3423 65.1194 41.6041 65.1121 39.8658C65.1048 38.1275 65.1121 36.3553 65.1121 34.6025C65.1121 34.0732 65.1267 34.0562 65.6477 33.947L71.2792 32.772C71.3352 32.7598 71.3937 32.755 71.4497 32.7428C71.6469 32.7016 71.7613 32.7574 71.7443 32.9856C71.7443 33.073 71.7443 33.1604 71.7443 33.2454C71.7443 38.4666 71.7443 43.6871 71.7443 48.9067C71.7591 49.0683 71.7224 49.2304 71.6393 49.3699C71.5563 49.5094 71.4311 49.6192 71.2817 49.6836C67.0615 52.0967 62.8518 54.5196 58.6527 56.9522C55.9989 58.48 53.3442 60.0022 50.6887 61.5187C48.2856 62.8977 45.8825 64.2718 43.4843 65.6605C43.3549 65.7498 43.2011 65.7977 43.0437 65.7977C42.8862 65.7977 42.7324 65.7498 42.603 65.6605C37.1297 62.4801 31.6459 59.3136 26.1515 56.1607C22.3923 53.9984 18.633 51.8369 14.8738 49.6763C14.7182 49.609 14.5877 49.4949 14.5003 49.3499C14.413 49.2049 14.3734 49.0364 14.3869 48.8678C14.4015 38.3266 14.4015 27.7854 14.3869 17.2442C14.3869 17.1131 14.3869 16.982 14.3869 16.8509C14.3833 16.6844 14.4292 16.5207 14.5189 16.3802C14.6086 16.2398 14.7381 16.129 14.8908 16.0619C17.8125 14.411 20.7237 12.7537 23.6242 11.0899C27.6497 8.78192 31.6718 6.46829 35.6908 4.149C38.0038 2.8186 40.3135 1.48173 42.62 0.138382C42.7391 0.0506213 42.8827 0.00225407 43.0307 7.6868e-05C43.1788 -0.00210033 43.3238 0.0420211 43.4454 0.126242C51.665 4.8587 59.8879 9.58388 68.1141 14.3018C69.1829 14.9136 70.2445 15.5423 71.3255 16.1371C71.4612 16.2014 71.5738 16.3057 71.6479 16.4361C71.7219 16.5664 71.7539 16.7164 71.7394 16.8655C71.7272 20.9926 71.7394 25.1028 71.7394 29.2202C71.7394 29.4071 71.7394 29.5965 71.7564 29.7834C71.5811 29.9242 71.3912 29.8393 71.2184 29.798C69.3095 29.3464 67.4129 28.856 65.5235 28.3414C65.3653 28.2904 65.1924 28.2564 65.1072 28.067Z" fill="#F2683C"/>
<path id="Vector_2" d="M65.1073 28.0671C65.9448 28.356 66.8116 28.5526 67.6638 28.7711C69.0248 29.1304 70.3858 29.4995 71.7639 29.7787C73.512 30.3516 75.282 30.859 77.0058 31.5023C77.0392 31.5147 77.068 31.5368 77.0885 31.5659C77.1089 31.5949 77.12 31.6295 77.1203 31.665C76.7697 31.665 76.4215 31.6917 76.0709 31.6917C74.1085 31.6917 72.1485 31.7961 70.191 31.9078C68.1921 32.0194 66.1956 32.1821 64.2016 32.3933C62.2075 32.6045 60.194 32.8303 58.2 33.1216C54.9423 33.6072 51.7114 34.2214 48.5097 34.9934C43.9532 36.0784 39.4863 37.5085 35.1479 39.2711C33.8186 39.8149 32.5014 40.383 31.2061 41.0045C31.0917 41.0579 30.9821 41.121 30.8555 41.189C30.9578 41.3638 31.099 41.2934 31.2158 41.2934C32.6548 41.2934 34.0961 41.2934 35.535 41.2934H35.8394C36.0634 41.2934 36.1535 41.4075 36.1559 41.6163C36.1559 41.6745 36.1559 41.7328 36.1559 41.7911C36.1754 45.3 36.1932 48.808 36.2095 52.3153C36.2095 52.4925 36.3117 52.7353 36.1072 52.8324C35.9441 52.9101 35.7907 52.7256 35.647 52.643C32.0371 50.5698 28.4264 48.4965 24.8149 46.4232C24.6804 46.3604 24.5682 46.2583 24.4934 46.1303C24.4185 46.0023 24.3846 45.8547 24.3961 45.707C24.3961 43.2283 24.3791 40.7472 24.3694 38.2684C24.3694 37.6081 24.3694 37.6129 24.9269 37.2973C27.2494 36.044 29.6882 35.0179 32.2092 34.2335C36.4704 32.8533 40.8196 31.76 45.2277 30.961C48.0893 30.4463 50.9664 30.0643 53.8588 29.8151C56.2173 29.6095 58.5822 29.4889 60.9536 29.4533C60.9782 29.4535 61.0025 29.4479 61.0246 29.4369C61.0466 29.426 61.0656 29.41 61.0802 29.3902L60.0406 29.3465C57.1068 29.213 54.168 29.2203 51.2342 29.2955C49.4495 29.3417 47.6649 29.4558 45.8778 29.6111C43.4942 29.8199 41.1179 30.0967 38.7538 30.4827C34.4281 31.1698 30.1696 32.2257 26.025 33.6387C25.5721 33.7941 25.1241 33.9641 24.6737 34.1243C24.3815 34.2263 24.3548 34.2044 24.345 33.8815C24.3353 33.5586 24.345 33.3013 24.345 33.01C24.3134 28.8221 24.2866 24.6319 24.2379 20.4416C24.2217 20.2575 24.2619 20.0728 24.3532 19.912C24.4444 19.7512 24.5825 19.6218 24.7492 19.5409C28.3201 17.4239 31.8813 15.2972 35.4328 13.1608C36.0001 12.8209 36.1803 12.918 36.1851 13.5784C36.1949 15.035 36.2022 16.4998 36.207 17.9726C36.2168 20.8567 36.2249 23.7417 36.2314 26.6275V27.0839C36.5843 27.0992 36.9379 27.0756 37.2856 27.0135C38.5298 26.9018 39.769 26.7707 41.0132 26.6396C42.7175 26.4648 44.4364 26.4454 46.1505 26.4187L49.245 26.3701C49.5981 26.3701 49.6175 26.3483 49.6151 25.9962C49.6151 24.9086 49.5932 23.8113 49.5908 22.7334C49.5794 19.6016 49.5697 16.4706 49.5615 13.3405C49.5397 13.2022 49.5583 13.0606 49.6151 12.9326C50.085 13.2021 50.5476 13.4643 51.0078 13.7338C54.1405 15.5562 57.2756 17.3786 60.4131 19.201C60.5806 19.2853 60.7191 19.4173 60.811 19.5803C60.9029 19.7433 60.9441 19.9299 60.9293 20.1163C60.9293 21.9444 60.9293 23.77 60.9293 25.5981C60.9293 25.989 60.9293 26.3798 60.9439 26.7707C60.9439 26.8872 60.9439 26.9916 61.0997 27.0329C62.4437 27.3703 63.7755 27.7199 65.1073 28.0671Z" fill="#4A4551"/>
<path id="Vector_3" d="M49.498 51.735C49.4327 51.6272 49.4102 51.4991 49.4347 51.3756C49.4347 50.8901 49.4225 50.39 49.4201 49.8972C49.4201 46.2896 49.4079 42.6795 49.3763 39.0719C49.3574 38.9126 49.396 38.7518 49.4853 38.6184C49.5745 38.4849 49.7085 38.3875 49.8632 38.3436C53.2912 36.8194 56.8331 35.5637 60.4567 34.5879L60.6247 34.5442C60.8998 34.4811 60.9705 34.5296 60.9875 34.787C60.9875 34.8744 60.9875 34.9617 60.9875 35.0491C60.9875 38.2659 60.9875 41.4851 60.9875 44.7018C61.0009 44.8423 60.9698 44.9834 60.8986 45.1053C60.8275 45.2272 60.7197 45.3238 60.5906 45.3816C57.0035 47.4532 53.4171 49.529 49.8316 51.6087C49.7386 51.6884 49.6206 51.7331 49.498 51.735Z" fill="#F2683C"/>
<path id="Vector_4" d="M75.4181 73.4509C75.3657 73.628 75.3483 73.8135 75.367 73.9972C75.367 76.187 75.367 78.376 75.367 80.5642C75.367 80.6953 75.367 80.8264 75.367 80.9551C75.37 80.9997 75.3633 81.0445 75.3472 81.0863C75.3311 81.1281 75.3061 81.1659 75.2739 81.1971C75.2417 81.2283 75.2031 81.2521 75.1607 81.2669C75.1183 81.2817 75.0732 81.2871 75.0285 81.2828C74.5416 81.2828 74.04 81.2828 73.5458 81.2828C73.5017 81.2859 73.4575 81.2793 73.4163 81.2635C73.3751 81.2477 73.3378 81.2231 73.3072 81.1914C73.2765 81.1597 73.2532 81.1216 73.2389 81.08C73.2246 81.0383 73.2197 80.994 73.2244 80.9502C73.2244 80.8482 73.2244 80.7463 73.2244 80.6443V70.6906C73.2244 70.6032 73.2244 70.5158 73.2244 70.4308C73.2463 70.1516 73.3218 70.057 73.5945 70.0521C74.1472 70.0521 74.6999 70.0521 75.2525 70.0521C75.5277 70.0521 75.6616 70.2245 75.7979 70.4211L78.4956 74.2667L80.7623 77.4931C80.8321 77.3587 80.8536 77.2044 80.8232 77.0561C80.8232 74.9521 80.8232 72.848 80.8232 70.744C80.8232 70.642 80.8232 70.5401 80.8232 70.4405C80.8427 70.1638 80.9255 70.057 81.186 70.0497C81.6729 70.0497 82.1477 70.0351 82.6249 70.0497C82.8952 70.0497 82.9779 70.1638 82.995 70.4308C82.995 70.5182 82.995 70.6032 82.995 70.6906V80.9551C82.9996 80.9989 82.9943 81.0432 82.9795 81.0848C82.9647 81.1263 82.9408 81.164 82.9096 81.1952C82.8783 81.2264 82.8405 81.2502 82.7988 81.2649C82.7571 81.2797 82.7127 81.2849 82.6687 81.2804C82.1152 81.2901 81.5625 81.2901 81.0107 81.2804C80.7964 81.2804 80.6942 81.0983 80.587 80.9429C79.9686 80.0479 79.351 79.1529 78.7342 78.2578C77.697 76.7543 76.6614 75.2491 75.6275 73.7423C75.5763 73.6621 75.5179 73.5845 75.4181 73.4509Z" fill="#4A4551"/>
<path id="Vector_5" d="M0.00244141 75.6699V70.7125C0.00244141 70.6129 0.00244141 70.511 0.00244141 70.409C0.024354 70.1662 0.1047 70.057 0.345739 70.0497C0.832685 70.0351 1.33424 70.0327 1.82606 70.0497C2.08657 70.0497 2.17666 70.1711 2.19857 70.4357C2.19857 70.5352 2.19857 70.6372 2.19857 70.7392C2.19857 71.7394 2.19857 72.7396 2.19857 73.7398C2.19857 74.3565 2.10605 74.3031 2.74395 74.3055H6.88299C7.27742 74.3055 7.27985 74.3055 7.27985 73.8952C7.27985 72.8537 7.27985 71.8098 7.27985 70.7659C7.27985 70.6639 7.27985 70.5619 7.27985 70.4624C7.30664 70.1371 7.38698 70.0521 7.70837 70.0448C8.15879 70.0448 8.60922 70.0448 9.05964 70.0448C9.39564 70.0448 9.48085 70.1565 9.4979 70.5012C9.4979 70.5886 9.4979 70.6761 9.4979 70.7634V80.5545C9.4979 80.654 9.4979 80.756 9.4979 80.858C9.48085 81.1833 9.39807 81.2804 9.08399 81.2877C8.61896 81.2998 8.15392 81.2998 7.68889 81.2877C7.38698 81.2877 7.30177 81.193 7.27985 80.8992C7.27985 80.7851 7.27985 80.6686 7.27985 80.5521C7.27985 79.2783 7.27985 78.0029 7.27985 76.726C7.27985 76.3642 7.27985 76.3594 6.93656 76.3594H2.53943C2.21074 76.3594 2.20587 76.3594 2.20344 76.692C2.20344 78.0102 2.20344 79.3285 2.20344 80.6492C2.20344 80.7487 2.20344 80.8507 2.20344 80.9526C2.20671 80.9968 2.20039 81.0412 2.1849 81.0827C2.16942 81.1243 2.14514 81.162 2.11371 81.1933C2.08229 81.2247 2.04446 81.2489 2.0028 81.2643C1.96114 81.2798 1.91664 81.2861 1.87232 81.2828C1.34885 81.2828 0.825381 81.2828 0.301913 81.2828C0.261576 81.2847 0.221307 81.2779 0.183776 81.2631C0.146245 81.2482 0.11231 81.2256 0.0842211 81.1966C0.0561326 81.1677 0.0345324 81.1332 0.020853 81.0953C0.00717358 81.0574 0.00172774 81.0171 0.00487619 80.9769C0.00487619 80.8604 0.00487619 80.7341 0.00487619 80.6298L0.00244141 75.6699Z" fill="#4A4551"/>
<path id="Vector_6" d="M48.7872 79.1805C48.945 79.227 49.1107 79.241 49.2741 79.2218H54.1582C54.6792 79.2218 54.745 79.2849 54.7498 79.7875C54.7498 80.0642 54.7498 80.3386 54.7498 80.6153C54.7498 81.1688 54.6378 81.2805 54.0924 81.2829H46.3232C45.7827 81.2829 45.7048 81.1567 45.6512 80.6177C45.5733 79.8749 45.8241 79.3092 46.3013 78.7363C48.0251 76.663 49.7099 74.546 51.3875 72.4436C51.4605 72.3562 51.5287 72.2615 51.5993 72.1692C51.5141 72.0333 51.3875 72.0916 51.2852 72.0916C49.671 72.0916 48.0592 72.0916 46.445 72.0916C46.3427 72.0916 46.2404 72.0916 46.1406 72.0916C45.8777 72.0746 45.7559 71.9823 45.7462 71.7298C45.7291 71.2953 45.7316 70.8583 45.7462 70.4261C45.7462 70.1688 45.8679 70.0741 46.1309 70.0498C46.2624 70.0377 46.3938 70.0498 46.5253 70.0498H53.9926C54.0949 70.0498 54.1971 70.0498 54.2994 70.0498C54.6159 70.0765 54.7303 70.1955 54.7401 70.5184C54.7498 70.8413 54.7401 71.186 54.7401 71.5186C54.7307 71.7205 54.6435 71.911 54.4966 72.0503C52.6949 74.3032 50.894 76.5578 49.0939 78.8139C48.9868 78.9208 48.9016 79.0349 48.7872 79.1805Z" fill="#4A4551"/>
<path id="Vector_7" d="M42.4275 75.6992V80.6129C42.4275 80.7124 42.4275 80.8144 42.4275 80.9164C42.4081 81.1591 42.3326 81.2732 42.0915 81.2805C41.5827 81.2951 41.0738 81.2805 40.565 81.2805C40.5212 81.2853 40.4768 81.2804 40.4351 81.2661C40.3934 81.2518 40.3554 81.2286 40.3238 81.198C40.2922 81.1673 40.2677 81.1302 40.2522 81.089C40.2366 81.0479 40.2304 81.0039 40.2338 80.9601C40.2338 80.8435 40.2338 80.7294 40.2338 80.6129V70.7005C40.2338 70.5864 40.2338 70.4577 40.2338 70.3533C40.2321 70.3132 40.2388 70.2732 40.2533 70.2358C40.2679 70.1983 40.29 70.1643 40.3183 70.1358C40.3467 70.1073 40.3806 70.085 40.418 70.0702C40.4555 70.0554 40.4955 70.0485 40.5358 70.0498C41.0592 70.0498 41.5827 70.0377 42.1062 70.0498C42.1504 70.0485 42.1944 70.0567 42.2352 70.0738C42.276 70.0909 42.3127 70.1166 42.3427 70.149C42.3727 70.1815 42.3954 70.22 42.4092 70.2619C42.423 70.3039 42.4276 70.3483 42.4227 70.3921C42.4227 70.4917 42.4227 70.5936 42.4227 70.6956V75.6992H42.4275Z" fill="#4A4551"/>
<path id="Vector_8" d="M28.7106 84.1016C28.5692 84.36 28.4558 84.6326 28.3722 84.9149C28.2748 85.1577 28.1871 85.4005 28.1068 85.6432C28.091 85.714 28.0493 85.7764 27.9899 85.8181C27.9304 85.8599 27.8575 85.878 27.7854 85.869C27.6077 85.869 27.5419 85.7938 27.4835 85.6263C27.3155 85.1407 27.128 84.6552 26.9259 84.1016C26.8197 84.611 26.7473 85.1268 26.7092 85.6457C26.6654 85.9297 26.6411 85.954 26.3659 85.9516C26.2199 85.9516 26.1566 85.9176 26.1736 85.7525C26.2613 84.9635 26.3343 84.1745 26.4171 83.3879C26.4317 83.2544 26.4171 83.099 26.6386 83.0844C26.9698 83.0674 27.0647 83.0844 27.1597 83.3272C27.3325 83.786 27.4981 84.2497 27.6612 84.7134C27.6894 84.8178 27.7429 84.9137 27.8171 84.9926C28.0167 84.4415 28.2115 83.9001 28.4111 83.3587C28.4373 83.298 28.4756 83.2433 28.5237 83.1979C28.5719 83.1524 28.6288 83.1173 28.691 83.0946C28.7532 83.0718 28.8195 83.062 28.8856 83.0657C28.9518 83.0694 29.0165 83.0865 29.0758 83.116C29.1045 83.1373 29.1277 83.1652 29.1434 83.1973C29.159 83.2294 29.1668 83.2648 29.1659 83.3005C29.2487 84.0895 29.3363 84.8785 29.4094 85.6651C29.424 85.7962 29.4435 85.9273 29.2438 85.9443C29.0003 85.9661 28.8981 85.9176 28.8737 85.7015C28.8275 85.2063 28.7763 84.694 28.7106 84.1016Z" fill="#F2693C"/>
<path id="Vector_9" d="M45.8361 84.0651C45.8361 84.6016 45.8361 85.1211 45.8361 85.6407C45.8361 85.9369 45.8044 85.9514 45.5585 85.9611C45.3126 85.9708 45.2883 85.8689 45.2907 85.6722C45.2907 85.1503 45.2907 84.6307 45.2907 84.1088C45.2907 83.9073 45.2907 83.7033 45.2907 83.5018C45.2907 83.3707 45.2079 83.2008 45.3905 83.1183C45.4985 83.081 45.6152 83.0766 45.7257 83.1056C45.8363 83.1345 45.9357 83.1955 46.0114 83.2809C46.2329 83.5844 46.4472 83.8927 46.6639 84.201C46.8252 84.4478 47.0156 84.6744 47.2312 84.8759V83.6839C47.2312 83.5698 47.2312 83.4533 47.2312 83.3368C47.2312 83.094 47.3797 83.094 47.5501 83.094C47.7206 83.094 47.8106 83.1595 47.8106 83.3368C47.8106 84.0893 47.8106 84.8395 47.8106 85.5921C47.8106 85.7159 47.8593 85.8907 47.6913 85.9247C47.5233 85.9587 47.3115 86.0097 47.1703 85.8252C47.0973 85.7353 47.0364 85.6358 46.9707 85.5411L46.0089 84.1476C45.9917 84.1182 45.9661 84.0945 45.9352 84.0798C45.9044 84.0651 45.8699 84.06 45.8361 84.0651Z" fill="#F2693D"/>
<path id="Vector_10" d="M30.7529 84.5093C30.7529 84.1476 30.7529 83.781 30.7529 83.4241C30.7529 83.1037 30.7529 83.094 31.0597 83.0891C31.5467 83.0891 32.0458 83.0891 32.54 83.0891C32.708 83.0891 32.8078 83.1255 32.8127 83.3319C32.8176 83.5382 32.7226 83.6086 32.5278 83.6038C32.2089 83.6038 31.89 83.6038 31.571 83.6038C31.3275 83.6038 31.3275 83.7276 31.3275 83.9048C31.3275 84.0821 31.3275 84.2204 31.571 84.2034C31.8145 84.1864 32.0336 84.2034 32.2673 84.2034C32.5011 84.2034 32.4889 84.3273 32.4913 84.4851C32.4938 84.6429 32.4597 84.7278 32.2746 84.7278C32.0433 84.7133 31.8096 84.7278 31.5783 84.7278C31.3884 84.7278 31.3105 84.791 31.3348 84.9706C31.3409 85.0579 31.3409 85.1455 31.3348 85.2328C31.3348 85.4003 31.403 85.461 31.5783 85.4586C31.9119 85.4586 32.2454 85.4586 32.579 85.4586C32.7811 85.4586 32.859 85.5144 32.8638 85.7281C32.8687 85.9417 32.7567 85.9927 32.5717 85.9903C32.0628 85.9903 31.5564 85.9903 31.0475 85.9903C30.8454 85.9903 30.7651 85.9077 30.77 85.7038C30.7602 85.2886 30.7529 84.8978 30.7529 84.5093Z" fill="#F26B3E"/>
<path id="Vector_11" d="M40.1388 84.519C40.1388 84.8953 40.1388 85.2716 40.1388 85.6479C40.1388 85.9271 40.0974 85.9611 39.8491 85.9587C39.6008 85.9562 39.5788 85.9271 39.5715 85.6358C39.5715 85.393 39.5715 85.1721 39.5715 84.939C39.5715 84.7885 39.5399 84.6962 39.3549 84.6962C39.0651 84.7084 38.773 84.7084 38.4832 84.6962C38.2763 84.6962 38.2397 84.7909 38.2397 84.9633C38.2397 85.2061 38.2397 85.4488 38.2397 85.6916C38.2397 85.881 38.1667 85.9465 37.9817 85.949C37.7966 85.9514 37.6871 85.9053 37.6895 85.6843C37.6992 84.8994 37.6992 84.1168 37.6895 83.3367C37.6895 83.0939 37.8161 83.0939 37.9938 83.0939C38.1716 83.0939 38.2373 83.1789 38.2373 83.3561C38.2373 83.5334 38.2373 83.7616 38.2373 83.9631C38.2373 84.1039 38.2763 84.1816 38.4321 84.1791C38.7389 84.1791 39.0432 84.1791 39.3475 84.1791C39.4936 84.1791 39.5618 84.1306 39.5569 83.9801C39.5569 83.7616 39.5569 83.5431 39.5569 83.327C39.5569 83.1109 39.6568 83.0842 39.8296 83.0842C40.0025 83.0842 40.1413 83.0988 40.1315 83.3391C40.1267 83.7349 40.1388 84.1281 40.1388 84.519Z" fill="#F26A3D"/>
<path id="Vector_12" d="M55.7722 83.0382C56.0798 83.0334 56.3792 83.1375 56.617 83.332C56.7339 83.4267 56.785 83.5335 56.6633 83.6597C56.5416 83.786 56.4685 83.8855 56.303 83.7447C56.218 83.6644 56.1155 83.6049 56.0035 83.5708C55.8916 83.5367 55.7732 83.5289 55.6578 83.5481C55.5068 83.5748 55.3753 83.6427 55.3559 83.8151C55.3364 83.9875 55.4532 84.0579 55.5798 84.0967C55.8087 84.1866 56.0449 84.2594 56.2713 84.3541C56.712 84.5362 56.9214 84.8178 56.8873 85.1528C56.8554 85.3467 56.7652 85.5264 56.6287 85.6682C56.4922 85.8099 56.3158 85.907 56.1228 85.9467C55.8971 86.0049 55.6602 86.0055 55.4342 85.9482C55.2082 85.8909 55.0004 85.7776 54.83 85.6189C54.7253 85.534 54.6327 85.4271 54.7618 85.2912C54.8908 85.1552 54.9882 85.0484 55.1659 85.2062C55.2878 85.3117 55.4281 85.394 55.5798 85.449C55.6464 85.4772 55.7181 85.4918 55.7905 85.4918C55.8628 85.4918 55.9345 85.4772 56.0011 85.449C56.1569 85.381 56.2932 85.2912 56.2908 85.1067C56.2884 84.9222 56.1593 84.8639 56.0205 84.8008C55.8306 84.7279 55.6334 84.677 55.4459 84.6017C54.8859 84.3784 54.7009 84.0895 54.8056 83.6306C54.8835 83.2713 55.2779 83.0358 55.7722 83.0382Z" fill="#F2693D"/>
<path id="Vector_13" d="M34.5539 84.5337C34.5498 84.686 34.5838 84.837 34.653 84.9728C34.7222 85.1087 34.8243 85.2252 34.95 85.3118C35.0758 85.3983 35.2212 85.4522 35.3731 85.4685C35.525 85.4849 35.6786 85.4631 35.82 85.4053C35.9466 85.3422 36.0854 85.2014 36.2242 85.4271C36.3629 85.6529 36.3629 85.7282 36.1097 85.852C35.9102 85.9485 35.6915 85.9991 35.4697 85.9999C35.2479 86.0008 35.0288 85.952 34.8284 85.8571C34.6281 85.7622 34.4518 85.6237 34.3124 85.4517C34.173 85.2797 34.0741 85.0786 34.0231 84.8634C33.9721 84.6482 33.9702 84.4243 34.0176 84.2083C34.065 83.9923 34.1605 83.7896 34.297 83.6154C34.4336 83.4411 34.6076 83.2996 34.8063 83.2014C35.005 83.1032 35.2233 83.0507 35.4451 83.0479C35.6635 83.0376 35.8814 83.0792 36.0805 83.1693C36.2217 83.2349 36.3922 83.2907 36.2729 83.5165C36.1536 83.7423 36.1097 83.7593 35.876 83.6597C35.732 83.589 35.5719 83.5571 35.4118 83.5673C35.2516 83.5776 35.0969 83.6295 34.9631 83.7179C34.8293 83.8064 34.7211 83.9282 34.6493 84.0714C34.5775 84.2145 34.5446 84.3739 34.5539 84.5337Z" fill="#F2693D"/>
<path id="Vector_14" d="M52.5929 83.0502C52.8371 83.0366 53.0797 83.0967 53.2892 83.2226C53.4158 83.2881 53.4572 83.3828 53.3769 83.5042C53.2965 83.6256 53.2746 83.8077 53.0652 83.7057C52.9164 83.6212 52.7494 83.5737 52.5783 83.5673C52.4027 83.5628 52.2298 83.6117 52.0828 83.7076C51.9358 83.8034 51.8216 83.9416 51.7553 84.1039C51.6692 84.2811 51.6391 84.4803 51.6691 84.675C51.6991 84.8697 51.7878 85.0506 51.9233 85.1939C52.0388 85.3262 52.193 85.4191 52.3642 85.4596C52.5353 85.5001 52.7149 85.4861 52.8777 85.4197C52.9333 85.4021 52.9871 85.3793 53.0384 85.3517C53.26 85.2109 53.3111 85.4051 53.3939 85.5289C53.4767 85.6528 53.3939 85.7596 53.2722 85.8324C53.0809 85.9293 52.8711 85.9843 52.6568 85.9938C52.4425 86.0033 52.2287 85.9671 52.0295 85.8876C51.8304 85.808 51.6506 85.6871 51.5021 85.5327C51.3536 85.3783 51.2399 85.1941 51.1686 84.9924C51.0934 84.769 51.073 84.5308 51.1093 84.2979C51.1455 84.065 51.2372 83.8441 51.3767 83.6538C51.5163 83.4636 51.6995 83.3095 51.9111 83.2044C52.1227 83.0994 52.3565 83.0465 52.5929 83.0502Z" fill="#F2693D"/>
<path id="Vector_15" d="M49.7637 84.5726C49.7637 84.9489 49.7637 85.3252 49.7637 85.7039C49.7637 85.886 49.7053 85.9637 49.5202 85.9612C49.3352 85.9588 49.2207 85.9273 49.2232 85.7015C49.2232 84.9173 49.2232 84.1356 49.2232 83.3514C49.2232 83.1232 49.3425 83.1086 49.5251 83.1086C49.7077 83.1086 49.7686 83.1839 49.7686 83.366C49.7588 83.7593 49.7637 84.1671 49.7637 84.5726Z" fill="#F2693C"/>
<path id="Vector_16" d="M18.835 69.8726C17.6891 69.8716 16.5685 70.2091 15.6146 70.8424C14.6608 71.4757 13.9164 72.3765 13.4753 73.4311C13.0342 74.4858 12.9162 75.647 13.1362 76.7684C13.3562 77.8898 13.9043 78.9212 14.7114 79.7324C15.5185 80.5436 16.5484 81.0983 17.6713 81.3265C18.7941 81.5548 19.9597 81.4464 21.0208 81.015C22.0819 80.5836 22.9912 79.8485 23.6339 78.9024C24.2766 77.9564 24.6239 76.8418 24.6321 75.6991C24.6372 74.9364 24.4911 74.1802 24.2022 73.474C23.9133 72.7678 23.4872 72.1255 22.9484 71.584C22.4097 71.0426 21.769 70.6126 21.063 70.3189C20.3571 70.0252 19.5999 69.8735 18.835 69.8726ZM18.8618 79.314C18.3796 79.3178 17.9014 79.2269 17.4545 79.0465C17.0076 78.866 16.6007 78.5996 16.257 78.2623C15.9134 77.9251 15.6397 77.5236 15.4517 77.0809C15.2636 76.6382 15.1648 76.1629 15.161 75.6821C15.1572 75.2014 15.2483 74.7245 15.4293 74.2789C15.6103 73.8333 15.8775 73.4275 16.2157 73.0849C16.8988 72.3928 17.8296 71.9997 18.8034 71.992C20.7073 71.9361 22.4141 73.5384 22.4238 75.5996C22.4377 76.0776 22.3563 76.5537 22.1843 77.0001C22.0123 77.4465 21.7531 77.8544 21.4217 78.2002C21.0904 78.546 20.6935 78.8227 20.254 79.0143C19.8146 79.2059 19.3413 79.3086 18.8618 79.3164V79.314Z" fill="#4A4551"/>
<path id="Vector_17" d="M63.9069 69.8726C62.3682 69.8726 60.8924 70.4821 59.8043 71.567C58.7163 72.652 58.105 74.1235 58.105 75.6578C58.105 77.1922 58.7163 78.6637 59.8043 79.7487C60.8924 80.8336 62.3682 81.4431 63.9069 81.4431C64.6689 81.4431 65.4233 81.2935 66.1273 81.0027C66.8312 80.712 67.4708 80.2859 68.0095 79.7487C68.5483 79.2114 68.9757 78.5737 69.2673 77.8718C69.5588 77.1699 69.7089 76.4176 69.7089 75.6578C69.7089 74.8981 69.5588 74.1458 69.2673 73.4439C68.9757 72.742 68.5483 72.1042 68.0095 71.567C67.4708 71.0298 66.8312 70.6037 66.1273 70.3129C65.4233 70.0222 64.6689 69.8726 63.9069 69.8726ZM63.7852 79.3189C63.0565 79.3145 62.3455 79.0944 61.7424 78.6865C61.1393 78.2786 60.6713 77.7013 60.3977 77.0278C60.1241 76.3543 60.0572 75.615 60.2057 74.9036C60.3541 74.1922 60.711 73.5407 61.2313 73.0319C61.7515 72.523 62.4116 72.1797 63.1277 72.0455C63.8439 71.9112 64.584 71.9921 65.254 72.2778C65.9241 72.5635 66.4939 73.0413 66.8913 73.6504C67.2886 74.2595 67.4956 74.9725 67.486 75.6991C67.4854 76.1803 67.3888 76.6565 67.2017 77.1C67.0147 77.5435 66.7409 77.9455 66.3964 78.2824C66.052 78.6193 65.6437 78.8845 65.1953 79.0625C64.747 79.2404 64.2677 79.3276 63.7852 79.3189Z" fill="#4A4551"/>
<path id="Vector_18" d="M36.8644 80.9019C36.816 80.765 36.7574 80.6319 36.6891 80.5037C36.1388 79.4185 35.5837 78.3382 35.0359 77.253C34.8095 76.8014 34.7924 76.9034 35.1771 76.6558C35.238 76.6169 35.2964 76.5732 35.3548 76.5319C35.9169 76.1134 36.3429 75.5392 36.5798 74.8808C36.8166 74.2224 36.8538 73.509 36.6866 72.8297C36.5021 72.0405 36.0562 71.3365 35.4209 70.8312C34.7856 70.326 33.9981 70.049 33.1855 70.045C31.6735 70.0305 30.1616 70.045 28.652 70.045H28.4767C28.4328 70.042 28.3888 70.0481 28.3474 70.0629C28.3059 70.0777 28.268 70.1008 28.236 70.1309C28.204 70.161 28.1786 70.1974 28.1613 70.2378C28.1441 70.2782 28.1354 70.3216 28.1359 70.3655C28.1285 70.4811 28.1285 70.5971 28.1359 70.7127V80.5377C28.1359 80.6397 28.1359 80.7392 28.1359 80.8412C28.1505 81.1859 28.2357 81.2782 28.579 81.2855C29.0294 81.2855 29.4823 81.2855 29.9327 81.2855C30.2736 81.2855 30.3515 81.1883 30.3636 80.8339C30.3636 80.7028 30.3636 80.5717 30.3636 80.443C30.3636 79.5156 30.3636 78.5882 30.3636 77.6608C30.3636 77.3744 30.3636 77.3744 30.6558 77.3744C31.1939 77.3744 31.732 77.3914 32.2676 77.3744C32.3933 77.3541 32.5221 77.3784 32.6316 77.4432C32.7411 77.508 32.8242 77.6091 32.8665 77.7288C33.39 78.8116 33.9476 79.8774 34.4832 80.9504C34.5733 81.1301 34.6634 81.2903 34.8849 81.2903C35.4668 81.2903 36.0487 81.3024 36.6306 81.2903C36.8814 81.283 36.9496 81.1495 36.8644 80.9019ZM32.9883 75.4103C32.1921 75.4565 31.396 75.4103 30.5974 75.437C30.3977 75.437 30.3539 75.3521 30.3539 75.1748C30.3539 74.6699 30.3539 74.1625 30.3539 73.6575C30.3539 73.1525 30.3539 72.6451 30.3539 72.1378C30.3539 71.9727 30.4123 71.912 30.5828 71.9144C31.3132 71.9144 32.0631 71.9144 32.8008 71.9363C33.0854 71.9373 33.3653 72.0085 33.6155 72.1437C33.8657 72.2788 34.0785 72.4736 34.2349 72.7107C35.0018 73.8177 34.2714 75.3327 32.9883 75.4103Z" fill="#4A4551"/>
<path id="Vector_19" d="M43.9735 85.6965C43.6618 84.9196 43.3453 84.1452 43.041 83.3659C42.9752 83.2008 42.9022 83.1037 42.705 83.094C42.5078 83.0843 42.4079 83.2251 42.3422 83.3877C42.0452 84.1161 41.7481 84.8614 41.4584 85.5994C41.4219 85.6965 41.3099 85.8179 41.4194 85.915C41.529 86.0121 41.6629 85.966 41.7944 85.9417C41.9259 85.9174 41.9453 85.7766 41.9819 85.6722C41.9978 85.5876 42.0467 85.5128 42.1179 85.4641C42.1891 85.4154 42.2768 85.3969 42.3617 85.4125C42.5935 85.427 42.8261 85.427 43.058 85.4125C43.1293 85.4034 43.2014 85.4197 43.2619 85.4582C43.3225 85.4968 43.3675 85.5554 43.3891 85.6237C43.5571 85.9976 43.5669 85.9951 44.01 85.9004C44.022 85.8303 44.0091 85.7582 43.9735 85.6965ZM42.3251 84.8856C42.3641 84.5288 42.5491 84.2253 42.6733 83.8126C42.842 84.1434 42.9782 84.4898 43.0799 84.8468C42.7926 84.9609 42.7488 84.9633 42.3251 84.8856Z" fill="#F2693C"/>
</g>
<defs>
<clipPath id="clip0_373_370">
<rect width="83" height="86" fill="white"/>
</clipPath>
</defs>
</svg>
