<svg width="100" height="104" viewBox="0 0 100 104" fill="none" xmlns="http://www.w3.org/2000/svg">
<g id="Logo" clip-path="url(#clip0_167_4613)">
<path id="Vector" d="M78.4425 33.9415C78.4425 32.8552 78.4572 31.769 78.4572 30.6827C78.4572 28.7362 78.4572 26.7897 78.4572 24.8433C78.4718 24.6986 78.4406 24.553 78.3679 24.427C78.2953 24.3011 78.1849 24.2012 78.0524 24.1416C71.4424 20.3367 64.8383 16.526 58.2401 12.7093C56.2718 11.5732 54.2976 10.4429 52.3381 9.29201C52.2129 9.20192 52.0625 9.15346 51.9083 9.15346C51.7541 9.15346 51.6038 9.20192 51.4786 9.29201C45.7056 12.6193 39.9297 15.9408 34.1509 19.2563C31.3759 20.8505 28.6068 22.4564 25.823 24.0388C25.6343 24.122 25.4764 24.262 25.3712 24.4394C25.266 24.6168 25.2188 24.8227 25.2363 25.0282C25.2519 34.7968 25.2519 44.5635 25.2363 54.3281C25.2363 55.1913 25.1366 55.0386 25.8787 55.4673L44.5704 66.3299C46.8086 67.6276 49.0497 68.9223 51.2791 70.2346C51.4418 70.3494 51.636 70.411 51.835 70.411C52.034 70.411 52.2282 70.3494 52.3909 70.2346C58.3438 66.7645 64.3015 63.3031 70.2642 59.8505L77.7972 55.4819C77.8701 55.4331 77.9455 55.388 78.023 55.3469C78.186 55.2841 78.3228 55.1675 78.4108 55.0165C78.4988 54.8655 78.5327 54.689 78.507 54.516C78.4718 52.414 78.4572 50.3119 78.4484 48.2098C78.4396 46.1077 78.4484 43.9645 78.4484 41.8449C78.4484 41.2048 78.466 41.1843 79.0937 41.0522L85.8787 39.6312C85.9462 39.6165 86.0166 39.6107 86.084 39.596C86.3217 39.5461 86.4595 39.6136 86.439 39.8896C86.439 39.9953 86.439 40.101 86.439 40.2037C86.439 46.5178 86.439 52.8309 86.439 59.143C86.4569 59.3384 86.4127 59.5344 86.3126 59.7032C86.2125 59.8719 86.0616 60.0046 85.8816 60.0824C80.7971 63.0007 75.7252 65.9307 70.666 68.8724C67.4686 70.72 64.2702 72.5608 61.0708 74.3948C58.1756 76.0623 55.2803 77.724 52.3909 79.4033C52.2349 79.5114 52.0497 79.5693 51.8599 79.5693C51.6702 79.5693 51.485 79.5114 51.329 79.4033C44.7347 75.5574 38.1277 71.728 31.5079 67.9153C26.9787 65.3004 22.4495 62.6865 17.9204 60.0736C17.7329 59.9922 17.5756 59.8542 17.4704 59.6789C17.3652 59.5036 17.3174 59.2998 17.3337 59.096C17.3513 46.3485 17.3513 33.601 17.3337 20.8534C17.3337 20.6949 17.3337 20.5364 17.3337 20.3778C17.3294 20.1765 17.3847 19.9785 17.4928 19.8086C17.6009 19.6388 17.7568 19.5049 17.9409 19.4237C21.461 17.4273 24.9684 15.4231 28.463 13.411C33.3129 10.62 38.1589 7.82212 43.001 5.01739C45.7878 3.40854 48.5706 1.79186 51.3495 0.167345C51.493 0.0612164 51.666 0.00272585 51.8444 9.29566e-05C52.0227 -0.00253993 52.1974 0.0508162 52.3439 0.152665C62.2471 5.87564 72.1543 11.5898 82.0653 17.2952C83.353 18.035 84.632 18.7954 85.9344 19.5147C86.098 19.5923 86.2336 19.7186 86.3228 19.8762C86.4121 20.0338 86.4506 20.2151 86.4331 20.3954C86.4185 25.3864 86.4331 30.3568 86.4331 35.336C86.4331 35.5621 86.4331 35.7911 86.4537 36.0172C86.2424 36.1874 86.0136 36.0847 85.8054 36.0348C83.5056 35.4887 81.2204 34.8957 78.9441 34.2733C78.7534 34.2116 78.5452 34.1705 78.4425 33.9415Z" fill="#F2683C"/>
<path id="Vector_2" d="M78.4422 33.9415C79.4513 34.2909 80.4956 34.5287 81.5223 34.7929C83.1621 35.2274 84.8019 35.6737 86.4622 36.0113C88.5684 36.7042 90.701 37.3178 92.7778 38.0958C92.818 38.1107 92.8528 38.1375 92.8774 38.1726C92.902 38.2077 92.9154 38.2495 92.9157 38.2925C92.4933 38.2925 92.0738 38.3248 91.6514 38.3248C89.2871 38.3248 86.9257 38.451 84.5672 38.586C82.1589 38.7211 79.7535 38.9178 77.351 39.1732C74.9485 39.4286 72.5226 39.7017 70.1201 40.054C66.1952 40.6411 62.3026 41.3839 58.4452 42.3175C52.9553 43.6296 47.5735 45.359 42.3466 47.4905C40.745 48.1482 39.158 48.8351 37.5974 49.5867C37.4595 49.6513 37.3275 49.7276 37.175 49.8098C37.2982 50.0212 37.4683 49.9361 37.6091 49.9361C39.3428 49.9361 41.0794 49.9361 42.813 49.9361H43.1797C43.4496 49.9361 43.5581 50.0741 43.561 50.3266C43.561 50.397 43.561 50.4675 43.561 50.5379C43.5845 54.7812 43.606 59.0236 43.6256 63.2649C43.6256 63.4792 43.7488 63.7728 43.5024 63.8902C43.3058 63.9842 43.121 63.7611 42.948 63.6613C38.5987 61.154 34.2484 58.6468 29.8972 56.1396C29.7351 56.0637 29.5999 55.9401 29.5098 55.7854C29.4197 55.6306 29.3788 55.4521 29.3927 55.2735C29.3927 52.276 29.3721 49.2755 29.3604 46.278C29.3604 45.4795 29.3604 45.4853 30.0321 45.1037C32.8303 43.5879 35.7687 42.3471 38.806 41.3986C43.9399 39.7295 49.18 38.4074 54.4909 37.4411C57.9387 36.8187 61.405 36.3567 64.8899 36.0553C67.7314 35.8068 70.5807 35.6609 73.4378 35.6179C73.4675 35.6181 73.4968 35.6113 73.5233 35.5981C73.5498 35.5848 73.5728 35.5654 73.5904 35.5416L72.3378 35.4887C68.803 35.3272 65.2624 35.336 61.7277 35.4271C59.5775 35.4828 57.4273 35.6208 55.2742 35.8087C52.4023 36.0612 49.5393 36.3959 46.691 36.8627C41.4794 37.6936 36.3486 38.9705 31.3551 40.6793C30.8095 40.8672 30.2698 41.0727 29.7271 41.2665C29.3751 41.3898 29.3428 41.3634 29.3311 40.9729C29.3193 40.5824 29.3311 40.2712 29.3311 39.9189C29.2929 34.8546 29.2607 29.7873 29.202 24.72C29.1824 24.4973 29.2309 24.274 29.3409 24.0795C29.4509 23.8851 29.6172 23.7286 29.818 23.6308C34.1203 21.0707 38.4109 18.4989 42.6898 15.9153C43.3733 15.5043 43.5904 15.6217 43.5962 16.4203C43.608 18.1818 43.6168 19.9531 43.6226 21.7342C43.6344 25.222 43.6442 28.7108 43.652 32.2005V32.7525C44.0772 32.771 44.5032 32.7424 44.9221 32.6673C46.4211 32.5323 47.9142 32.3738 49.4132 32.2152C51.4666 32.0038 53.5376 31.9804 55.6027 31.9481L59.3311 31.8893C59.7564 31.8893 59.7799 31.8629 59.7769 31.4372C59.7769 30.122 59.7505 28.7949 59.7476 27.4914C59.7339 23.7042 59.7222 19.9179 59.7124 16.1326C59.6861 15.9654 59.7085 15.7941 59.7769 15.6393C60.3431 15.9652 60.9004 16.2823 61.4549 16.6082C65.2292 18.812 69.0064 21.0159 72.7866 23.2197C72.9883 23.3216 73.1552 23.4813 73.2659 23.6784C73.3767 23.8755 73.4263 24.1011 73.4085 24.3266C73.4085 26.5373 73.4085 28.745 73.4085 30.9557C73.4085 31.4284 73.4085 31.9011 73.4261 32.3738C73.4261 32.5147 73.4261 32.6409 73.6138 32.6908C75.2331 33.0989 76.8377 33.5217 78.4422 33.9415Z" fill="#4A4551"/>
<path id="Vector_3" d="M59.6362 62.5632C59.5576 62.4329 59.5304 62.278 59.5599 62.1287C59.5599 61.5415 59.5453 60.9367 59.5423 60.3408C59.5423 55.9781 59.5277 51.6124 59.4895 47.2498C59.4668 47.0571 59.5133 46.8627 59.6209 46.7013C59.7284 46.5399 59.8898 46.4221 60.0762 46.369C64.2064 44.5258 68.4737 43.0073 72.8395 41.8272L73.0419 41.7744C73.3734 41.698 73.4584 41.7567 73.479 42.068C73.479 42.1736 73.479 42.2793 73.479 42.385C73.479 46.275 73.479 50.168 73.479 54.058C73.4951 54.2279 73.4577 54.3985 73.3719 54.546C73.2861 54.6934 73.1564 54.8102 73.0008 54.8801C68.6789 57.3853 64.358 59.8955 60.0381 62.4105C59.9261 62.507 59.7839 62.561 59.6362 62.5632Z" fill="#F2683C"/>
<path id="Vector_4" d="M90.8653 88.8245C90.8022 89.0386 90.7812 89.263 90.8037 89.4851C90.8037 92.1332 90.8037 94.7804 90.8037 97.4266C90.8037 97.5851 90.8037 97.7437 90.8037 97.8993C90.8074 97.9533 90.7992 98.0074 90.7799 98.058C90.7605 98.1085 90.7304 98.1543 90.6916 98.192C90.6528 98.2297 90.6062 98.2585 90.5552 98.2764C90.5041 98.2943 90.4498 98.3009 90.396 98.2956C89.8093 98.2956 89.205 98.2956 88.6095 98.2956C88.5564 98.2994 88.5032 98.2914 88.4535 98.2723C88.4038 98.2532 88.3589 98.2234 88.322 98.1851C88.2851 98.1467 88.257 98.1007 88.2398 98.0503C88.2226 97.9999 88.2166 97.9464 88.2223 97.8934C88.2223 97.7701 88.2223 97.6468 88.2223 97.5235V85.4864C88.2223 85.3808 88.2223 85.2751 88.2223 85.1723C88.2487 84.8347 88.3397 84.7202 88.6682 84.7143C89.3341 84.7143 90 84.7143 90.6659 84.7143C90.9973 84.7143 91.1587 84.9228 91.3229 85.1606L94.5732 89.811L97.3042 93.7127C97.3882 93.5501 97.4141 93.3636 97.3775 93.1843C97.3775 90.6399 97.3775 88.0954 97.3775 85.551C97.3775 85.4277 97.3775 85.3044 97.3775 85.1841C97.401 84.8494 97.5007 84.7202 97.8146 84.7114C98.4013 84.7114 98.9733 84.6938 99.5482 84.7114C99.8738 84.7114 99.9736 84.8494 99.9941 85.1723C99.9941 85.278 99.9941 85.3808 99.9941 85.4864V97.8993C99.9996 97.9523 99.9933 98.0059 99.9755 98.0561C99.9577 98.1064 99.9289 98.152 99.8912 98.1897C99.8535 98.2274 99.8079 98.2562 99.7577 98.274C99.7075 98.2918 99.654 98.2982 99.601 98.2927C98.9342 98.3044 98.2683 98.3044 97.6034 98.2927C97.3452 98.2927 97.222 98.0725 97.093 97.8846C96.3479 96.8022 95.6038 95.7199 94.8606 94.6375C93.611 92.8193 92.3633 90.999 91.1176 89.1768C91.056 89.0799 90.9856 88.986 90.8653 88.8245Z" fill="#4A4551"/>
<path id="Vector_5" d="M0.00292969 91.5079V85.5128C0.00292969 85.3925 0.00292969 85.2692 0.00292969 85.1459C0.0293304 84.8523 0.126133 84.7202 0.416541 84.7114C1.00322 84.6937 1.60751 84.6908 2.20005 84.7114C2.51393 84.7114 2.62247 84.8581 2.64887 85.1782C2.64887 85.2985 2.64887 85.4218 2.64887 85.5451C2.64887 86.7547 2.64887 87.9643 2.64887 89.1739C2.64887 89.9196 2.5374 89.855 3.30595 89.8579H8.29275C8.76796 89.8579 8.7709 89.8579 8.7709 89.3618C8.7709 88.1023 8.7709 86.8399 8.7709 85.5774C8.7709 85.4541 8.7709 85.3308 8.7709 85.2104C8.80316 84.817 8.89997 84.7143 9.28718 84.7055C9.82986 84.7055 10.3725 84.7055 10.9152 84.7055C11.32 84.7055 11.4227 84.8405 11.4432 85.2574C11.4432 85.3631 11.4432 85.4688 11.4432 85.5745V97.4148C11.4432 97.5352 11.4432 97.6585 11.4432 97.7818C11.4227 98.1752 11.323 98.2927 10.9446 98.3015C10.3843 98.3161 9.82399 98.3161 9.26371 98.3015C8.89997 98.3015 8.7973 98.187 8.7709 97.8317C8.7709 97.6937 8.7709 97.5528 8.7709 97.4119C8.7709 95.8715 8.7709 94.3292 8.7709 92.785C8.7709 92.3475 8.7709 92.3417 8.35729 92.3417H3.05954C2.66353 92.3417 2.65767 92.3417 2.65473 92.7439C2.65473 94.338 2.65473 95.9322 2.65473 97.5293C2.65473 97.6497 2.65473 97.773 2.65473 97.8963C2.65867 97.9498 2.65106 98.0034 2.6324 98.0537C2.61375 98.1039 2.58449 98.1495 2.54663 98.1874C2.50877 98.2253 2.46319 98.2546 2.413 98.2732C2.36281 98.2919 2.30919 98.2995 2.25579 98.2956C1.62511 98.2956 0.994423 98.2956 0.363739 98.2956C0.31514 98.2978 0.266623 98.2897 0.221405 98.2717C0.176187 98.2538 0.135301 98.2264 0.101459 98.1914C0.0676179 98.1564 0.0415936 98.1146 0.0251123 98.0688C0.00863111 98.023 0.00206984 97.9742 0.00586317 97.9257C0.00586317 97.7847 0.00586317 97.6321 0.00586317 97.5058L0.00292969 91.5079Z" fill="#4A4551"/>
<path id="Vector_6" d="M58.7795 95.7531C58.9697 95.8093 59.1693 95.8263 59.3662 95.803H65.2506C65.8784 95.803 65.9576 95.8794 65.9634 96.4871C65.9634 96.8218 65.9634 97.1535 65.9634 97.4882C65.9634 98.1576 65.8285 98.2927 65.1714 98.2956H55.8109C55.1597 98.2956 55.0658 98.1429 55.0013 97.4912C54.9074 96.5928 55.2095 95.9087 55.7845 95.2159C57.8614 92.7086 59.8913 90.1486 61.9124 87.6061C62.0004 87.5004 62.0825 87.3859 62.1676 87.2744C62.0649 87.11 61.9124 87.1804 61.7892 87.1804C59.8443 87.1804 57.9024 87.1804 55.9576 87.1804C55.8344 87.1804 55.7112 87.1804 55.5909 87.1804C55.2741 87.1599 55.1274 87.0483 55.1157 86.743C55.0951 86.2175 55.0981 85.689 55.1157 85.1664C55.1157 84.8552 55.2623 84.7407 55.5792 84.7114C55.7376 84.6967 55.896 84.7114 56.0544 84.7114H65.0511C65.1743 84.7114 65.2976 84.7114 65.4208 84.7114C65.8021 84.7437 65.94 84.8875 65.9517 85.278C65.9634 85.6684 65.9517 86.0853 65.9517 86.4876C65.9404 86.7317 65.8353 86.962 65.6584 87.1305C63.4876 89.855 61.3179 92.5814 59.1491 95.3098C59.02 95.439 58.9174 95.577 58.7795 95.7531Z" fill="#4A4551"/>
<path id="Vector_7" d="M51.1178 91.5431V97.4853C51.1178 97.6057 51.1178 97.729 51.1178 97.8523C51.0943 98.1459 51.0034 98.2838 50.713 98.2927C50.0999 98.3103 49.4868 98.2927 48.8737 98.2927C48.8209 98.2984 48.7675 98.2925 48.7173 98.2752C48.6671 98.258 48.6213 98.2298 48.5831 98.1928C48.545 98.1558 48.5156 98.1108 48.4968 98.0611C48.4781 98.0114 48.4706 97.9581 48.4748 97.9051C48.4748 97.7642 48.4748 97.6262 48.4748 97.4853V85.4982C48.4748 85.3602 48.4748 85.2046 48.4748 85.0783C48.4727 85.0299 48.4807 84.9815 48.4982 84.9362C48.5157 84.8909 48.5424 84.8498 48.5766 84.8153C48.6107 84.7809 48.6516 84.7539 48.6967 84.736C48.7418 84.7181 48.79 84.7097 48.8385 84.7114C49.4692 84.7114 50.0999 84.6967 50.7306 84.7114C50.7839 84.7098 50.8369 84.7197 50.8861 84.7404C50.9352 84.761 50.9794 84.7921 51.0155 84.8313C51.0517 84.8706 51.079 84.9171 51.0956 84.9678C51.1123 85.0186 51.1178 85.0723 51.1119 85.1253C51.1119 85.2457 51.1119 85.369 51.1119 85.4923V91.5431H51.1178Z" fill="#4A4551"/>
<path id="Vector_8" d="M34.5906 101.704C34.4203 102.017 34.2836 102.346 34.1829 102.688C34.0656 102.981 33.96 103.275 33.8632 103.568C33.8441 103.654 33.7939 103.729 33.7223 103.78C33.6507 103.83 33.5629 103.852 33.4759 103.841C33.2618 103.841 33.1826 103.75 33.1122 103.548C32.9098 102.961 32.6839 102.374 32.4404 101.704C32.3125 102.32 32.2253 102.944 32.1794 103.571C32.1266 103.915 32.0972 103.944 31.7658 103.941C31.5898 103.941 31.5135 103.9 31.534 103.701C31.6396 102.746 31.7276 101.792 31.8274 100.841C31.845 100.68 31.8274 100.492 32.0943 100.474C32.4932 100.454 32.6077 100.474 32.7221 100.768C32.9303 101.323 33.1298 101.883 33.3263 102.444C33.3602 102.57 33.4247 102.686 33.5141 102.782C33.7546 102.115 33.9893 101.46 34.2298 100.806C34.2614 100.732 34.3075 100.666 34.3655 100.611C34.4235 100.556 34.4921 100.514 34.567 100.486C34.642 100.459 34.7218 100.447 34.8015 100.451C34.8812 100.456 34.9592 100.477 35.0307 100.512C35.0652 100.538 35.0932 100.572 35.112 100.611C35.1309 100.649 35.1402 100.692 35.1392 100.735C35.2389 101.689 35.3445 102.644 35.4325 103.595C35.4501 103.753 35.4736 103.912 35.2331 103.933C34.9397 103.959 34.8165 103.9 34.7872 103.639C34.7314 103.04 34.6698 102.421 34.5906 101.704Z" fill="#F2693C"/>
<path id="Vector_9" d="M55.2246 101.66C55.2246 102.309 55.2246 102.937 55.2246 103.565C55.2246 103.924 55.1864 103.941 54.8902 103.953C54.5939 103.965 54.5645 103.841 54.5675 103.604C54.5675 102.972 54.5675 102.344 54.5675 101.713C54.5675 101.469 54.5675 101.223 54.5675 100.979C54.5675 100.82 54.4677 100.615 54.6877 100.515C54.8179 100.47 54.9584 100.465 55.0916 100.5C55.2248 100.535 55.3446 100.609 55.4358 100.712C55.7027 101.079 55.9608 101.452 56.2219 101.825C56.4163 102.123 56.6457 102.397 56.9054 102.641V101.199C56.9054 101.061 56.9054 100.92 56.9054 100.779C56.9054 100.486 57.0843 100.486 57.2897 100.486C57.495 100.486 57.6036 100.565 57.6036 100.779C57.6036 101.689 57.6036 102.597 57.6036 103.507C57.6036 103.657 57.6622 103.868 57.4598 103.909C57.2574 103.95 57.0022 104.012 56.8321 103.789C56.7441 103.68 56.6707 103.56 56.5915 103.445L55.4328 101.76C55.4121 101.724 55.3812 101.696 55.344 101.678C55.3069 101.66 55.2653 101.654 55.2246 101.66Z" fill="#F2693D"/>
<path id="Vector_10" d="M37.0518 102.197C37.0518 101.76 37.0518 101.317 37.0518 100.885C37.0518 100.498 37.0518 100.486 37.4214 100.48C38.008 100.48 38.6094 100.48 39.2049 100.48C39.4073 100.48 39.5276 100.524 39.5334 100.774C39.5393 101.023 39.4249 101.108 39.1902 101.102C38.8059 101.102 38.4217 101.102 38.0374 101.102C37.744 101.102 37.744 101.252 37.744 101.466C37.744 101.681 37.744 101.848 38.0374 101.827C38.3307 101.807 38.5947 101.827 38.8763 101.827C39.1579 101.827 39.1433 101.977 39.1462 102.168C39.1491 102.359 39.1081 102.462 38.8851 102.462C38.6065 102.444 38.3249 102.462 38.0462 102.462C37.8174 102.462 37.7235 102.538 37.7528 102.755C37.7602 102.861 37.7602 102.967 37.7528 103.072C37.7528 103.275 37.835 103.348 38.0462 103.345C38.4481 103.345 38.8499 103.345 39.2518 103.345C39.4953 103.345 39.5892 103.413 39.595 103.671C39.6009 103.93 39.466 103.991 39.243 103.988C38.6299 103.988 38.0198 103.988 37.4067 103.988C37.1632 103.988 37.0664 103.888 37.0723 103.642C37.0606 103.14 37.0518 102.667 37.0518 102.197Z" fill="#F26B3E"/>
<path id="Vector_11" d="M48.3602 102.209C48.3602 102.664 48.3602 103.119 48.3602 103.574C48.3602 103.912 48.3104 103.953 48.0112 103.95C47.712 103.947 47.6856 103.912 47.6768 103.56C47.6768 103.266 47.6768 102.999 47.6768 102.717C47.6768 102.535 47.6386 102.423 47.4157 102.423C47.0666 102.438 46.7146 102.438 46.3655 102.423C46.1162 102.423 46.0722 102.538 46.0722 102.746C46.0722 103.04 46.0722 103.334 46.0722 103.627C46.0722 103.856 45.9842 103.935 45.7612 103.938C45.5383 103.941 45.4063 103.886 45.4092 103.618C45.421 102.669 45.421 101.723 45.4092 100.779C45.4092 100.486 45.5618 100.486 45.7759 100.486C45.99 100.486 46.0692 100.589 46.0692 100.803C46.0692 101.017 46.0692 101.293 46.0692 101.537C46.0692 101.707 46.1162 101.801 46.3039 101.798C46.6735 101.798 47.0402 101.798 47.4069 101.798C47.5829 101.798 47.665 101.739 47.6592 101.557C47.6592 101.293 47.6592 101.029 47.6592 100.768C47.6592 100.506 47.7794 100.474 47.9877 100.474C48.196 100.474 48.3632 100.492 48.3514 100.782C48.3456 101.261 48.3602 101.736 48.3602 102.209Z" fill="#F26A3D"/>
<path id="Vector_12" d="M67.1957 100.418C67.5663 100.412 67.9269 100.538 68.2136 100.773C68.3544 100.888 68.416 101.017 68.2693 101.17C68.1226 101.322 68.0346 101.443 67.8352 101.273C67.7328 101.175 67.6093 101.103 67.4744 101.062C67.3395 101.021 67.1969 101.012 67.0578 101.035C66.8759 101.067 66.7175 101.149 66.6941 101.358C66.6706 101.566 66.8114 101.651 66.9639 101.698C67.2397 101.807 67.5242 101.895 67.797 102.009C68.328 102.23 68.5802 102.57 68.5392 102.975C68.5007 103.21 68.3921 103.427 68.2276 103.599C68.0632 103.77 67.8506 103.887 67.6181 103.935C67.3461 104.006 67.0607 104.006 66.7885 103.937C66.5162 103.868 66.2658 103.731 66.0604 103.539C65.9343 103.436 65.8228 103.307 65.9783 103.143C66.1338 102.978 66.2511 102.849 66.4653 103.04C66.6121 103.168 66.7811 103.267 66.9639 103.334C67.0442 103.368 67.1305 103.385 67.2177 103.385C67.3049 103.385 67.3912 103.368 67.4714 103.334C67.6591 103.251 67.8234 103.143 67.8205 102.92C67.8176 102.696 67.6621 102.626 67.4949 102.55C67.2661 102.462 67.0285 102.4 66.8026 102.309C66.1279 102.039 65.905 101.689 66.0311 101.135C66.125 100.7 66.6002 100.415 67.1957 100.418Z" fill="#F2693D"/>
<path id="Vector_13" d="M41.6308 102.227C41.6258 102.411 41.6668 102.593 41.7501 102.758C41.8334 102.922 41.9564 103.063 42.1079 103.168C42.2594 103.272 42.4347 103.337 42.6177 103.357C42.8007 103.377 42.9858 103.351 43.1561 103.281C43.3087 103.204 43.4759 103.034 43.6431 103.307C43.8103 103.58 43.8103 103.671 43.5052 103.821C43.2648 103.938 43.0013 103.999 42.7341 104C42.4669 104.001 42.2028 103.942 41.9615 103.827C41.7201 103.712 41.5076 103.545 41.3397 103.337C41.1718 103.129 41.0526 102.886 40.9912 102.625C40.9297 102.365 40.9275 102.094 40.9846 101.833C41.0417 101.572 41.1568 101.327 41.3212 101.116C41.4857 100.905 41.6954 100.734 41.9348 100.616C42.1742 100.497 42.4372 100.433 42.7044 100.43C42.9676 100.417 43.2301 100.468 43.47 100.577C43.6401 100.656 43.8455 100.724 43.7017 100.997C43.558 101.27 43.5052 101.29 43.2236 101.17C43.0501 101.084 42.8573 101.046 42.6643 101.058C42.4713 101.07 42.2849 101.133 42.1237 101.24C41.9625 101.347 41.8322 101.495 41.7457 101.668C41.6592 101.841 41.6196 102.034 41.6308 102.227Z" fill="#F2693D"/>
<path id="Vector_14" d="M63.3647 100.433C63.6589 100.417 63.9513 100.489 64.2036 100.641C64.3562 100.721 64.406 100.835 64.3092 100.982C64.2124 101.129 64.186 101.349 63.9338 101.226C63.7545 101.123 63.5532 101.066 63.3471 101.058C63.1355 101.053 62.9273 101.112 62.7502 101.228C62.573 101.344 62.4354 101.511 62.3556 101.707C62.2518 101.921 62.2155 102.162 62.2517 102.398C62.2878 102.633 62.3947 102.852 62.558 103.025C62.6972 103.185 62.8829 103.298 63.0891 103.347C63.2954 103.396 63.5117 103.379 63.7079 103.298C63.7748 103.277 63.8397 103.25 63.9015 103.216C64.1684 103.046 64.23 103.281 64.3298 103.43C64.4295 103.58 64.3298 103.709 64.1831 103.797C63.9527 103.915 63.6999 103.981 63.4417 103.993C63.1835 104.004 62.9259 103.96 62.686 103.864C62.446 103.768 62.2294 103.622 62.0505 103.435C61.8716 103.248 61.7346 103.026 61.6486 102.782C61.558 102.511 61.5335 102.223 61.5772 101.942C61.6208 101.66 61.7313 101.393 61.8994 101.163C62.0675 100.933 62.2883 100.746 62.5433 100.619C62.7982 100.492 63.0799 100.428 63.3647 100.433Z" fill="#F2693D"/>
<path id="Vector_15" d="M59.956 102.274C59.956 102.729 59.956 103.184 59.956 103.642C59.956 103.862 59.8855 103.956 59.6626 103.953C59.4397 103.95 59.3018 103.912 59.3047 103.639C59.3047 102.691 59.3047 101.745 59.3047 100.797C59.3047 100.521 59.4485 100.503 59.6685 100.503C59.8885 100.503 59.9618 100.594 59.9618 100.815C59.9501 101.29 59.956 101.783 59.956 102.274Z" fill="#F2693C"/>
<path id="Vector_16" d="M22.6928 84.4971C21.3121 84.4959 19.962 84.9041 18.8128 85.6699C17.6636 86.4358 16.7667 87.5251 16.2353 88.8004C15.7039 90.0758 15.5617 91.4801 15.8268 92.8363C16.0918 94.1924 16.7522 95.4396 17.7246 96.4206C18.697 97.4015 19.9379 98.0723 21.2907 98.3484C22.6436 98.6244 24.0478 98.4933 25.3263 97.9716C26.6048 97.4499 27.7003 96.561 28.4746 95.4169C29.2489 94.2729 29.6674 92.9249 29.6772 91.5431C29.6834 90.6208 29.5074 89.7063 29.1593 88.8523C28.8112 87.9983 28.2978 87.2216 27.6487 86.5668C26.9997 85.912 26.2277 85.392 25.3772 85.0368C24.5267 84.6816 23.6144 84.4982 22.6928 84.4971ZM22.7251 95.9146C22.1441 95.9193 21.568 95.8093 21.0295 95.5911C20.4911 95.3729 20.0008 95.0507 19.5868 94.6428C19.1728 94.235 18.843 93.7495 18.6165 93.2142C18.3899 92.6788 18.2709 92.104 18.2663 91.5226C18.2616 90.9412 18.3715 90.3646 18.5895 89.8257C18.8076 89.2867 19.1295 88.7961 19.537 88.3817C20.36 87.5448 21.4814 87.0694 22.6547 87.0601C24.9486 86.9926 27.0049 88.9302 27.0166 91.4228C27.0334 92.0009 26.9353 92.5765 26.7281 93.1164C26.5208 93.6563 26.2085 94.1496 25.8093 94.5677C25.4101 94.9858 24.9319 95.3205 24.4024 95.5522C23.873 95.7839 23.3028 95.9081 22.7251 95.9176V95.9146Z" fill="#4A4551"/>
<path id="Vector_17" d="M76.9962 84.4971C75.1422 84.4971 73.3642 85.2342 72.0533 86.5462C70.7423 87.8582 70.0059 89.6377 70.0059 91.4932C70.0059 93.3487 70.7423 95.1282 72.0533 96.4403C73.3642 97.7523 75.1422 98.4894 76.9962 98.4894C77.9142 98.4894 78.8232 98.3084 79.6713 97.9568C80.5194 97.6052 81.29 97.0899 81.9391 96.4403C82.5882 95.7906 83.1031 95.0194 83.4544 94.1705C83.8057 93.3217 83.9865 92.412 83.9865 91.4932C83.9865 90.5745 83.8057 89.6647 83.4544 88.8159C83.1031 87.9671 82.5882 87.1959 81.9391 86.5462C81.29 85.8965 80.5194 85.3812 79.6713 85.0296C78.8232 84.678 77.9142 84.4971 76.9962 84.4971ZM76.8495 95.9205C75.9715 95.9152 75.1149 95.649 74.3883 95.1558C73.6616 94.6625 73.0978 93.9644 72.7681 93.1499C72.4385 92.3355 72.358 91.4414 72.5368 90.5811C72.7156 89.7208 73.1457 88.933 73.7725 88.3177C74.3992 87.7023 75.1945 87.2871 76.0574 87.1248C76.9203 86.9624 77.8119 87.0602 78.6192 87.4058C79.4264 87.7513 80.113 88.329 80.5917 89.0656C81.0705 89.8022 81.3199 90.6645 81.3083 91.5431C81.3076 92.125 81.1912 92.7009 80.9658 93.2372C80.7404 93.7736 80.4106 94.2597 79.9956 94.6671C79.5805 95.0746 79.0886 95.3952 78.5485 95.6104C78.0083 95.8256 77.4308 95.931 76.8495 95.9205Z" fill="#4A4551"/>
<path id="Vector_18" d="M44.415 97.8347C44.3567 97.6692 44.2861 97.5082 44.2038 97.3532C43.5408 96.0409 42.872 94.7344 42.212 93.4221C41.9392 92.876 41.9187 92.9993 42.3821 92.6999C42.4555 92.6529 42.5259 92.6001 42.5963 92.5501C43.2735 92.044 43.7868 91.3496 44.0721 90.5534C44.3575 89.7571 44.4022 88.8945 44.2008 88.073C43.9785 87.1187 43.4413 86.2673 42.6759 85.6563C41.9105 85.0452 40.9616 84.7103 39.9826 84.7055C38.161 84.6879 36.3393 84.7055 34.5206 84.7055H34.3094C34.2565 84.7019 34.2034 84.7092 34.1535 84.7271C34.1036 84.745 34.0579 84.773 34.0193 84.8094C33.9808 84.8458 33.9501 84.8898 33.9294 84.9386C33.9086 84.9874 33.8982 85.04 33.8987 85.0931C33.8899 85.2329 33.8899 85.3731 33.8987 85.5129V97.3943C33.8987 97.5176 33.8987 97.638 33.8987 97.7613C33.9163 98.1782 34.019 98.2898 34.4326 98.2986C34.9753 98.2986 35.5209 98.2986 36.0636 98.2986C36.4742 98.2986 36.5681 98.1811 36.5828 97.7525C36.5828 97.594 36.5828 97.4354 36.5828 97.2798C36.5828 96.1583 36.5828 95.0368 36.5828 93.9153C36.5828 93.5689 36.5828 93.5689 36.9348 93.5689C37.5831 93.5689 38.2314 93.5894 38.8767 93.5689C39.0281 93.5443 39.1833 93.5738 39.3152 93.6522C39.4471 93.7305 39.5473 93.8527 39.5983 93.9975C40.229 95.3069 40.9008 96.5958 41.5461 97.8934C41.6546 98.1107 41.7632 98.3044 42.0301 98.3044C42.7312 98.3044 43.4323 98.3191 44.1334 98.3044C44.4355 98.2956 44.5177 98.1342 44.415 97.8347ZM39.745 91.1938C38.7858 91.2496 37.8265 91.1938 36.8644 91.2261C36.6238 91.2261 36.571 91.1233 36.571 90.909C36.571 90.2983 36.571 89.6847 36.571 89.0741C36.571 88.4634 36.571 87.8498 36.571 87.2362C36.571 87.0366 36.6414 86.9632 36.8468 86.9661C37.7268 86.9661 38.6303 86.9661 39.5191 86.9926C39.862 86.9938 40.1992 87.08 40.5007 87.2434C40.8022 87.4068 41.0585 87.6424 41.2469 87.9291C42.1709 89.2679 41.2909 91.0998 39.745 91.1938Z" fill="#4A4551"/>
<path id="Vector_19" d="M52.9803 103.633C52.6048 102.694 52.2235 101.757 51.8568 100.815C51.7776 100.615 51.6896 100.498 51.452 100.486C51.2144 100.474 51.0941 100.644 51.0149 100.841C50.657 101.722 50.2992 102.623 49.9501 103.516C49.9061 103.633 49.7711 103.78 49.9031 103.897C50.0352 104.015 50.1965 103.959 50.3549 103.93C50.5133 103.9 50.5368 103.73 50.5808 103.604C50.6 103.501 50.659 103.411 50.7447 103.352C50.8305 103.293 50.9361 103.271 51.0384 103.29C51.3178 103.307 51.598 103.307 51.8773 103.29C51.9632 103.279 52.0501 103.298 52.1231 103.345C52.196 103.392 52.2502 103.462 52.2763 103.545C52.4787 103.997 52.4904 103.994 53.0243 103.88C53.0387 103.795 53.0232 103.708 52.9803 103.633ZM50.9944 102.652C51.0413 102.221 51.2643 101.854 51.4139 101.355C51.6171 101.755 51.7811 102.174 51.9037 102.605C51.5576 102.743 51.5048 102.746 50.9944 102.652Z" fill="#F2693C"/>
</g>
<defs>
<clipPath id="clip0_167_4613">
<rect width="100" height="104" fill="white"/>
</clipPath>
</defs>
</svg>
