<svg width="121" height="124" viewBox="0 0 121 124" fill="none" xmlns="http://www.w3.org/2000/svg">
<g clip-path="url(#clip0_282_2863)">
<path d="M94.6307 40.4687C94.6307 39.1736 94.6483 37.8784 94.6483 36.5832C94.6483 34.2624 94.6483 31.9416 94.6483 29.6208C94.6659 29.4483 94.6284 29.2747 94.5412 29.1245C94.454 28.9744 94.3216 28.8553 94.1625 28.7842C86.2306 24.2476 78.3057 19.704 70.3878 15.1535C68.0258 13.7988 65.6568 12.4511 63.3054 11.0789C63.1551 10.9715 62.9748 10.9137 62.7897 10.9137C62.6047 10.9137 62.4243 10.9715 62.274 11.0789C55.3465 15.0461 48.4154 19.0063 41.4808 22.9595C38.1508 24.8602 34.8278 26.775 31.4873 28.6617C31.2609 28.7608 31.0713 28.9278 30.9451 29.1393C30.8189 29.3508 30.7623 29.5963 30.7833 29.8414C30.802 41.4885 30.802 53.1334 30.7833 64.7759C30.7833 65.805 30.6636 65.623 31.5542 66.134L53.9842 79.0857C56.67 80.6329 59.3594 82.1766 62.0346 83.7413C62.2299 83.8781 62.4629 83.9515 62.7017 83.9515C62.9405 83.9515 63.1735 83.8781 63.3688 83.7413C70.5122 79.6038 77.6615 75.4767 84.8167 71.3602L93.8563 66.1515C93.9438 66.0933 94.0343 66.0395 94.1273 65.9905C94.323 65.9156 94.4871 65.7767 94.5926 65.5966C94.6982 65.4165 94.739 65.2061 94.7082 64.9999C94.6659 62.4936 94.6483 59.9872 94.6378 57.4809C94.6272 54.9746 94.6378 52.4193 94.6378 49.8919C94.6378 49.1288 94.6589 49.1043 95.4122 48.9468L103.554 47.2526C103.635 47.2351 103.72 47.2281 103.801 47.2106C104.086 47.1511 104.251 47.2316 104.226 47.5606C104.226 47.6867 104.226 47.8127 104.226 47.9352C104.226 55.4635 104.226 62.9906 104.226 70.5166C104.248 70.7496 104.195 70.9834 104.075 71.1845C103.955 71.3857 103.774 71.544 103.558 71.6367C97.4562 75.1162 91.3699 78.6096 85.299 82.1171C81.462 84.32 77.624 86.5148 73.7847 88.7014C70.3104 90.6897 66.8361 92.671 63.3688 94.6732C63.1816 94.8021 62.9593 94.8711 62.7316 94.8711C62.5039 94.8711 62.2817 94.8021 62.0945 94.6732C54.1813 90.0876 46.2529 85.5219 38.3092 80.9759C32.8742 77.8582 27.4392 74.7416 22.0041 71.6262C21.7792 71.5292 21.5904 71.3647 21.4642 71.1557C21.338 70.9466 21.2806 70.7036 21.3001 70.4606C21.3212 55.2616 21.3212 40.0627 21.3001 24.8637C21.3001 24.6747 21.3001 24.4857 21.3001 24.2966C21.2949 24.0566 21.3614 23.8205 21.4911 23.618C21.6208 23.4155 21.8079 23.2558 22.0288 23.159C26.2529 20.7787 30.4618 18.389 34.6554 15.9901C40.4752 12.6623 46.2904 9.32637 52.1009 5.98227C55.445 4.06402 58.7844 2.13644 62.1191 0.199527C62.2913 0.0729888 62.4989 0.00325005 62.713 0.000110833C62.927 -0.00302838 63.1366 0.0605886 63.3124 0.182024C75.1963 7.00557 87.0848 13.8186 98.978 20.6212C100.523 21.5033 102.058 22.4099 103.621 23.2675C103.817 23.3601 103.98 23.5106 104.087 23.6985C104.194 23.8865 104.24 24.1027 104.219 24.3176C104.202 30.2684 104.219 36.1947 104.219 42.1314C104.219 42.401 104.219 42.674 104.244 42.9435C103.991 43.1466 103.716 43.0241 103.466 42.9645C100.706 42.3135 97.9642 41.6064 95.2326 40.8643C95.0038 40.7908 94.7539 40.7418 94.6307 40.4687Z" fill="#F2683C"/>
<path d="M94.6307 40.4688C95.8416 40.8853 97.0948 41.1689 98.3268 41.4839C100.295 42.002 102.262 42.5341 104.255 42.9366C106.782 43.7627 109.341 44.4943 111.833 45.4219C111.882 45.4397 111.923 45.4716 111.953 45.5135C111.982 45.5554 111.998 45.6053 111.999 45.6565C111.492 45.6565 110.989 45.695 110.482 45.695C107.645 45.695 104.811 45.8455 101.981 46.0065C99.0907 46.1675 96.2042 46.402 93.3213 46.7066C90.4383 47.0111 87.5272 47.3367 84.6442 47.7567C79.9343 48.4568 75.2632 49.3424 70.6343 50.4556C64.0465 52.02 57.5883 54.0819 51.316 56.6234C49.394 57.4075 47.4896 58.2266 45.6169 59.1227C45.4515 59.1997 45.2931 59.2907 45.1101 59.3887C45.2579 59.6408 45.4621 59.5392 45.631 59.5392C47.7114 59.5392 49.7953 59.5392 51.8757 59.5392H52.3157C52.6395 59.5392 52.7698 59.7038 52.7733 60.0048C52.7733 60.0888 52.7733 60.1728 52.7733 60.2568C52.8015 65.3162 52.8273 70.3743 52.8507 75.4313C52.8507 75.6868 52.9986 76.0369 52.7029 76.1769C52.467 76.2889 52.2453 76.0229 52.0376 75.9039C46.8185 72.9145 41.5982 69.9251 36.3767 66.9357C36.1822 66.8452 36.02 66.6979 35.9118 66.5134C35.8036 66.3289 35.7546 66.116 35.7712 65.9031C35.7712 62.3291 35.7466 58.7516 35.7325 55.1777C35.7325 54.2256 35.7325 54.2326 36.5386 53.7775C39.8964 51.9703 43.4225 50.4909 47.0672 49.3599C53.2279 47.3699 59.516 45.7935 65.8892 44.6413C70.0265 43.8992 74.186 43.3485 78.3679 42.9891C81.7777 42.6927 85.1969 42.5189 88.6255 42.4675C88.661 42.4678 88.6962 42.4597 88.728 42.4439C88.7598 42.4281 88.7874 42.405 88.8085 42.3765L87.3054 42.3135C83.0637 42.121 78.8149 42.1315 74.5732 42.24C71.993 42.3065 69.4128 42.471 66.829 42.6951C63.3829 42.9961 59.9472 43.3952 56.5292 43.9517C50.2753 44.9425 44.1184 46.4649 38.1262 48.5023C37.4715 48.7263 36.8238 48.9714 36.1725 49.2024C35.7501 49.3494 35.7114 49.3179 35.6973 48.8524C35.6832 48.3868 35.6973 48.0158 35.6973 47.5957C35.6516 41.5574 35.6128 35.5156 35.5424 29.4739C35.519 29.2084 35.5771 28.9422 35.7091 28.7103C35.8411 28.4784 36.0407 28.2918 36.2817 28.1752C41.4445 25.1228 46.5932 22.0564 51.7278 18.976C52.548 18.4859 52.8085 18.626 52.8155 19.5781C52.8296 21.6784 52.8402 23.7903 52.8472 25.9139C52.8613 30.0724 52.873 34.2321 52.8824 38.393V39.0511C53.3927 39.0732 53.9039 39.0391 54.4066 38.9496C56.2054 38.7886 57.9971 38.5995 59.7959 38.4105C62.26 38.1585 64.7451 38.1305 67.2233 38.092L71.6973 38.022C72.2077 38.022 72.2359 37.9905 72.2324 37.4829C72.2324 35.9147 72.2007 34.3325 72.1972 32.7783C72.1807 28.2627 72.1667 23.7483 72.1549 19.235C72.1234 19.0357 72.1503 18.8315 72.2324 18.647C72.9118 19.0355 73.5806 19.4136 74.2459 19.8021C78.7751 22.4298 83.3078 25.0575 87.844 27.6851C88.0861 27.8066 88.2863 27.997 88.4192 28.232C88.5521 28.467 88.6116 28.736 88.5902 29.0048C88.5902 31.6406 88.5902 34.273 88.5902 36.9088C88.5902 37.4724 88.5902 38.036 88.6114 38.5995C88.6114 38.7676 88.6114 38.9181 88.8367 38.9776C90.7798 39.4642 92.7052 39.9682 94.6307 40.4688Z" fill="#4A4551"/>
<path d="M72.0636 74.5946C71.9693 74.4393 71.9366 74.2545 71.9721 74.0765C71.9721 73.3764 71.9545 72.6553 71.951 71.9447C71.951 66.7431 71.9334 61.5379 71.8876 56.3362C71.8603 56.1065 71.9162 55.8747 72.0452 55.6823C72.1742 55.4898 72.3679 55.3494 72.5916 55.2861C77.5478 53.0884 82.6686 51.2778 87.9076 49.8709L88.1504 49.8079C88.5482 49.7169 88.6503 49.7869 88.6749 50.1579C88.6749 50.2839 88.6749 50.4099 88.6749 50.536C88.6749 55.1741 88.6749 59.8157 88.6749 64.4538C88.6943 64.6563 88.6494 64.8597 88.5465 65.0355C88.4436 65.2113 88.2878 65.3506 88.1012 65.4339C82.9149 68.4209 77.7298 71.4138 72.5459 74.4125C72.4115 74.5275 72.2408 74.5919 72.0636 74.5946Z" fill="#F2683C"/>
<path d="M109.538 105.906C109.463 106.161 109.437 106.429 109.464 106.694C109.464 109.851 109.464 113.007 109.464 116.162C109.464 116.351 109.464 116.541 109.464 116.726C109.469 116.79 109.459 116.855 109.436 116.915C109.413 116.976 109.376 117.03 109.33 117.075C109.283 117.12 109.227 117.154 109.166 117.176C109.105 117.197 109.04 117.205 108.975 117.199C108.271 117.199 107.546 117.199 106.831 117.199C106.768 117.203 106.704 117.194 106.644 117.171C106.585 117.148 106.531 117.113 106.486 117.067C106.442 117.021 106.408 116.966 106.388 116.906C106.367 116.846 106.36 116.782 106.367 116.719C106.367 116.572 106.367 116.425 106.367 116.278V101.926C106.367 101.8 106.367 101.674 106.367 101.552C106.398 101.149 106.508 101.013 106.902 101.006C107.701 101.006 108.5 101.006 109.299 101.006C109.697 101.006 109.89 101.254 110.088 101.538L113.988 107.082L117.265 111.734C117.366 111.541 117.397 111.318 117.353 111.104C117.353 108.071 117.353 105.037 117.353 102.003C117.353 101.856 117.353 101.709 117.353 101.566C117.381 101.167 117.501 101.013 117.877 101.002C118.582 101.002 119.268 100.981 119.958 101.002C120.349 101.002 120.468 101.167 120.493 101.552C120.493 101.678 120.493 101.8 120.493 101.926V116.726C120.5 116.789 120.492 116.853 120.471 116.913C120.449 116.973 120.415 117.027 120.369 117.072C120.324 117.117 120.27 117.152 120.209 117.173C120.149 117.194 120.085 117.202 120.021 117.195C119.221 117.209 118.422 117.209 117.624 117.195C117.314 117.195 117.166 116.933 117.012 116.709C116.117 115.418 115.225 114.128 114.333 112.837C112.833 110.669 111.336 108.499 109.841 106.326C109.767 106.211 109.683 106.099 109.538 105.906Z" fill="#4A4551"/>
<path d="M0.503418 109.105V101.958C0.503418 101.814 0.503418 101.667 0.503418 101.52C0.535099 101.17 0.651262 101.012 0.999751 101.002C1.70377 100.981 2.42891 100.977 3.13997 101.002C3.51662 101.002 3.64686 101.177 3.67854 101.559C3.67854 101.702 3.67854 101.849 3.67854 101.996C3.67854 103.438 3.67854 104.88 3.67854 106.323C3.67854 107.212 3.54478 107.135 4.46704 107.138H10.4512C11.0215 107.138 11.025 107.138 11.025 106.547C11.025 105.045 11.025 103.54 11.025 102.035C11.025 101.888 11.025 101.741 11.025 101.597C11.0637 101.128 11.1799 101.005 11.6445 100.995C12.2957 100.995 12.947 100.995 13.5982 100.995C14.0839 100.995 14.2071 101.156 14.2318 101.653C14.2318 101.779 14.2318 101.905 14.2318 102.031V116.148C14.2318 116.292 14.2318 116.439 14.2318 116.586C14.2071 117.055 14.0875 117.195 13.6334 117.206C12.961 117.223 12.2887 117.223 11.6164 117.206C11.1799 117.206 11.0567 117.069 11.025 116.645C11.025 116.481 11.025 116.313 11.025 116.145C11.025 114.308 11.025 112.469 11.025 110.628C11.025 110.107 11.025 110.1 10.5286 110.1H4.17136C3.69614 110.1 3.6891 110.1 3.68558 110.579C3.68558 112.48 3.68558 114.381 3.68558 116.285C3.68558 116.428 3.68558 116.575 3.68558 116.722C3.69031 116.786 3.68117 116.85 3.65878 116.91C3.6364 116.97 3.60129 117.024 3.55586 117.07C3.51042 117.115 3.45573 117.15 3.3955 117.172C3.33527 117.194 3.27093 117.203 3.20685 117.199C2.45003 117.199 1.69321 117.199 0.936389 117.199C0.87807 117.201 0.81985 117.192 0.765588 117.17C0.711326 117.149 0.662264 117.116 0.621654 117.074C0.581044 117.033 0.549815 116.983 0.530037 116.928C0.51026 116.874 0.502386 116.815 0.506938 116.757C0.506938 116.589 0.506938 116.407 0.506938 116.257L0.503418 109.105Z" fill="#4A4551"/>
<path d="M71.0356 114.167C71.2638 114.234 71.5033 114.254 71.7396 114.227H78.8009C79.5542 114.227 79.6493 114.318 79.6563 115.042C79.6563 115.441 79.6563 115.837 79.6563 116.236C79.6563 117.034 79.4944 117.195 78.7059 117.199H67.4733C66.6918 117.199 66.5792 117.016 66.5017 116.239C66.3891 115.168 66.7517 114.353 67.4416 113.527C69.9338 110.537 72.3697 107.485 74.7951 104.453C74.9007 104.327 74.9992 104.191 75.1013 104.058C74.9781 103.862 74.7951 103.946 74.6472 103.946C72.3134 103.946 69.9831 103.946 67.6493 103.946C67.5014 103.946 67.3536 103.946 67.2093 103.946C66.8291 103.921 66.6531 103.788 66.639 103.424C66.6144 102.798 66.6179 102.168 66.639 101.544C66.639 101.173 66.815 101.037 67.1952 101.002C67.3853 100.984 67.5754 101.002 67.7654 101.002H78.5616C78.7094 101.002 78.8573 101.002 79.0051 101.002C79.4627 101.04 79.6282 101.212 79.6422 101.678C79.6563 102.143 79.6422 102.64 79.6422 103.12C79.6286 103.411 79.5025 103.685 79.2902 103.886C76.6854 107.135 74.0817 110.385 71.4791 113.639C71.3243 113.793 71.201 113.957 71.0356 114.167Z" fill="#4A4551"/>
<path d="M61.8412 109.147V116.232C61.8412 116.376 61.8412 116.523 61.8412 116.67C61.813 117.02 61.7039 117.185 61.3554 117.195C60.6197 117.216 59.884 117.195 59.1483 117.195C59.085 117.202 59.0209 117.195 58.9606 117.174C58.9003 117.154 58.8454 117.12 58.7996 117.076C58.7539 117.032 58.7185 116.978 58.6961 116.919C58.6736 116.86 58.6645 116.796 58.6696 116.733C58.6696 116.565 58.6696 116.4 58.6696 116.232V101.94C58.6696 101.776 58.6696 101.59 58.6696 101.439C58.6671 101.382 58.6767 101.324 58.6977 101.27C58.7187 101.216 58.7507 101.167 58.7917 101.126C58.8327 101.085 58.8818 101.053 58.9359 101.031C58.99 101.01 59.0479 101 59.1061 101.002C59.8629 101.002 60.6197 100.984 61.3765 101.002C61.4405 101 61.5041 101.012 61.5631 101.036C61.6221 101.061 61.6751 101.098 61.7185 101.145C61.7619 101.192 61.7947 101.247 61.8146 101.308C61.8346 101.368 61.8412 101.432 61.8341 101.495C61.8341 101.639 61.8341 101.786 61.8341 101.933V109.147H61.8412Z" fill="#4A4551"/>
<path d="M42.009 121.263C41.8046 121.635 41.6406 122.028 41.5197 122.435C41.3789 122.786 41.2522 123.136 41.136 123.486C41.1132 123.588 41.0529 123.678 40.967 123.738C40.8811 123.798 40.7757 123.824 40.6714 123.811C40.4144 123.811 40.3194 123.703 40.2349 123.461C39.992 122.761 39.7209 122.061 39.4288 121.263C39.2752 121.997 39.1706 122.741 39.1155 123.489C39.0521 123.899 39.0169 123.934 38.6192 123.93C38.408 123.93 38.3164 123.881 38.3411 123.643C38.4678 122.505 38.5734 121.368 38.6931 120.234C38.7142 120.041 38.6931 119.817 39.0134 119.796C39.4921 119.772 39.6294 119.796 39.7667 120.146C40.0166 120.808 40.256 121.476 40.4919 122.145C40.5325 122.295 40.6099 122.434 40.7171 122.547C41.0058 121.753 41.2874 120.972 41.576 120.192C41.6139 120.104 41.6693 120.025 41.7389 119.96C41.8084 119.894 41.8907 119.844 41.9807 119.811C42.0707 119.778 42.1664 119.764 42.2621 119.769C42.3577 119.774 42.4513 119.799 42.537 119.842C42.5785 119.872 42.612 119.913 42.6347 119.959C42.6574 120.005 42.6685 120.056 42.6673 120.108C42.787 121.245 42.9137 122.383 43.0193 123.517C43.0404 123.706 43.0686 123.895 42.7799 123.92C42.4279 123.951 42.2801 123.881 42.2449 123.57C42.178 122.856 42.1041 122.117 42.009 121.263Z" fill="#F2693C"/>
<path d="M66.7692 121.21C66.7692 121.984 66.7692 122.733 66.7692 123.482C66.7692 123.909 66.7234 123.93 66.3679 123.944C66.0124 123.958 65.9772 123.811 65.9807 123.527C65.9807 122.775 65.9807 122.026 65.9807 121.273C65.9807 120.983 65.9807 120.688 65.9807 120.398C65.9807 120.209 65.861 119.964 66.125 119.845C66.2812 119.791 66.4498 119.785 66.6096 119.827C66.7694 119.868 66.9132 119.956 67.0226 120.079C67.343 120.517 67.6527 120.962 67.966 121.406C68.1992 121.762 68.4746 122.089 68.7862 122.379V120.66C68.7862 120.496 68.7862 120.328 68.7862 120.16C68.7862 119.81 69.0009 119.81 69.2473 119.81C69.4937 119.81 69.624 119.904 69.624 120.16C69.624 121.245 69.624 122.327 69.624 123.412C69.624 123.59 69.6944 123.842 69.4515 123.891C69.2086 123.94 68.9024 124.014 68.6982 123.748C68.5926 123.618 68.5046 123.475 68.4095 123.338L67.0191 121.329C66.9943 121.287 66.9571 121.253 66.9126 121.231C66.868 121.21 66.818 121.203 66.7692 121.21Z" fill="#F2693D"/>
<path d="M44.9624 121.85C44.9624 121.329 44.9624 120.8 44.9624 120.286C44.9624 119.824 44.9624 119.81 45.4059 119.803C46.11 119.803 46.8316 119.803 47.5462 119.803C47.789 119.803 47.9334 119.855 47.9404 120.153C47.9474 120.45 47.8102 120.552 47.5285 120.545C47.0674 120.545 46.6063 120.545 46.1452 120.545C45.7931 120.545 45.7931 120.723 45.7931 120.979C45.7931 121.234 45.7931 121.434 46.1452 121.409C46.4972 121.385 46.814 121.409 47.1519 121.409C47.4898 121.409 47.4722 121.588 47.4758 121.815C47.4793 122.043 47.43 122.166 47.1625 122.166C46.8281 122.145 46.4901 122.166 46.1557 122.166C45.8811 122.166 45.7685 122.257 45.8037 122.516C45.8125 122.641 45.8125 122.768 45.8037 122.894C45.8037 123.135 45.9023 123.223 46.1557 123.219C46.638 123.219 47.1202 123.219 47.6025 123.219C47.8946 123.219 48.0073 123.3 48.0143 123.608C48.0214 123.916 47.8594 123.989 47.5919 123.986C46.8562 123.986 46.124 123.986 45.3883 123.986C45.0962 123.986 44.98 123.867 44.987 123.573C44.973 122.974 44.9624 122.411 44.9624 121.85Z" fill="#F26B3E"/>
<path d="M58.5322 121.865C58.5322 122.407 58.5322 122.95 58.5322 123.492C58.5322 123.895 58.4724 123.944 58.1134 123.94C57.7543 123.937 57.7226 123.895 57.7121 123.475C57.7121 123.125 57.7121 122.806 57.7121 122.47C57.7121 122.253 57.6663 122.12 57.3988 122.12C56.9799 122.138 56.5575 122.138 56.1386 122.12C55.8394 122.12 55.7866 122.257 55.7866 122.505C55.7866 122.855 55.7866 123.205 55.7866 123.555C55.7866 123.828 55.681 123.923 55.4134 123.926C55.1459 123.93 54.9875 123.863 54.991 123.545C55.0051 122.413 55.0051 121.285 54.991 120.16C54.991 119.81 55.1741 119.81 55.431 119.81C55.688 119.81 55.783 119.932 55.783 120.188C55.783 120.443 55.783 120.773 55.783 121.063C55.783 121.266 55.8394 121.378 56.0647 121.375C56.5082 121.375 56.9482 121.375 57.3882 121.375C57.5994 121.375 57.698 121.305 57.6909 121.088C57.6909 120.773 57.6909 120.457 57.6909 120.146C57.6909 119.834 57.8353 119.796 58.0852 119.796C58.3351 119.796 58.5358 119.817 58.5217 120.163C58.5146 120.734 58.5322 121.301 58.5322 121.865Z" fill="#F26A3D"/>
<path d="M81.1348 119.729C81.5795 119.722 82.0123 119.872 82.3562 120.153C82.5252 120.289 82.5991 120.443 82.4231 120.625C82.2471 120.807 82.1415 120.951 81.9021 120.748C81.7793 120.632 81.6311 120.546 81.4692 120.497C81.3074 120.448 81.1363 120.437 80.9693 120.464C80.7511 120.503 80.561 120.601 80.5328 120.849C80.5047 121.098 80.6736 121.199 80.8567 121.255C81.1876 121.385 81.529 121.49 81.8564 121.626C82.4935 121.889 82.7962 122.295 82.747 122.778C82.7008 123.058 82.5705 123.317 82.3731 123.521C82.1758 123.726 81.9207 123.866 81.6416 123.923C81.3153 124.007 80.9728 124.008 80.6461 123.925C80.3194 123.842 80.0189 123.679 79.7725 123.45C79.6211 123.328 79.4874 123.174 79.6739 122.978C79.8605 122.782 80.0013 122.628 80.2583 122.855C80.4345 123.007 80.6373 123.126 80.8567 123.205C80.953 123.246 81.0565 123.267 81.1612 123.267C81.2658 123.267 81.3694 123.246 81.4656 123.205C81.6909 123.107 81.8881 122.978 81.8845 122.712C81.881 122.446 81.6945 122.362 81.4938 122.271C81.2192 122.166 80.9341 122.092 80.6631 121.984C79.8534 121.661 79.5859 121.245 79.7373 120.583C79.8499 120.065 80.4202 119.726 81.1348 119.729Z" fill="#F2693D"/>
<path d="M50.4572 121.886C50.4512 122.105 50.5004 122.323 50.6004 122.519C50.7004 122.715 50.848 122.883 51.0298 123.008C51.2116 123.132 51.4219 123.21 51.6415 123.234C51.8612 123.257 52.0833 123.226 52.2877 123.142C52.4707 123.051 52.6713 122.848 52.872 123.174C53.0726 123.499 53.0726 123.608 52.7065 123.786C52.418 123.926 52.1018 123.999 51.7812 124C51.4605 124.001 51.1437 123.931 50.8541 123.794C50.5645 123.657 50.3095 123.457 50.1079 123.209C49.9064 122.961 49.7635 122.671 49.6897 122.361C49.616 122.051 49.6133 121.728 49.6818 121.417C49.7504 121.105 49.8884 120.813 50.0858 120.562C50.2831 120.31 50.5348 120.106 50.822 119.965C51.1093 119.823 51.4249 119.747 51.7456 119.743C52.0614 119.728 52.3764 119.788 52.6643 119.918C52.8685 120.013 53.1149 120.094 52.9424 120.419C52.7699 120.745 52.7065 120.769 52.3686 120.626C52.1604 120.524 51.929 120.478 51.6974 120.492C51.4658 120.507 51.2422 120.582 51.0487 120.709C50.8553 120.837 50.6989 121.013 50.5951 121.219C50.4913 121.425 50.4438 121.655 50.4572 121.886Z" fill="#F2693D"/>
<path d="M76.5377 119.747C76.8907 119.727 77.2416 119.814 77.5444 119.995C77.7275 120.09 77.7873 120.226 77.6711 120.401C77.555 120.576 77.5233 120.839 77.2206 120.692C77.0055 120.57 76.7639 120.502 76.5165 120.492C76.2627 120.486 76.0128 120.556 75.8003 120.695C75.5877 120.833 75.4225 121.032 75.3267 121.266C75.2022 121.522 75.1587 121.809 75.2021 122.09C75.2454 122.37 75.3736 122.631 75.5696 122.838C75.7367 123.028 75.9595 123.162 76.207 123.221C76.4545 123.279 76.7141 123.259 76.9495 123.163C77.0299 123.138 77.1076 123.105 77.1818 123.065C77.5022 122.862 77.5761 123.142 77.6958 123.321C77.8155 123.499 77.6958 123.653 77.5198 123.758C77.2432 123.898 76.9399 123.977 76.6301 123.991C76.3203 124.005 76.0111 123.953 75.7232 123.838C75.4353 123.723 75.1753 123.549 74.9607 123.326C74.746 123.104 74.5816 122.838 74.4784 122.547C74.3697 122.225 74.3403 121.882 74.3927 121.546C74.445 121.21 74.5777 120.892 74.7794 120.617C74.9811 120.343 75.2461 120.121 75.552 119.969C75.8579 119.818 76.196 119.742 76.5377 119.747Z" fill="#F2693D"/>
<path d="M72.4473 121.942C72.4473 122.484 72.4473 123.027 72.4473 123.573C72.4473 123.836 72.3628 123.948 72.0953 123.944C71.8278 123.941 71.6623 123.895 71.6658 123.57C71.6658 122.439 71.6658 121.312 71.6658 120.181C71.6658 119.852 71.8383 119.831 72.1023 119.831C72.3663 119.831 72.4543 119.94 72.4543 120.202C72.4402 120.769 72.4473 121.357 72.4473 121.942Z" fill="#F2693C"/>
<path d="M27.7314 100.747C26.0746 100.745 24.4545 101.232 23.0754 102.145C21.6964 103.058 20.6201 104.357 19.9824 105.878C19.3447 107.398 19.1741 109.073 19.4922 110.689C19.8102 112.306 20.6027 113.793 21.7696 114.963C22.9364 116.133 24.4255 116.932 26.0489 117.262C27.6723 117.591 29.3574 117.434 30.8916 116.812C32.4258 116.19 33.7404 115.13 34.6695 113.766C35.5987 112.402 36.1009 110.795 36.1127 109.148C36.1202 108.048 35.9089 106.958 35.4912 105.939C35.0734 104.921 34.4574 103.995 33.6785 103.214C32.8997 102.434 31.9733 101.814 30.9527 101.39C29.932 100.967 28.8373 100.748 27.7314 100.747ZM27.7701 114.36C27.073 114.365 26.3817 114.234 25.7355 113.974C25.0893 113.714 24.5011 113.33 24.0042 112.843C23.5074 112.357 23.1117 111.778 22.8398 111.14C22.5679 110.502 22.4251 109.816 22.4196 109.123C22.414 108.43 22.5458 107.742 22.8075 107.1C23.0691 106.457 23.4555 105.872 23.9445 105.378C24.932 104.38 26.2778 103.814 27.6856 103.802C30.4383 103.722 32.9059 106.032 32.92 109.004C32.9401 109.693 32.8224 110.38 32.5737 111.023C32.325 111.667 31.9503 112.255 31.4712 112.754C30.9922 113.252 30.4183 113.651 29.783 113.928C29.1476 114.204 28.4635 114.352 27.7701 114.363V114.36Z" fill="#4A4551"/>
<path d="M92.8955 100.747C90.6707 100.747 88.5371 101.625 86.964 103.19C85.3909 104.754 84.5071 106.876 84.5071 109.088C84.5071 111.3 85.3909 113.422 86.964 114.987C88.5371 116.551 90.6707 117.43 92.8955 117.43C93.997 117.43 95.0878 117.214 96.1056 116.795C97.1233 116.376 98.048 115.761 98.8269 114.987C99.6059 114.212 100.224 113.292 100.645 112.28C101.067 111.268 101.284 110.184 101.284 109.088C101.284 107.993 101.067 106.908 100.645 105.896C100.224 104.884 99.6059 103.964 98.8269 103.19C98.048 102.415 97.1233 101.801 96.1056 101.382C95.0878 100.962 93.997 100.747 92.8955 100.747ZM92.7195 114.367C91.6659 114.361 90.6379 114.043 89.766 113.455C88.894 112.867 88.2174 112.035 87.8218 111.063C87.4263 110.092 87.3296 109.026 87.5442 108.001C87.7588 106.975 88.2749 106.036 89.027 105.302C89.7791 104.568 90.7335 104.073 91.7689 103.88C92.8044 103.686 93.8743 103.803 94.8431 104.215C95.8118 104.627 96.6356 105.315 97.2101 106.194C97.7847 107.072 98.0839 108.1 98.07 109.148C98.0692 109.841 97.9295 110.528 97.659 111.168C97.3886 111.807 96.9928 112.387 96.4947 112.872C95.9967 113.358 95.4064 113.741 94.7582 113.997C94.11 114.254 93.417 114.379 92.7195 114.367Z" fill="#4A4551"/>
<path d="M53.7976 116.649C53.7277 116.452 53.6429 116.26 53.5442 116.075C52.7487 114.51 51.9461 112.953 51.1541 111.388C50.8267 110.737 50.802 110.884 51.3582 110.527C51.4462 110.471 51.5307 110.408 51.6152 110.348C52.4278 109.745 53.0438 108.917 53.3862 107.968C53.7286 107.018 53.7823 105.99 53.5407 105.01C53.2739 103.872 52.6292 102.857 51.7107 102.129C50.7922 101.4 49.6536 101.001 48.4788 100.995C46.2928 100.974 44.1068 100.995 41.9244 100.995H41.6709C41.6075 100.991 41.5438 101 41.4839 101.021C41.424 101.042 41.3692 101.076 41.3229 101.119C41.2766 101.162 41.2398 101.215 41.2149 101.273C41.19 101.331 41.1775 101.394 41.1781 101.457C41.1675 101.624 41.1675 101.791 41.1781 101.958V116.124C41.1781 116.271 41.1781 116.415 41.1781 116.562C41.1992 117.059 41.3224 117.192 41.8188 117.202C42.47 117.202 43.1247 117.202 43.7759 117.202C44.2687 117.202 44.3814 117.062 44.399 116.551C44.399 116.362 44.399 116.173 44.399 115.988C44.399 114.65 44.399 113.313 44.399 111.976C44.399 111.563 44.399 111.563 44.8214 111.563C45.5993 111.563 46.3773 111.588 47.1517 111.563C47.3334 111.534 47.5197 111.569 47.6779 111.662C47.8362 111.756 47.9565 111.901 48.0176 112.074C48.7745 113.635 49.5806 115.172 50.355 116.719C50.4852 116.978 50.6155 117.209 50.9358 117.209C51.7771 117.209 52.6184 117.227 53.4597 117.209C53.8223 117.199 53.9208 117.006 53.7976 116.649ZM48.1937 108.731C47.0426 108.798 45.8915 108.731 44.7369 108.77C44.4483 108.77 44.3849 108.647 44.3849 108.392C44.3849 107.664 44.3849 106.932 44.3849 106.204C44.3849 105.476 44.3849 104.744 44.3849 104.013C44.3849 103.775 44.4694 103.687 44.7158 103.691C45.7718 103.691 46.856 103.691 47.9226 103.722C48.334 103.724 48.7387 103.826 49.1005 104.021C49.4623 104.216 49.7699 104.497 49.9959 104.839C51.1048 106.435 50.0487 108.619 48.1937 108.731Z" fill="#4A4551"/>
<path d="M64.0765 123.562C63.6259 122.442 63.1683 121.325 62.7283 120.202C62.6333 119.964 62.5277 119.824 62.2425 119.81C61.9574 119.796 61.8131 119.999 61.718 120.233C61.2886 121.283 60.8591 122.358 60.4402 123.422C60.3874 123.562 60.2255 123.737 60.3839 123.877C60.5423 124.017 60.7359 123.951 60.926 123.916C61.1161 123.881 61.1443 123.678 61.1971 123.527C61.2201 123.405 61.2909 123.297 61.3938 123.227C61.4967 123.157 61.6235 123.13 61.7462 123.153C62.0814 123.174 62.4177 123.174 62.7529 123.153C62.856 123.14 62.9603 123.163 63.0478 123.219C63.1353 123.274 63.2004 123.359 63.2317 123.457C63.4746 123.996 63.4886 123.993 64.1293 123.856C64.1466 123.755 64.128 123.651 64.0765 123.562ZM61.6934 122.393C61.7497 121.879 62.0172 121.441 62.1968 120.846C62.4406 121.323 62.6375 121.822 62.7846 122.337C62.3693 122.502 62.3059 122.505 61.6934 122.393Z" fill="#F2693C"/>
</g>
<defs>
<clipPath id="clip0_282_2863">
<rect width="120" height="124" fill="white" transform="translate(0.5)"/>
</clipPath>
</defs>
</svg>
