<svg width="100" height="109" viewBox="0 0 100 109" fill="none" xmlns="http://www.w3.org/2000/svg">
<g id="Logo Monochrome" clip-path="url(#clip0_498_3387)">
<path id="Vector" d="M77.9968 33.8285C78.0023 32.9016 78.0134 31.9775 78.0134 31.0506C78.0189 28.9872 78.0023 26.9265 78.0244 24.8631C78.03 24.4686 77.9249 24.2397 77.5599 24.0355C71.9187 20.8052 66.2887 17.5611 60.6586 14.3198C57.7496 12.6453 54.8405 10.9764 51.9425 9.29091C51.5996 9.08677 51.3369 9.0785 50.9885 9.27987C42.4439 14.1902 33.8965 19.0866 25.3408 23.9749C24.9536 24.1928 24.8236 24.4493 24.8236 24.8852C24.8347 34.703 24.8347 44.5263 24.8236 54.3441C24.8236 54.7717 24.9591 54.9952 25.3242 55.2076C33.8107 60.1068 42.2973 65.0143 50.7728 69.9412C51.2374 70.2115 51.5913 70.2225 52.067 69.9467C58.546 66.1757 65.036 62.4268 71.5206 58.6724C73.4535 57.5551 75.3947 56.4296 77.3276 55.3124C77.4161 55.26 77.5046 55.1938 77.5986 55.1552C77.9525 55.0089 78.0631 54.7607 78.0576 54.3745C78.0327 52.2586 78.0327 50.1456 78.0272 48.0297C78.0217 45.9139 78.0217 43.8008 78.0217 41.685C78.0217 41.2583 78.2374 40.9999 78.6687 40.9098C80.8892 40.4409 83.1097 39.9747 85.3358 39.5057C85.9884 39.3705 86.0022 39.3816 86.0022 40.0629C86.0022 46.3553 85.9967 52.6421 86.0133 58.9344C86.0133 59.3758 85.8667 59.6213 85.4879 59.8337C80.4109 62.7468 75.3421 65.6792 70.2706 68.5977C64.9586 71.6598 59.641 74.7135 54.3234 77.77C53.5353 78.2225 52.7334 78.65 51.9564 79.1162C51.5803 79.3452 51.2733 79.3397 50.8917 79.1217C47.6591 77.2432 44.4183 75.3839 41.1746 73.5163C36.3631 70.7439 31.546 67.9688 26.7344 65.1909C23.6014 63.3868 20.4684 61.5771 17.3298 59.7813C17.0007 59.5937 16.8652 59.3758 16.8708 58.9896C16.8874 56.1593 16.8874 53.3262 16.8874 50.4987C16.8874 40.7333 16.8818 30.9596 16.8818 21.1942C16.8818 21.0701 16.8929 20.9487 16.8818 20.8246C16.8182 20.0549 17.0892 19.5666 17.8248 19.1666C20.9938 17.4205 24.1157 15.5998 27.2543 13.8012C33.5867 10.1599 39.9164 6.52129 46.2461 2.87444C47.8057 1.97514 49.3681 1.08136 50.9111 0.159989C51.265 -0.052422 51.5305 -0.0634564 51.9066 0.148955C59.7323 4.65648 67.5662 9.15574 75.3974 13.655C78.6715 15.5336 81.9456 17.4094 85.2196 19.2935C85.3717 19.3818 85.5155 19.4756 85.6731 19.5584C85.9027 19.677 85.9967 19.8646 85.9967 20.1101V35.263C85.9967 35.4699 86.0077 35.6851 86.0133 35.8919C85.8252 36.085 85.6178 35.9637 85.4243 35.9168C83.1927 35.3761 80.9722 34.8189 78.7572 34.2175C78.4807 34.1458 78.1323 34.1651 77.9968 33.823V33.8285Z" fill="white"/>
<path id="Vector_2" d="M77.9966 33.8285C79.0336 34.1926 80.112 34.4271 81.1711 34.7085C82.7777 35.1306 84.3816 35.5499 86.0048 35.8947C87.9654 36.5292 89.9259 37.1636 91.8837 37.8036C92.1132 37.8754 92.3593 37.9167 92.4976 38.1898C90.3545 38.165 88.2391 38.2588 86.1265 38.3498C83.9585 38.4436 81.7933 38.5898 79.6309 38.7719C76.5144 39.0312 73.4007 39.3705 70.3037 39.8174C64.3556 40.6864 58.4767 41.8863 52.6945 43.5663C47.4543 45.0891 42.3469 46.9787 37.3999 49.2821C37.1703 49.3924 36.9159 49.4642 36.6975 49.6766C36.9021 49.8118 37.0929 49.7593 37.2699 49.7649C39.0065 49.7704 40.7375 49.7649 42.4713 49.7649C43.0825 49.7649 43.1129 49.8007 43.1184 50.4242C43.1295 54.6531 43.1433 58.8792 43.1544 63.1081C43.1544 63.8143 43.1433 63.8199 42.5128 63.4557C38.1492 60.9426 33.7912 58.4323 29.4221 55.9303C29.0792 55.7317 28.9326 55.5248 28.9326 55.1138C28.9437 52.0186 28.9326 48.9318 28.9105 45.8366C28.905 45.4559 29.0294 45.2491 29.364 45.0615C32.4141 43.3567 35.6467 42.107 38.965 41.056C43.536 39.616 48.165 38.4188 52.8742 37.5305C55.7612 36.9843 58.6647 36.554 61.5848 36.2257C64.0044 35.9554 66.4268 35.7678 68.8574 35.6271C70.1129 35.5554 71.3766 35.5388 72.6375 35.4975C72.7952 35.4919 72.95 35.4975 73.1076 35.4202C72.6956 35.3981 72.2781 35.3844 71.866 35.3623C68.3486 35.2023 64.8284 35.2106 61.311 35.2988C59.1431 35.3568 56.9779 35.4919 54.8155 35.6795C51.9589 35.9278 49.119 36.2671 46.2874 36.725C41.9874 37.4229 37.7483 38.3774 33.5893 39.6574C32.2039 40.085 30.8324 40.5457 29.4663 41.0395C29.353 41.0808 29.2368 41.1222 29.1179 41.1526C28.988 41.1884 28.9133 41.1222 28.905 40.9953C28.8884 40.8381 28.8884 40.6836 28.8829 40.5208C28.8607 37.8478 28.8414 35.1747 28.8193 32.5016C28.7971 29.8644 28.7833 27.2245 28.7418 24.5872C28.7363 24.11 28.8884 23.8176 29.306 23.5721C33.6336 20.9983 37.9501 18.408 42.2695 15.8232C42.358 15.7708 42.4465 15.7101 42.5405 15.666C42.8225 15.5363 43.0714 15.6494 43.1239 15.9584C43.1488 16.1101 43.1405 16.2701 43.1405 16.4274C43.1461 18.5597 43.1516 20.6921 43.1627 22.8245C43.1792 25.95 43.2041 29.081 43.2263 32.2065V32.6534C44.0199 32.5816 44.7637 32.5292 45.5048 32.4354C49.2103 31.9665 52.9323 31.8065 56.6599 31.8009C57.3788 31.8009 58.0923 31.7761 58.814 31.7651C59.3256 31.7541 59.3256 31.7596 59.3256 31.2354C59.3201 28.0217 59.3145 24.8024 59.3007 21.5887C59.2896 19.7901 59.2647 17.9887 59.2482 16.1901C59.2482 16.0025 59.2122 15.8094 59.273 15.6274C59.4196 15.5639 59.5081 15.6743 59.6076 15.7377C63.8661 18.2122 68.1246 20.6976 72.3887 23.1693C72.8256 23.4231 72.9666 23.779 72.9666 24.2507C72.9611 26.4189 72.9666 28.5817 72.9721 30.7499C72.9721 31.2547 72.9777 31.7651 72.9777 32.2672C72.9777 32.4189 72.9942 32.5209 73.1823 32.5678C74.7944 32.9789 76.3789 33.4561 77.9994 33.8202L77.9966 33.8285Z" fill="white"/>
<path id="Vector_3" d="M73.0028 48.0297C73.0028 50.0049 72.9917 51.9773 73.0138 53.9524C73.0194 54.311 72.9032 54.5096 72.5852 54.6862C68.2382 57.1827 63.9051 59.6985 59.5692 62.2061C59.5056 62.2419 59.4503 62.2833 59.3867 62.3109C59.2263 62.3882 59.1157 62.3688 59.1157 62.1537C59.1157 62.0488 59.1157 61.9468 59.1101 61.8419C59.1046 61.1082 59.0935 60.3744 59.1046 59.6434C59.1461 55.4724 59.0106 51.2959 59.0216 47.1249C59.0216 46.6615 59.135 46.4242 59.5858 46.2256C63.7724 44.3746 68.0668 42.8298 72.4995 41.6601C72.9696 41.536 73.0111 41.5608 73.0111 42.0546C73.0055 44.0463 73.0055 46.038 73.0055 48.0297H73.0028Z" fill="white"/>
<path id="Vector_4" d="M18.768 105.13L16.8406 102.286H15.4331V108.879H16.73V104.308L18.768 107.292L20.806 104.302V108.879H22.0891V102.286H20.6926L18.768 105.13Z" fill="white"/>
<path id="Vector_5" d="M26.6877 106.109H29.1792V104.959H26.6877V103.461H29.5746V102.286H25.3936V108.879H29.6106V107.698H26.6877V106.109Z" fill="white"/>
<path id="Vector_6" d="M36.9357 107.243C36.7642 107.425 36.5651 107.566 36.3411 107.67C36.1172 107.775 35.871 107.828 35.6 107.828C35.2101 107.828 34.8645 107.734 34.5631 107.541C34.2617 107.348 34.0266 107.083 33.8552 106.749C33.6837 106.415 33.6008 106.026 33.6008 105.585C33.6008 105.144 33.6837 104.757 33.8496 104.426C34.0156 104.092 34.2506 103.833 34.5493 103.64C34.8479 103.447 35.1908 103.353 35.5696 103.353C35.8351 103.353 36.0812 103.4 36.3052 103.499C36.5292 103.599 36.7338 103.734 36.9108 103.905C37.0878 104.076 37.2288 104.28 37.3394 104.515L38.5395 104.073C38.3819 103.704 38.1579 103.375 37.8676 103.091C37.5744 102.804 37.2315 102.581 36.8472 102.421C36.4573 102.261 36.0342 102.181 35.5807 102.181C34.9392 102.181 34.3723 102.327 33.8773 102.617C33.3823 102.906 32.9952 103.309 32.7104 103.822C32.4283 104.332 32.2817 104.926 32.2817 105.59C32.2817 106.255 32.4228 106.843 32.7104 107.359C32.9924 107.869 33.3823 108.274 33.8828 108.564C34.3778 108.857 34.9502 109 35.5918 109C36.0508 109 36.4766 108.917 36.8638 108.754C37.2537 108.594 37.5938 108.366 37.8842 108.068C38.1745 107.77 38.4013 107.433 38.5561 107.05L37.356 106.619C37.2509 106.848 37.1099 107.061 36.9384 107.243H36.9357Z" fill="white"/>
<path id="Vector_7" d="M45.6987 104.912H42.6376V102.275H41.3462V108.879H42.6376V106.098H45.6987V108.879H46.9901V102.286H45.6987V104.912Z" fill="white"/>
<path id="Vector_8" d="M53.5077 102.286H52.2136L49.606 108.879H50.9775L51.5361 107.428H54.2737L54.8323 108.879H56.2039L53.5962 102.286H53.5077ZM51.9703 106.291L52.9021 103.864L53.834 106.291H51.9675H51.9703Z" fill="white"/>
<path id="Vector_9" d="M63.3853 106.71L60.1527 102.286H58.8032V108.879H60.1029V104.366L63.3853 108.879H64.6683V102.286H63.3853V106.71Z" fill="white"/>
<path id="Vector_10" d="M69.2614 102.286H67.9673V108.879H69.2614V102.286Z" fill="white"/>
<path id="Vector_11" d="M76.8605 107.243C76.689 107.425 76.4899 107.566 76.2659 107.67C76.042 107.775 75.7958 107.828 75.5249 107.828C75.135 107.828 74.7893 107.734 74.4879 107.541C74.1865 107.348 73.9514 107.083 73.78 106.749C73.6085 106.415 73.5256 106.026 73.5256 105.585C73.5256 105.144 73.6085 104.757 73.7744 104.426C73.9404 104.095 74.1754 103.833 74.4741 103.64C74.7727 103.447 75.1156 103.353 75.4944 103.353C75.7599 103.353 76.006 103.4 76.23 103.499C76.454 103.599 76.6586 103.734 76.8356 103.905C77.0126 104.076 77.1536 104.28 77.2642 104.515L78.4643 104.073C78.3067 103.704 78.0827 103.375 77.7924 103.091C77.4992 102.804 77.1564 102.581 76.772 102.421C76.3821 102.261 75.959 102.181 75.5055 102.181C74.864 102.181 74.2971 102.327 73.8021 102.617C73.3071 102.909 72.92 103.309 72.6352 103.822C72.3531 104.332 72.2065 104.926 72.2065 105.59C72.2065 106.255 72.3476 106.843 72.6352 107.359C72.9172 107.869 73.3071 108.274 73.8076 108.564C74.3026 108.857 74.875 109 75.5166 109C75.9756 109 76.4014 108.917 76.7886 108.754C77.1785 108.594 77.5186 108.366 77.809 108.068C78.0993 107.77 78.3261 107.433 78.4809 107.05L77.2808 106.619C77.1757 106.848 77.0347 107.061 76.8632 107.243H76.8605Z" fill="white"/>
<path id="Vector_12" d="M85.441 105.847C85.1285 105.488 84.6861 105.237 84.1164 105.102L83.2454 104.884C82.9993 104.821 82.8084 104.732 82.6674 104.614C82.5264 104.495 82.4545 104.332 82.4545 104.126C82.4545 103.861 82.543 103.657 82.7255 103.513C82.9025 103.367 83.1541 103.295 83.4666 103.295C83.779 103.295 84.0307 103.372 84.2325 103.519C84.4372 103.67 84.5727 103.852 84.6501 104.065L85.9055 103.679C85.7922 103.372 85.629 103.102 85.4161 102.879C85.2032 102.655 84.9377 102.479 84.6197 102.357C84.3017 102.236 83.9311 102.175 83.5081 102.175C82.7531 102.175 82.1697 102.346 81.7576 102.697C81.3456 103.047 81.1382 103.53 81.1382 104.153C81.1382 104.481 81.2074 104.766 81.3456 105.011C81.4811 105.257 81.6747 105.463 81.918 105.629C82.1614 105.795 82.4434 105.921 82.767 106.004L83.627 106.228C83.9201 106.299 84.1441 106.41 84.31 106.55C84.4759 106.691 84.5589 106.868 84.5589 107.075C84.5589 107.315 84.4538 107.505 84.2409 107.657C84.0335 107.808 83.7569 107.88 83.4223 107.874C83.1099 107.869 82.8499 107.786 82.6398 107.634C82.4296 107.483 82.2858 107.295 82.2084 107.083L80.9419 107.458C80.9834 107.662 81.0829 107.847 81.2295 108.029C81.376 108.211 81.5641 108.377 81.7936 108.523C82.0176 108.669 82.2775 108.782 82.5651 108.865C82.8582 108.948 83.1652 108.989 83.497 108.989C84.0086 108.989 84.4399 108.906 84.7994 108.743C85.1589 108.581 85.4299 108.354 85.6235 108.062C85.817 107.77 85.9055 107.428 85.9055 107.044C85.9111 106.597 85.7534 106.197 85.441 105.844V105.847Z" fill="white"/>
<path id="Vector_13" d="M90.7918 88.5671V97.5629C90.7807 97.8167 90.6397 97.9491 90.3964 97.9518C89.8018 97.9574 89.2073 97.9574 88.6073 97.9518C88.3833 97.9463 88.2478 97.8222 88.2257 97.5987C88.2091 97.4581 88.2035 97.3174 88.2035 97.1822V85.1796C88.2035 85.0748 88.198 84.9727 88.2091 84.8679C88.245 84.5258 88.3224 84.432 88.6681 84.4265C89.3345 84.4099 89.9982 84.4265 90.6646 84.421C90.9716 84.4155 91.1347 84.603 91.2896 84.8265C92.639 86.7603 93.9995 88.6913 95.3517 90.6195C95.9573 91.4774 96.5546 92.3354 97.1602 93.1933C97.1961 93.2512 97.2487 93.2981 97.2957 93.3505C97.4533 93.2374 97.3787 93.0857 97.3787 92.956C97.3842 90.3878 97.3842 87.8168 97.3842 85.2486C97.3842 85.1244 97.3787 85.003 97.3842 84.8789C97.4063 84.5368 97.4837 84.432 97.8156 84.421C98.3742 84.4044 98.9355 84.4044 99.4941 84.421C99.8536 84.432 99.9586 84.5451 99.9891 84.8955C100 85.0141 99.9946 85.141 99.9946 85.2651V97.1105C99.9946 97.2153 100 97.3174 99.9946 97.4222C99.9725 97.8498 99.884 97.9463 99.4637 97.9574C98.9217 97.9684 98.3797 97.9408 97.8377 97.9684C97.4976 97.985 97.2846 97.8498 97.0966 97.5794C96.1536 96.1919 95.1941 94.8181 94.2456 93.436C93.1257 91.8085 92.0085 90.1809 90.8886 88.5589C90.8582 88.5589 90.825 88.5644 90.7891 88.5699L90.7918 88.5671Z" fill="white"/>
<path id="Vector_14" d="M11.4536 91.2292V97.1463C11.4536 97.2705 11.4591 97.3919 11.4481 97.5105C11.426 97.8222 11.3375 97.9408 11.0471 97.9463C10.436 97.9629 9.82211 97.9629 9.20823 97.9463C8.90128 97.9353 8.80726 97.8222 8.80726 97.4581C8.7962 96.7408 8.80173 96.0291 8.80173 95.3091V92.4292C8.80173 92.0181 8.7962 92.0126 8.4146 92.0126C6.62547 92.0071 4.84465 92.0071 3.05553 92.0126C2.68498 92.0126 2.67945 92.0237 2.67945 92.3878C2.67392 93.9574 2.67945 95.5298 2.67945 97.105C2.67945 97.2457 2.68498 97.3863 2.67392 97.527C2.65733 97.7974 2.5163 97.9546 2.24531 97.9574C1.63142 97.9684 1.0203 97.9629 0.406411 97.9574C0.152007 97.9574 0.0248051 97.8057 0.0054483 97.5629C-0.00561273 97.4443 -8.22151e-05 97.3174 -8.22151e-05 97.1988V85.2017C-8.22151e-05 85.083 -0.00561273 84.9562 0.0054483 84.8375C0.0358661 84.5838 0.165833 84.4155 0.447889 84.4155C1.02583 84.4155 1.60653 84.4044 2.17894 84.4265C2.52183 84.4375 2.63797 84.5672 2.66839 84.9093C2.67945 85.0279 2.67392 85.1548 2.67392 85.2734V89.0968C2.67392 89.5382 2.67945 89.5437 3.08594 89.5437C4.85294 89.5492 6.61994 89.5492 8.38694 89.5437C8.78238 89.5437 8.78791 89.5326 8.79344 89.1327C8.79897 87.8416 8.79344 86.5479 8.79344 85.2596C8.79344 85.1189 8.78791 84.9782 8.79897 84.8375C8.82938 84.5313 8.91234 84.4265 9.22205 84.4155C9.79999 84.3989 10.3807 84.3934 10.9531 84.41C11.3347 84.421 11.437 84.5396 11.437 84.9341C11.4426 85.861 11.4426 86.7851 11.4426 87.712C11.4536 88.8871 11.4536 90.0568 11.4536 91.2264V91.2292Z" fill="white"/>
<path id="Vector_15" d="M58.7896 95.4222C59.0302 95.516 59.2071 95.4802 59.373 95.4802C61.3336 95.4857 63.2997 95.4802 65.2575 95.4857C65.852 95.4857 65.9599 95.5988 65.9654 96.1836C65.9709 96.4788 65.9654 96.7767 65.9654 97.0719C65.9654 97.8305 65.8299 97.9657 65.0944 97.9657H55.7948C55.1533 97.9657 55.0869 97.836 55.0178 97.2015C54.9182 96.2719 55.2307 95.5629 55.8363 94.8402C57.9047 92.3547 59.9012 89.8113 61.9309 87.2899C62.0139 87.1851 62.1355 87.0968 62.166 86.8844H55.8778C55.1892 86.8844 55.1063 86.8017 55.1007 86.0982C55.0952 85.712 55.0841 85.3286 55.1118 84.9424C55.1367 84.5314 55.2639 84.432 55.6759 84.4127C55.781 84.4072 55.8833 84.4127 55.9884 84.4127H64.9229C65.0639 84.4127 65.205 84.4072 65.346 84.4182C65.7884 84.4431 65.9295 84.5838 65.9571 85.0279C65.9627 85.0803 65.9571 85.1327 65.9571 85.1851C65.9682 86.0145 65.7147 86.7529 65.1967 87.4003C63.178 89.9271 61.1622 92.4512 59.138 94.9781C59.0274 95.1133 58.9251 95.2485 58.7896 95.425V95.4222Z" fill="white"/>
<path id="Vector_16" d="M51.1353 91.1713V97.0885C51.1353 97.2291 51.1463 97.3698 51.1297 97.5105C51.0993 97.8278 50.9943 97.9464 50.6652 97.9519C50.0872 97.9684 49.5065 97.9684 48.9341 97.9519C48.5995 97.9464 48.5028 97.8388 48.464 97.516C48.453 97.3974 48.4585 97.2705 48.4585 97.1519V85.2072C48.4585 85.119 48.453 85.0307 48.4585 84.9479C48.4834 84.5314 48.5829 84.4238 48.995 84.4128C49.501 84.4017 50.0126 84.4072 50.5159 84.4183C51.0219 84.4293 51.127 84.5314 51.127 85.0472C51.1325 87.0913 51.127 89.1299 51.1325 91.1741L51.1353 91.1713Z" fill="white"/>
<path id="Vector_17" d="M22.6836 84.2086C18.4196 84.2555 15.6626 87.8086 15.7041 91.2816C15.74 94.5947 18.4002 98.1671 22.7112 98.156C26.6794 98.145 29.6963 95.0305 29.6907 91.2044C29.6797 87.1162 26.3973 84.2197 22.6836 84.2086ZM22.6836 95.5878C20.1617 95.5823 18.3615 93.4719 18.3477 91.1989C18.3311 88.901 20.1866 86.752 22.6891 86.752C25.1917 86.752 27.0886 88.8734 27.0112 91.1465C27.0997 93.5602 25.0921 95.5933 22.6836 95.5878Z" fill="white"/>
<path id="Vector_18" d="M77.0069 84.2086C73.1493 84.1838 69.9804 87.3396 69.9942 91.1933C70.0108 95.0415 73.0443 98.1505 76.9682 98.1505C81.1962 98.1449 84.0223 94.7243 83.9753 91.1768C83.9919 87.4692 80.9944 84.2334 77.0069 84.2086ZM76.9073 95.5933C74.8638 95.5574 72.6433 93.985 72.6433 91.1823C72.6433 88.3796 74.8859 86.6941 77.0013 86.7658C79.291 86.7244 81.3428 88.6637 81.3234 91.2237C81.3013 93.7616 79.2163 95.6346 76.9073 95.5933Z" fill="white"/>
<path id="Vector_19" d="M44.2688 97.1436C43.7462 96.1146 43.2263 95.0885 42.7037 94.065C42.4991 93.6595 42.3027 93.254 42.0898 92.854C42.0068 92.6968 42.0179 92.6057 42.1783 92.5147C42.3193 92.443 42.4493 92.3547 42.5682 92.2554C43.9232 91.1795 44.5232 89.7947 44.2633 88.0679C43.9453 85.9713 42.0373 84.3796 39.8693 84.4072C38.1687 84.4293 36.4763 84.4127 34.7757 84.4127C34.5987 84.4127 34.4273 84.4127 34.2503 84.4238C34.0457 84.4403 33.9323 84.5589 33.9157 84.7631C33.9046 84.9038 33.9102 85.0444 33.9102 85.1851V94.1395C33.9102 95.2209 33.9046 96.3022 33.9102 97.3836C33.9102 97.8774 33.9931 97.9491 34.4936 97.9601C34.9693 97.9657 35.4366 97.9657 35.9122 97.9601C36.5123 97.9546 36.5648 97.9022 36.5648 97.2953V93.6292C36.5648 93.2485 36.5759 93.2485 36.9409 93.2485C37.6073 93.2485 38.271 93.265 38.9374 93.2374C39.2665 93.2264 39.4379 93.3312 39.579 93.6264C40.226 94.9422 40.9035 96.2415 41.5506 97.5574C41.6971 97.8526 41.8852 97.9739 42.2032 97.9684C42.7286 97.9574 43.2567 97.9436 43.7766 97.9684C44.5896 98.0043 44.573 97.7284 44.2716 97.1408L44.2688 97.1436ZM39.7808 90.8706C38.8047 90.9699 37.8258 90.8871 36.8469 90.912C36.6008 90.9175 36.5593 90.7878 36.5648 90.5837C36.5704 89.974 36.5704 89.3616 36.5648 88.752C36.5648 88.1589 36.5704 87.5658 36.5593 86.9727C36.5538 86.7492 36.6229 86.661 36.8552 86.6665C37.7456 86.683 38.6388 86.6499 39.5292 86.6968C40.5551 86.7548 41.2326 87.301 41.5202 88.2003C41.9156 89.4582 41.0971 90.7382 39.7781 90.8678L39.7808 90.8706Z" fill="white"/>
</g>
<defs>
<clipPath id="clip0_498_3387">
<rect width="100" height="109" fill="white"/>
</clipPath>
</defs>
</svg>
