<svg width="212" height="220" viewBox="0 0 212 220" fill="none" xmlns="http://www.w3.org/2000/svg">
<g clip-path="url(#clip0_282_2870)">
<path d="M166.298 71.7994C166.298 69.5015 166.329 67.2036 166.329 64.9057C166.329 60.7882 166.329 56.6706 166.329 52.5531C166.36 52.247 166.294 51.939 166.14 51.6726C165.986 51.4062 165.752 51.1949 165.471 51.0688C151.458 43.02 137.457 34.9588 123.469 26.8852C119.296 24.4817 115.111 22.0907 110.956 19.6562C110.691 19.4656 110.372 19.3631 110.045 19.3631C109.718 19.3631 109.4 19.4656 109.134 19.6562C96.8956 26.6947 84.6507 33.7208 72.3996 40.7345C66.5166 44.1068 60.646 47.504 54.7444 50.8514C54.3445 51.0272 54.0096 51.3235 53.7866 51.6988C53.5635 52.074 53.4636 52.5095 53.5006 52.9443C53.5338 73.6087 53.5338 94.2689 53.5006 114.925C53.5006 116.751 53.2892 116.428 54.8625 117.335L94.4889 140.313C99.2339 143.058 103.985 145.797 108.711 148.573C109.056 148.816 109.468 148.946 109.89 148.946C110.312 148.946 110.723 148.816 111.068 148.573C123.688 141.233 136.319 133.91 148.96 126.607L164.93 117.366C165.084 117.262 165.244 117.167 165.409 117.08C165.754 116.947 166.044 116.701 166.231 116.381C166.417 116.062 166.489 115.688 166.435 115.322C166.36 110.876 166.329 106.429 166.31 101.982C166.292 97.5356 166.31 93.0019 166.31 88.518C166.31 87.1641 166.348 87.1206 167.678 86.8411L182.063 83.8353C182.206 83.8042 182.355 83.7918 182.498 83.7607C183.002 83.6552 183.294 83.798 183.25 84.3818C183.25 84.6054 183.25 84.8289 183.25 85.0463C183.25 98.403 183.25 111.758 183.25 125.11C183.288 125.523 183.195 125.938 182.982 126.295C182.77 126.652 182.45 126.933 182.069 127.097C171.289 133.271 160.537 139.469 149.812 145.692C143.033 149.6 136.253 153.494 129.47 157.374C123.332 160.901 117.194 164.416 111.068 167.969C110.738 168.197 110.345 168.32 109.943 168.32C109.541 168.32 109.148 168.197 108.817 167.969C94.8372 159.833 80.8303 151.732 66.7965 143.667C57.1946 138.136 47.5927 132.606 37.9908 127.079C37.5935 126.907 37.26 126.615 37.037 126.244C36.8139 125.873 36.7126 125.442 36.7471 125.011C36.7844 98.0448 36.7844 71.0789 36.7471 44.113C36.7471 43.7777 36.7471 43.4423 36.7471 43.1069C36.7379 42.6811 36.8553 42.2621 37.0844 41.9029C37.3135 41.5437 37.6441 41.2603 38.0344 41.0885C45.497 36.8654 52.9326 32.6257 60.3413 28.3695C70.6231 22.4654 80.8966 16.5468 91.1619 10.6137C97.0698 7.21037 102.969 3.79046 108.861 0.353999C109.165 0.129496 109.532 0.00576622 109.91 0.000196639C110.288 -0.00537294 110.658 0.107496 110.969 0.322945C131.964 12.4292 152.967 24.5169 173.978 36.5859C176.708 38.151 179.42 39.7595 182.181 41.2811C182.527 41.4453 182.815 41.7124 183.004 42.0458C183.193 42.3792 183.275 42.7628 183.238 43.1442C183.207 53.702 183.238 64.2164 183.238 74.7493C183.238 75.2275 183.238 75.712 183.281 76.1902C182.834 76.5504 182.349 76.333 181.907 76.2274C177.031 75.0723 172.187 73.8178 167.361 72.5011C166.957 72.3707 166.515 72.2838 166.298 71.7994Z" fill="#F2683C"/>
<path d="M166.298 71.7991C168.437 72.5382 170.651 73.0412 172.827 73.6002C176.304 74.5193 179.78 75.4633 183.3 76.1775C187.765 77.6432 192.286 78.9412 196.689 80.587C196.774 80.6185 196.848 80.6752 196.9 80.7495C196.952 80.8238 196.981 80.9123 196.981 81.0031C196.086 81.0031 195.197 81.0714 194.301 81.0714C189.289 81.0714 184.283 81.3384 179.283 81.6241C174.177 81.9098 169.078 82.3259 163.984 82.8662C158.891 83.4065 153.748 83.9841 148.655 84.7293C140.334 85.9714 132.082 87.5427 123.904 89.5176C112.266 92.2932 100.856 95.9514 89.775 100.46C86.3795 101.852 83.0151 103.305 79.7067 104.895C79.4144 105.031 79.1346 105.193 78.8112 105.367C79.0724 105.814 79.4331 105.634 79.7316 105.634C83.4069 105.634 87.0885 105.634 90.7638 105.634H91.5411C92.1133 105.634 92.3434 105.926 92.3496 106.46C92.3496 106.609 92.3496 106.758 92.3496 106.907C92.3993 115.883 92.4449 124.857 92.4864 133.829C92.4864 134.283 92.7476 134.904 92.2252 135.152C91.8085 135.351 91.4168 134.879 91.0498 134.668C81.8294 129.364 72.6069 124.06 63.3823 118.757C63.0386 118.596 62.7521 118.335 62.5609 118.007C62.3698 117.68 62.2832 117.302 62.3126 116.924C62.3126 110.584 62.2691 104.236 62.2442 97.8956C62.2442 96.2063 62.2442 96.2187 63.6683 95.4114C69.6005 92.205 75.8298 89.5802 82.2689 87.5737C93.1528 84.043 104.262 81.2462 115.521 79.202C122.83 77.8854 130.179 76.9083 137.567 76.2707C143.591 75.7449 149.631 75.4364 155.688 75.3453C155.751 75.3458 155.813 75.3314 155.87 75.3034C155.926 75.2753 155.974 75.2343 156.012 75.1838L153.356 75.0721C145.863 74.7305 138.357 74.7491 130.863 74.9416C126.304 75.0596 121.746 75.3515 117.181 75.749C111.093 76.2831 105.024 76.9911 98.9851 77.9786C87.9365 79.7363 77.0593 82.4375 66.473 86.0522C65.3163 86.4496 64.1721 86.8844 63.0216 87.2943C62.2753 87.5551 62.2069 87.4992 62.182 86.6732C62.1572 85.8472 62.182 85.1889 62.182 84.4437C62.1012 73.7306 62.0328 63.0113 61.9084 52.292C61.8669 51.8211 61.9696 51.3487 62.2028 50.9373C62.436 50.5259 62.7887 50.1948 63.2143 49.9879C72.3353 44.5724 81.4314 39.132 90.5026 33.6668C91.9516 32.7973 92.4118 33.0457 92.4242 34.735C92.4491 38.4613 92.4677 42.2083 92.4802 45.976C92.5051 53.354 92.5258 60.7341 92.5424 68.1163V69.2839C93.4439 69.323 94.3469 69.2626 95.2351 69.1038C98.4129 68.8181 101.578 68.4827 104.756 68.1474C109.109 67.7002 113.5 67.6505 117.878 67.5822L125.782 67.458C126.684 67.458 126.734 67.4021 126.727 66.5016C126.727 63.7193 126.671 60.9122 126.665 58.1547C126.636 50.1432 126.611 42.1337 126.59 34.1264C126.535 33.7727 126.582 33.4104 126.727 33.083C127.928 33.7724 129.109 34.4431 130.284 35.1325C138.286 39.7945 146.294 44.4565 154.308 49.1185C154.735 49.334 155.089 49.6717 155.324 50.0887C155.559 50.5056 155.664 50.9829 155.626 51.4598C155.626 56.1363 155.626 60.8066 155.626 65.4831C155.626 66.483 155.626 67.4829 155.664 68.4827C155.664 68.7808 155.664 69.0479 156.062 69.1535C159.494 70.0167 162.896 70.911 166.298 71.7991Z" fill="#4A4551"/>
<path d="M126.429 132.345C126.262 132.07 126.204 131.742 126.267 131.426C126.267 130.184 126.236 128.905 126.23 127.644C126.23 118.415 126.199 109.18 126.118 99.9514C126.07 99.5439 126.168 99.1326 126.396 98.7912C126.624 98.4497 126.966 98.2006 127.362 98.0883C136.118 94.1891 145.164 90.9769 154.42 88.4806L154.849 88.3689C155.552 88.2074 155.732 88.3316 155.776 88.9899C155.776 89.2135 155.776 89.4371 155.776 89.6606C155.776 97.8895 155.776 106.125 155.776 114.354C155.81 114.713 155.73 115.074 155.549 115.386C155.367 115.698 155.092 115.945 154.762 116.092C145.599 121.392 136.439 126.702 127.281 132.022C127.043 132.226 126.742 132.341 126.429 132.345Z" fill="#F2683C"/>
<path d="M192.635 187.898C192.501 188.351 192.456 188.826 192.504 189.295C192.504 194.897 192.504 200.497 192.504 206.095C192.504 206.43 192.504 206.766 192.504 207.095C192.512 207.209 192.495 207.323 192.453 207.43C192.412 207.537 192.349 207.634 192.266 207.714C192.184 207.794 192.085 207.855 191.977 207.892C191.869 207.93 191.754 207.944 191.64 207.933C190.396 207.933 189.115 207.933 187.852 207.933C187.74 207.941 187.627 207.924 187.522 207.884C187.416 207.843 187.321 207.78 187.243 207.699C187.165 207.618 187.105 207.521 187.068 207.414C187.032 207.308 187.019 207.194 187.031 207.082C187.031 206.821 187.031 206.561 187.031 206.3V180.837C187.031 180.613 187.031 180.39 187.031 180.172C187.087 179.458 187.28 179.216 187.977 179.203C189.388 179.203 190.8 179.203 192.212 179.203C192.914 179.203 193.256 179.644 193.605 180.147L200.495 189.985L206.285 198.239C206.463 197.895 206.518 197.5 206.44 197.121C206.44 191.738 206.44 186.356 206.44 180.973C206.44 180.713 206.44 180.452 206.44 180.197C206.49 179.489 206.702 179.216 207.367 179.197C208.611 179.197 209.823 179.16 211.042 179.197C211.733 179.197 211.944 179.489 211.988 180.172C211.988 180.396 211.988 180.613 211.988 180.837V207.095C211.999 207.207 211.986 207.32 211.948 207.426C211.91 207.533 211.849 207.629 211.769 207.709C211.69 207.789 211.593 207.85 211.487 207.887C211.38 207.925 211.267 207.939 211.154 207.927C209.741 207.952 208.329 207.952 206.919 207.927C206.372 207.927 206.111 207.461 205.837 207.064C204.258 204.774 202.68 202.484 201.105 200.195C198.455 196.348 195.81 192.498 193.169 188.643C193.039 188.438 192.89 188.24 192.635 187.898Z" fill="#4A4551"/>
<path d="M0.00610352 193.575V180.893C0.00610352 180.638 0.00610352 180.377 0.00610352 180.116C0.062073 179.495 0.267294 179.216 0.882959 179.197C2.12673 179.16 3.4078 179.154 4.66401 179.197C5.32942 179.197 5.55952 179.508 5.61549 180.185C5.61549 180.439 5.61549 180.7 5.61549 180.961C5.61549 183.52 5.61549 186.079 5.61549 188.637C5.61549 190.215 5.37917 190.078 7.00851 190.084H17.5805C18.588 190.084 18.5942 190.084 18.5942 189.035C18.5942 186.37 18.5942 183.7 18.5942 181.029C18.5942 180.769 18.5942 180.508 18.5942 180.253C18.6626 179.421 18.8678 179.204 19.6887 179.185C20.8392 179.185 21.9897 179.185 23.1402 179.185C23.9984 179.185 24.216 179.471 24.2596 180.352C24.2596 180.576 24.2596 180.8 24.2596 181.023V206.07C24.2596 206.325 24.2596 206.586 24.2596 206.846C24.216 207.679 24.0046 207.927 23.2023 207.946C22.0146 207.977 20.8268 207.977 19.639 207.946C18.8678 207.946 18.6502 207.703 18.5942 206.952C18.5942 206.66 18.5942 206.362 18.5942 206.064C18.5942 202.805 18.5942 199.543 18.5942 196.276C18.5942 195.351 18.5942 195.338 17.7173 195.338H6.48613C5.64658 195.338 5.63415 195.338 5.62793 196.189C5.62793 199.561 5.62793 202.934 5.62793 206.312C5.62793 206.567 5.62793 206.828 5.62793 207.089C5.63628 207.202 5.62013 207.315 5.58058 207.421C5.54103 207.528 5.47901 207.624 5.39874 207.704C5.31848 207.784 5.22185 207.846 5.11545 207.886C5.00905 207.925 4.89537 207.942 4.78217 207.933C3.44512 207.933 2.10807 207.933 0.77102 207.933C0.66799 207.938 0.565133 207.921 0.469271 207.883C0.373408 207.845 0.286731 207.787 0.214987 207.713C0.143242 207.639 0.0880709 207.55 0.0531307 207.454C0.0181905 207.357 0.00428065 207.253 0.0123225 207.151C0.0123225 206.853 0.0123225 206.53 0.0123225 206.263L0.00610352 193.575Z" fill="#4A4551"/>
<path d="M124.613 202.555C125.016 202.674 125.439 202.71 125.857 202.661H138.332C139.663 202.661 139.831 202.822 139.843 204.108C139.843 204.816 139.843 205.517 139.843 206.225C139.843 207.641 139.557 207.927 138.164 207.933H118.32C116.939 207.933 116.74 207.61 116.603 206.232C116.404 204.331 117.045 202.884 118.264 201.418C122.667 196.115 126.97 190.699 131.255 185.321C131.441 185.097 131.615 184.855 131.796 184.619C131.578 184.271 131.255 184.42 130.994 184.42C126.871 184.42 122.754 184.42 118.631 184.42C118.369 184.42 118.108 184.42 117.853 184.42C117.182 184.377 116.871 184.141 116.846 183.495C116.802 182.383 116.808 181.265 116.846 180.16C116.846 179.502 117.157 179.259 117.828 179.197C118.164 179.166 118.5 179.197 118.836 179.197H137.909C138.17 179.197 138.431 179.197 138.692 179.197C139.501 179.266 139.793 179.57 139.818 180.396C139.843 181.222 139.818 182.104 139.818 182.955C139.794 183.471 139.571 183.958 139.196 184.315C134.594 190.078 129.994 195.846 125.397 201.617C125.123 201.89 124.905 202.182 124.613 202.555Z" fill="#4A4551"/>
<path d="M108.369 193.649V206.219C108.369 206.474 108.369 206.735 108.369 206.995C108.32 207.617 108.127 207.908 107.511 207.927C106.212 207.964 104.912 207.927 103.612 207.927C103.5 207.939 103.387 207.927 103.28 207.89C103.174 207.854 103.077 207.794 102.996 207.716C102.915 207.638 102.853 207.542 102.813 207.437C102.773 207.332 102.757 207.219 102.766 207.107C102.766 206.809 102.766 206.517 102.766 206.219V180.862C102.766 180.57 102.766 180.241 102.766 179.974C102.762 179.871 102.779 179.769 102.816 179.673C102.853 179.577 102.91 179.49 102.982 179.417C103.055 179.344 103.141 179.287 103.237 179.249C103.332 179.212 103.435 179.194 103.537 179.197C104.874 179.197 106.212 179.166 107.549 179.197C107.662 179.194 107.774 179.215 107.878 179.259C107.983 179.303 108.076 179.368 108.153 179.451C108.229 179.534 108.287 179.633 108.323 179.74C108.358 179.847 108.37 179.961 108.357 180.073C108.357 180.328 108.357 180.589 108.357 180.849V193.649H108.369Z" fill="#4A4551"/>
<path d="M73.3324 215.143C72.9713 215.804 72.6815 216.502 72.468 217.224C72.2192 217.845 71.9953 218.466 71.7901 219.087C71.7498 219.268 71.6433 219.427 71.4915 219.534C71.3397 219.641 71.1535 219.687 70.9692 219.664C70.5153 219.664 70.3474 219.472 70.1981 219.043C69.769 217.801 69.2902 216.559 68.774 215.143C68.5027 216.446 68.3178 217.766 68.2205 219.093C68.1086 219.82 68.0464 219.882 67.3437 219.876C66.9705 219.876 66.8088 219.789 66.8524 219.366C67.0763 217.348 67.2628 215.33 67.4743 213.317C67.5116 212.976 67.4743 212.578 68.0402 212.541C68.8859 212.498 69.1285 212.541 69.371 213.162C69.8125 214.336 70.2354 215.522 70.6521 216.708C70.724 216.975 70.8607 217.221 71.0501 217.422C71.56 216.013 72.0575 214.628 72.5675 213.243C72.6343 213.088 72.7322 212.947 72.8551 212.831C72.978 212.715 73.1234 212.625 73.2824 212.567C73.4413 212.509 73.6105 212.484 73.7795 212.493C73.9485 212.503 74.1138 212.546 74.2652 212.622C74.3386 212.676 74.3977 212.748 74.4378 212.83C74.4778 212.912 74.4975 213.002 74.4953 213.094C74.7068 215.112 74.9306 217.131 75.1172 219.143C75.1545 219.478 75.2043 219.814 74.6943 219.857C74.0724 219.913 73.8113 219.789 73.7491 219.236C73.6309 217.969 73.5003 216.659 73.3324 215.143Z" fill="#F2693C"/>
<path d="M117.076 215.05C117.076 216.423 117.076 217.752 117.076 219.081C117.076 219.839 116.995 219.876 116.367 219.901C115.739 219.925 115.677 219.665 115.683 219.162C115.683 217.826 115.683 216.497 115.683 215.162C115.683 214.647 115.683 214.125 115.683 213.609C115.683 213.274 115.471 212.839 115.938 212.628C116.214 212.533 116.512 212.522 116.794 212.596C117.076 212.67 117.33 212.826 117.524 213.044C118.09 213.821 118.637 214.609 119.19 215.398C119.602 216.029 120.089 216.609 120.639 217.125V214.075C120.639 213.783 120.639 213.485 120.639 213.187C120.639 212.566 121.019 212.566 121.454 212.566C121.889 212.566 122.119 212.734 122.119 213.187C122.119 215.112 122.119 217.031 122.119 218.957C122.119 219.273 122.244 219.721 121.815 219.807C121.385 219.894 120.844 220.025 120.484 219.553C120.297 219.323 120.142 219.068 119.974 218.826L117.517 215.261C117.473 215.186 117.408 215.126 117.329 215.088C117.25 215.05 117.162 215.037 117.076 215.05Z" fill="#F2693D"/>
<path d="M78.55 216.187C78.55 215.261 78.55 214.324 78.55 213.411C78.55 212.591 78.55 212.566 79.3336 212.554C80.5774 212.554 81.8522 212.554 83.1147 212.554C83.5438 212.554 83.7987 212.647 83.8112 213.175C83.8236 213.703 83.5811 213.883 83.0836 213.87C82.2689 213.87 81.4542 213.87 80.6396 213.87C80.0177 213.87 80.0177 214.187 80.0177 214.64C80.0177 215.094 80.0177 215.448 80.6396 215.404C81.2615 215.361 81.8212 215.404 82.4182 215.404C83.0152 215.404 82.9841 215.721 82.9903 216.125C82.9965 216.528 82.9094 216.746 82.4368 216.746C81.846 216.709 81.249 216.746 80.6582 216.746C80.1732 216.746 79.9742 216.907 80.0363 217.367C80.0519 217.59 80.0519 217.814 80.0363 218.038C80.0363 218.466 80.2105 218.621 80.6582 218.615C81.5102 218.615 82.3622 218.615 83.2142 218.615C83.7303 218.615 83.9293 218.758 83.9418 219.305C83.9542 219.851 83.6681 219.981 83.1955 219.975C81.8958 219.975 80.6023 219.975 79.3025 219.975C78.7864 219.975 78.5811 219.764 78.5936 219.242C78.5687 218.18 78.55 217.181 78.55 216.187Z" fill="#F26B3E"/>
<path d="M102.524 216.211C102.524 217.174 102.524 218.137 102.524 219.099C102.524 219.813 102.418 219.9 101.784 219.894C101.149 219.888 101.093 219.813 101.075 219.068C101.075 218.447 101.075 217.882 101.075 217.286C101.075 216.901 100.994 216.665 100.521 216.665C99.7811 216.696 99.0348 216.696 98.2948 216.665C97.7662 216.665 97.6729 216.907 97.6729 217.348C97.6729 217.969 97.6729 218.59 97.6729 219.211C97.6729 219.695 97.4863 219.863 97.0137 219.869C96.5411 219.876 96.2612 219.758 96.2674 219.192C96.2923 217.184 96.2923 215.183 96.2674 213.187C96.2674 212.566 96.5908 212.566 97.0448 212.566C97.4988 212.566 97.6667 212.783 97.6667 213.237C97.6667 213.69 97.6667 214.274 97.6667 214.789C97.6667 215.149 97.7662 215.348 98.1642 215.342C98.9478 215.342 99.7251 215.342 100.502 215.342C100.876 215.342 101.05 215.218 101.037 214.833C101.037 214.274 101.037 213.715 101.037 213.162C101.037 212.609 101.292 212.541 101.734 212.541C102.175 212.541 102.53 212.578 102.505 213.193C102.492 214.205 102.524 215.212 102.524 216.211Z" fill="#F26A3D"/>
<path d="M142.455 212.423C143.24 212.411 144.005 212.677 144.613 213.175C144.911 213.417 145.042 213.69 144.731 214.013C144.42 214.336 144.233 214.591 143.81 214.231C143.593 214.025 143.332 213.873 143.046 213.786C142.76 213.698 142.457 213.678 142.162 213.727C141.777 213.796 141.441 213.97 141.391 214.411C141.342 214.852 141.64 215.032 141.963 215.131C142.548 215.361 143.151 215.547 143.73 215.789C144.855 216.255 145.39 216.976 145.303 217.833C145.221 218.329 144.991 218.788 144.643 219.151C144.294 219.514 143.843 219.762 143.35 219.863C142.774 220.012 142.169 220.014 141.591 219.867C141.014 219.721 140.483 219.431 140.048 219.025C139.781 218.808 139.544 218.534 139.874 218.187C140.204 217.839 140.452 217.566 140.906 217.969C141.218 218.239 141.576 218.45 141.963 218.59C142.134 218.663 142.317 218.7 142.501 218.7C142.686 218.7 142.869 218.663 143.039 218.59C143.437 218.416 143.786 218.187 143.779 217.715C143.773 217.243 143.444 217.094 143.089 216.932C142.604 216.746 142.1 216.615 141.621 216.423C140.191 215.851 139.718 215.112 139.986 213.939C140.185 213.019 141.192 212.417 142.455 212.423Z" fill="#F2693D"/>
<path d="M88.2576 216.249C88.247 216.638 88.334 217.024 88.5106 217.372C88.6873 217.72 88.948 218.018 89.2692 218.239C89.5904 218.46 89.9619 218.598 90.3499 218.64C90.738 218.682 91.1303 218.626 91.4914 218.478C91.8147 218.317 92.1692 217.957 92.5237 218.534C92.8782 219.112 92.8782 219.304 92.2314 219.621C91.7217 219.868 91.163 219.997 90.5966 219.999C90.0301 220.002 89.4704 219.877 88.9587 219.634C88.4471 219.391 87.9966 219.037 87.6405 218.597C87.2845 218.157 87.032 217.643 86.9017 217.092C86.7714 216.542 86.7666 215.969 86.8877 215.416C87.0088 214.864 87.2527 214.345 87.6014 213.899C87.9501 213.454 88.3946 213.092 88.9021 212.84C89.4097 212.589 89.9673 212.455 90.5337 212.448C91.0917 212.421 91.6481 212.528 92.1568 212.758C92.5175 212.926 92.9528 213.069 92.6481 213.646C92.3433 214.224 92.2314 214.268 91.6344 214.013C91.2666 213.832 90.8578 213.75 90.4486 213.777C90.0395 213.803 89.6443 213.935 89.3026 214.162C88.9609 214.388 88.6846 214.7 88.5012 215.066C88.3179 215.432 88.2338 215.84 88.2576 216.249Z" fill="#F2693D"/>
<path d="M134.333 212.454C134.957 212.419 135.577 212.573 136.112 212.895C136.435 213.063 136.541 213.305 136.335 213.615C136.13 213.926 136.074 214.392 135.539 214.131C135.159 213.915 134.733 213.793 134.296 213.777C133.847 213.765 133.406 213.89 133.03 214.136C132.655 214.381 132.363 214.734 132.194 215.149C131.974 215.603 131.897 216.112 131.973 216.61C132.05 217.108 132.277 217.571 132.623 217.938C132.918 218.276 133.312 218.514 133.749 218.618C134.186 218.721 134.645 218.685 135.061 218.515C135.203 218.47 135.34 218.412 135.471 218.342C136.037 217.981 136.168 218.478 136.379 218.795C136.59 219.112 136.379 219.385 136.068 219.571C135.58 219.819 135.044 219.96 134.496 219.984C133.949 220.008 133.403 219.916 132.894 219.712C132.385 219.509 131.926 219.199 131.547 218.805C131.168 218.41 130.877 217.938 130.695 217.422C130.503 216.851 130.451 216.242 130.543 215.646C130.636 215.05 130.87 214.485 131.227 213.998C131.583 213.511 132.051 213.117 132.592 212.849C133.132 212.58 133.729 212.445 134.333 212.454Z" fill="#F2693D"/>
<path d="M127.107 216.348C127.107 217.311 127.107 218.274 127.107 219.243C127.107 219.708 126.958 219.907 126.485 219.901C126.012 219.895 125.72 219.814 125.726 219.236C125.726 217.23 125.726 215.231 125.726 213.225C125.726 212.641 126.031 212.604 126.497 212.604C126.964 212.604 127.119 212.796 127.119 213.262C127.094 214.268 127.107 215.311 127.107 216.348Z" fill="#F2693C"/>
<path d="M48.1089 178.744C45.1819 178.741 42.3197 179.605 39.8833 181.225C37.447 182.845 35.5456 185.149 34.419 187.847C33.2924 190.545 32.9911 193.516 33.553 196.384C34.1149 199.253 35.5148 201.891 37.5763 203.966C39.6378 206.042 42.2684 207.461 45.1365 208.045C48.0045 208.628 50.9815 208.351 53.6919 207.247C56.4023 206.144 58.7247 204.263 60.3663 201.843C62.0079 199.423 62.895 196.572 62.9159 193.649C62.929 191.698 62.5559 189.763 61.8178 187.957C61.0798 186.15 59.9915 184.507 58.6155 183.122C57.2395 181.737 55.6029 180.637 53.7998 179.885C51.9967 179.134 50.0627 178.746 48.1089 178.744ZM48.1773 202.896C46.9458 202.906 45.7244 202.673 44.5828 202.212C43.4413 201.75 42.4019 201.069 41.5242 200.206C40.6464 199.343 39.9474 198.316 39.4671 197.184C38.9867 196.051 38.7345 194.835 38.7247 193.605C38.7149 192.375 38.9477 191.156 39.41 190.016C39.8722 188.876 40.5548 187.838 41.4187 186.961C43.1634 185.191 45.5408 184.185 48.028 184.165C52.8912 184.023 57.2506 188.121 57.2754 193.394C57.311 194.617 57.1031 195.835 56.6637 196.977C56.2243 198.119 55.5623 199.162 54.7159 200.047C53.8696 200.931 52.8558 201.639 51.7333 202.129C50.6109 202.62 49.4022 202.882 48.1773 202.902V202.896Z" fill="#4A4551"/>
<path d="M163.232 178.744C159.302 178.744 155.532 180.303 152.753 183.078C149.974 185.854 148.412 189.618 148.412 193.543C148.412 197.468 149.974 201.233 152.753 204.008C155.532 206.784 159.302 208.343 163.232 208.343C165.178 208.343 167.105 207.96 168.903 207.216C170.701 206.472 172.335 205.382 173.711 204.008C175.087 202.634 176.179 201.002 176.923 199.207C177.668 197.411 178.051 195.487 178.051 193.543C178.051 191.6 177.668 189.675 176.923 187.88C176.179 186.084 175.087 184.453 173.711 183.078C172.335 181.704 170.701 180.614 168.903 179.87C167.105 179.126 165.178 178.744 163.232 178.744ZM162.921 202.909C161.06 202.897 159.244 202.334 157.703 201.291C156.163 200.248 154.967 198.771 154.268 197.048C153.57 195.325 153.399 193.434 153.778 191.614C154.157 189.794 155.069 188.127 156.398 186.826C157.726 185.524 159.412 184.646 161.242 184.302C163.071 183.959 164.961 184.166 166.673 184.897C168.384 185.628 169.84 186.85 170.855 188.408C171.87 189.966 172.398 191.79 172.374 193.649C172.372 194.88 172.125 196.098 171.648 197.232C171.17 198.367 170.471 199.395 169.591 200.257C168.711 201.119 167.668 201.797 166.523 202.253C165.378 202.708 164.153 202.931 162.921 202.909Z" fill="#4A4551"/>
<path d="M94.1594 206.958C94.0357 206.608 93.8861 206.267 93.7116 205.939C92.3062 203.163 90.8883 200.4 89.489 197.623C88.9107 196.468 88.8671 196.729 89.8497 196.096C90.0052 195.996 90.1544 195.885 90.3037 195.779C91.7393 194.708 92.8275 193.239 93.4325 191.555C94.0374 189.871 94.1323 188.046 93.7054 186.308C93.2341 184.289 92.0951 182.488 90.4725 181.196C88.8498 179.903 86.8383 179.195 84.7627 179.185C80.9008 179.147 77.0389 179.185 73.1833 179.185H72.7355C72.6234 179.177 72.5109 179.192 72.405 179.23C72.2992 179.268 72.2024 179.327 72.1206 179.404C72.0388 179.481 71.9739 179.574 71.9299 179.678C71.8859 179.781 71.8637 179.892 71.8649 180.004C71.8462 180.3 71.8462 180.597 71.8649 180.892V206.026C71.8649 206.287 71.8649 206.542 71.8649 206.803C71.9022 207.684 72.1198 207.92 72.9967 207.939C74.1472 207.939 75.3039 207.939 76.4544 207.939C77.325 207.939 77.524 207.691 77.5551 206.784C77.5551 206.449 77.5551 206.113 77.5551 205.784C77.5551 203.412 77.5551 201.039 77.5551 198.667C77.5551 197.934 77.5551 197.934 78.3013 197.934C79.6757 197.934 81.0501 197.977 82.4182 197.934C82.7392 197.882 83.0683 197.944 83.3479 198.11C83.6275 198.276 83.84 198.534 83.948 198.841C85.2851 201.611 86.7092 204.337 88.0774 207.082C88.3074 207.542 88.5375 207.951 89.1035 207.951C90.5898 207.951 92.0761 207.983 93.5624 207.951C94.2029 207.933 94.377 207.591 94.1594 206.958ZM84.259 192.91C82.2254 193.028 80.1919 192.91 78.1521 192.978C77.6422 192.978 77.5302 192.761 77.5302 192.307C77.5302 191.015 77.5302 189.718 77.5302 188.426C77.5302 187.134 77.5302 185.836 77.5302 184.538C77.5302 184.116 77.6795 183.96 78.1148 183.967C79.9804 183.967 81.8958 183.967 83.7801 184.022C84.507 184.025 85.2219 184.207 85.861 184.553C86.5002 184.899 87.0437 185.397 87.443 186.004C89.402 188.836 87.5363 192.711 84.259 192.91Z" fill="#4A4551"/>
<path d="M112.318 219.224C111.522 217.236 110.714 215.255 109.937 213.262C109.769 212.839 109.582 212.591 109.078 212.566C108.575 212.541 108.32 212.902 108.152 213.318C107.393 215.181 106.634 217.087 105.894 218.975C105.801 219.224 105.515 219.534 105.795 219.783C106.075 220.031 106.417 219.913 106.752 219.851C107.088 219.789 107.138 219.429 107.231 219.162C107.272 218.945 107.397 218.754 107.579 218.629C107.761 218.505 107.985 218.457 108.201 218.497C108.794 218.534 109.388 218.534 109.98 218.497C110.162 218.474 110.346 218.516 110.501 218.614C110.656 218.713 110.77 218.863 110.826 219.037C111.255 219.994 111.28 219.988 112.412 219.745C112.442 219.566 112.409 219.382 112.318 219.224ZM108.108 217.149C108.208 216.237 108.68 215.46 108.997 214.404C109.428 215.251 109.776 216.137 110.036 217.05C109.302 217.342 109.19 217.348 108.108 217.149Z" fill="#F2693C"/>
</g>
<defs>
<clipPath id="clip0_282_2870">
<rect width="212" height="220" fill="white"/>
</clipPath>
</defs>
</svg>
