<svg width="44" height="46" viewBox="0 0 44 46" fill="none" xmlns="http://www.w3.org/2000/svg">
<g clip-path="url(#clip0_279_1340)">
<path d="M34.5147 15.0126C34.5147 14.5321 34.5212 14.0517 34.5212 13.5712C34.5212 12.7103 34.5212 11.8493 34.5212 10.9884C34.5276 10.9244 34.5139 10.86 34.4819 10.8043C34.45 10.7486 34.4014 10.7044 34.3431 10.678C31.4347 8.99509 28.5289 7.30956 25.6257 5.62144C24.7596 5.1189 23.891 4.61896 23.0288 4.10993C22.9737 4.07008 22.9076 4.04865 22.8397 4.04865C22.7719 4.04865 22.7057 4.07008 22.6506 4.10993C20.1105 5.58162 17.5691 7.05072 15.0264 8.51722C13.8054 9.22234 12.587 9.93265 11.3621 10.6326C11.2791 10.6693 11.2096 10.7313 11.1634 10.8097C11.1171 10.8882 11.0963 10.9793 11.104 11.0702C11.1109 15.3909 11.1109 19.7108 11.104 24.0298C11.104 24.4115 11.0601 24.344 11.3867 24.5336L19.611 29.3382C20.5958 29.9122 21.5819 30.4849 22.5629 31.0653C22.6344 31.1161 22.7199 31.1433 22.8074 31.1433C22.895 31.1433 22.9804 31.1161 23.052 31.0653C25.6713 29.5304 28.2927 27.9994 30.9163 26.4723L34.2308 24.5401C34.2629 24.5185 34.296 24.4985 34.3302 24.4804C34.4019 24.4526 34.4621 24.401 34.5008 24.3342C34.5395 24.2674 34.5544 24.1893 34.5431 24.1129C34.5276 23.1831 34.5212 22.2533 34.5173 21.3236C34.5135 20.3938 34.5173 19.4459 34.5173 18.5083C34.5173 18.2252 34.5251 18.2161 34.8013 18.1577L37.7867 17.5292C37.8164 17.5227 37.8473 17.5201 37.877 17.5136C37.9816 17.4915 38.0422 17.5214 38.0332 17.6435C38.0332 17.6902 38.0332 17.737 38.0332 17.7824C38.0332 20.5752 38.0332 23.3675 38.0332 26.1594C38.0411 26.2458 38.0216 26.3325 37.9776 26.4072C37.9335 26.4818 37.8672 26.5405 37.788 26.5749C35.5507 27.8657 33.3191 29.1616 31.0931 30.4628C29.6862 31.28 28.2789 32.0942 26.8712 32.9054C25.5973 33.643 24.3234 34.3779 23.052 35.1207C22.9834 35.1685 22.9019 35.1941 22.8184 35.1941C22.7349 35.1941 22.6534 35.1685 22.5848 35.1207C19.6833 33.4196 16.7762 31.7259 13.8635 30.0395C11.8707 28.8829 9.87784 27.7267 7.885 26.571C7.80253 26.535 7.73331 26.474 7.68702 26.3965C7.64073 26.3189 7.6197 26.2288 7.62686 26.1386C7.6346 20.5003 7.6346 14.862 7.62686 9.22363C7.62686 9.15351 7.62686 9.08339 7.62686 9.01327C7.62495 8.92423 7.64932 8.83663 7.69687 8.76151C7.74442 8.6864 7.81303 8.62715 7.89403 8.59124C9.44287 7.70822 10.9861 6.82174 12.5238 5.9318C14.6577 4.6973 16.79 3.45978 18.9205 2.21923C20.1467 1.50762 21.3711 0.792552 22.5938 0.0740181C22.6569 0.0270765 22.7331 0.00120566 22.8116 4.11154e-05C22.89 -0.00112343 22.9669 0.0224764 23.0314 0.0675249C27.3888 2.59884 31.7479 5.12626 36.1088 7.64979C36.6754 7.97702 37.2381 8.31335 37.8112 8.63149C37.8831 8.66584 37.9428 8.72168 37.9821 8.79139C38.0214 8.86111 38.0383 8.94131 38.0306 9.02106C38.0242 11.2286 38.0306 13.4271 38.0306 15.6294C38.0306 15.7294 38.0306 15.8307 38.0396 15.9307C37.9467 16.006 37.846 15.9605 37.7544 15.9385C36.7425 15.6969 35.737 15.4346 34.7354 15.1593C34.6516 15.1321 34.5599 15.1139 34.5147 15.0126Z" fill="#F2683C"/>
<path d="M34.5147 15.0126C34.9587 15.1671 35.4182 15.2723 35.87 15.3892C36.5915 15.5814 37.313 15.7788 38.0435 15.9281C38.9702 16.2345 39.9086 16.5059 40.8224 16.8501C40.8401 16.8567 40.8554 16.8685 40.8662 16.8841C40.8771 16.8996 40.8829 16.9181 40.8831 16.9371C40.6972 16.9371 40.5126 16.9514 40.3268 16.9514C39.2865 16.9514 38.2474 17.0072 37.2097 17.0669C36.1501 17.1267 35.0917 17.2137 34.0346 17.3266C32.9775 17.4396 31.9101 17.5604 30.853 17.7162C29.1261 17.9759 27.4133 18.3044 25.716 18.7174C23.3005 19.2977 20.9325 20.0626 18.6327 21.0054C17.9279 21.2963 17.2297 21.6002 16.543 21.9326C16.4824 21.9612 16.4243 21.9949 16.3572 22.0313C16.4114 22.1248 16.4862 22.0871 16.5482 22.0871C17.311 22.0871 18.0751 22.0871 18.8379 22.0871H18.9992C19.118 22.0871 19.1657 22.1482 19.167 22.2598C19.167 22.291 19.167 22.3222 19.167 22.3533C19.1773 24.2302 19.1868 26.1066 19.1954 27.9826C19.1954 28.0774 19.2496 28.2072 19.1412 28.2592C19.0547 28.3007 18.9734 28.202 18.8973 28.1579C16.9836 27.0489 15.0695 25.9399 13.1549 24.831C13.0836 24.7974 13.0241 24.7428 12.9845 24.6743C12.9448 24.6059 12.9268 24.5269 12.9329 24.4479C12.9329 23.1221 12.9239 21.795 12.9187 20.4691C12.9187 20.1159 12.9187 20.1185 13.2143 19.9497C14.4455 19.2793 15.7384 18.7305 17.0748 18.3109C19.3337 17.5727 21.6394 16.9879 23.9762 16.5605C25.4932 16.2852 27.0183 16.0809 28.5517 15.9476C29.802 15.8376 31.0557 15.7731 32.3128 15.7541C32.3258 15.7542 32.3387 15.7512 32.3504 15.7453C32.3621 15.7394 32.3722 15.7309 32.3799 15.7203L31.8288 15.6969C30.2735 15.6255 28.7156 15.6294 27.1603 15.6697C26.2142 15.6944 25.2682 15.7554 24.3208 15.8385C23.0572 15.9502 21.7975 16.0982 20.5442 16.3047C18.2511 16.6722 15.9935 17.237 13.7964 17.9928C13.5563 18.0759 13.3188 18.1668 13.0801 18.2525C12.9252 18.307 12.911 18.2954 12.9058 18.1226C12.9007 17.9499 12.9058 17.8123 12.9058 17.6565C12.889 15.4165 12.8748 13.1752 12.849 10.9338C12.8404 10.8354 12.8617 10.7366 12.9101 10.6506C12.9585 10.5646 13.0317 10.4953 13.1201 10.4521C15.0131 9.31974 16.901 8.18221 18.7837 7.03948C19.0844 6.85768 19.1799 6.90963 19.1825 7.26283C19.1877 8.04197 19.1915 8.82543 19.1941 9.61322C19.1993 11.1559 19.2036 12.699 19.207 14.2426V14.4867C19.3941 14.4949 19.5816 14.4822 19.7659 14.449C20.4254 14.3893 21.0824 14.3192 21.742 14.2491C22.6455 14.1556 23.5567 14.1452 24.4653 14.1309L26.1058 14.1049C26.293 14.1049 26.3033 14.0932 26.302 13.9049C26.302 13.3232 26.2904 12.7362 26.2891 12.1597C26.2831 10.4845 26.2779 8.80985 26.2736 7.13558C26.262 7.06162 26.2719 6.98588 26.302 6.91742C26.5511 7.06156 26.7963 7.2018 27.0403 7.34594C28.701 8.32072 30.363 9.2955 32.0263 10.2703C32.115 10.3153 32.1884 10.386 32.2372 10.4731C32.2859 10.5603 32.3077 10.6601 32.2999 10.7598C32.2999 11.7377 32.2999 12.7142 32.2999 13.692C32.2999 13.901 32.2999 14.1101 32.3076 14.3192C32.3076 14.3815 32.3076 14.4373 32.3902 14.4594C33.1027 14.6399 33.8087 14.8269 34.5147 15.0126Z" fill="#4A4551"/>
<path d="M26.2399 27.6722C26.2053 27.6146 26.1933 27.546 26.2063 27.48C26.2063 27.2203 26.1999 26.9528 26.1986 26.6892C26.1986 24.7595 26.1921 22.8286 26.1753 20.8989C26.1653 20.8137 26.1858 20.7277 26.2331 20.6563C26.2804 20.5849 26.3514 20.5328 26.4335 20.5094C28.2507 19.6941 30.1284 19.0224 32.0493 18.5005L32.1384 18.4771C32.2842 18.4434 32.3216 18.4693 32.3307 18.607C32.3307 18.6537 32.3307 18.7005 32.3307 18.7472C32.3307 20.4678 32.3307 22.1897 32.3307 23.9103C32.3378 23.9854 32.3213 24.0609 32.2836 24.1261C32.2458 24.1913 32.1887 24.243 32.1203 24.2739C30.2187 25.382 28.3175 26.4922 26.4167 27.6047C26.3674 27.6473 26.3048 27.6712 26.2399 27.6722Z" fill="#F2683C"/>
<path d="M39.9807 39.2878C39.953 39.3825 39.9437 39.4817 39.9536 39.5799C39.9536 40.7512 39.9536 41.9221 39.9536 43.0925C39.9536 43.1627 39.9536 43.2328 39.9536 43.3016C39.9552 43.3255 39.9517 43.3494 39.9431 43.3718C39.9346 43.3942 39.9214 43.4144 39.9043 43.4311C39.8872 43.4477 39.8667 43.4605 39.8443 43.4684C39.8218 43.4763 39.7979 43.4792 39.7742 43.4769C39.5161 43.4769 39.2502 43.4769 38.9882 43.4769C38.9648 43.4786 38.9414 43.475 38.9195 43.4666C38.8977 43.4581 38.8779 43.445 38.8617 43.428C38.8454 43.411 38.8331 43.3907 38.8255 43.3684C38.8179 43.3461 38.8153 43.3224 38.8178 43.299C38.8178 43.2445 38.8178 43.1899 38.8178 43.1354V37.8113C38.8178 37.7646 38.8178 37.7178 38.8178 37.6724C38.8294 37.523 38.8694 37.4724 39.014 37.4698C39.307 37.4698 39.6 37.4698 39.893 37.4698C40.0388 37.4698 40.1098 37.562 40.1821 37.6672L41.6122 39.7241L42.8138 41.4499C42.8508 41.3779 42.8622 41.2955 42.8461 41.2161C42.8461 40.0907 42.8461 38.9653 42.8461 37.8399C42.8461 37.7853 42.8461 37.7308 42.8461 37.6776C42.8564 37.5295 42.9003 37.4724 43.0384 37.4685C43.2966 37.4685 43.5482 37.4607 43.8012 37.4685C43.9445 37.4685 43.9884 37.5295 43.9974 37.6724C43.9974 37.7191 43.9974 37.7646 43.9974 37.8113V43.3016C43.9998 43.325 43.997 43.3487 43.9892 43.371C43.9814 43.3932 43.9687 43.4134 43.9521 43.4301C43.9356 43.4467 43.9155 43.4595 43.8934 43.4674C43.8713 43.4752 43.8478 43.478 43.8244 43.4756C43.531 43.4808 43.238 43.4808 42.9455 43.4756C42.8319 43.4756 42.7777 43.3782 42.7209 43.2951C42.3931 42.8164 42.0657 42.3376 41.7387 41.8589C41.1888 41.0547 40.6399 40.2496 40.0917 39.4436C40.0646 39.4007 40.0337 39.3592 39.9807 39.2878Z" fill="#4A4551"/>
<path d="M0.00146484 40.4747V37.823C0.00146484 37.7698 0.00146484 37.7152 0.00146484 37.6607C0.0130812 37.5308 0.0556743 37.4724 0.183454 37.4685C0.441594 37.4607 0.707478 37.4594 0.9682 37.4685C1.10631 37.4685 1.15406 37.5334 1.16568 37.675C1.16568 37.7282 1.16568 37.7827 1.16568 37.8373C1.16568 38.3723 1.16568 38.9073 1.16568 39.4423C1.16568 39.7721 1.11663 39.7436 1.45479 39.7449H3.64899C3.85808 39.7449 3.85937 39.7449 3.85937 39.5254C3.85937 38.9683 3.85937 38.4099 3.85937 37.8516C3.85937 37.797 3.85937 37.7425 3.85937 37.6892C3.87357 37.5152 3.91616 37.4698 4.08653 37.4659C4.32531 37.4659 4.56409 37.4659 4.80287 37.4659C4.98099 37.4659 5.02616 37.5256 5.0352 37.71C5.0352 37.7568 5.0352 37.8035 5.0352 37.8503V43.0873C5.0352 43.1406 5.0352 43.1951 5.0352 43.2497C5.02616 43.4237 4.98228 43.4756 4.81578 43.4795C4.56926 43.486 4.32273 43.486 4.07621 43.4795C3.91616 43.4795 3.87099 43.4289 3.85937 43.2717C3.85937 43.2107 3.85937 43.1484 3.85937 43.086C3.85937 42.4047 3.85937 41.7226 3.85937 41.0395C3.85937 40.846 3.85937 40.8434 3.67738 40.8434H1.34638C1.17213 40.8434 1.16955 40.8434 1.16826 41.0213C1.16826 41.7265 1.16826 42.4316 1.16826 43.138C1.16826 43.1912 1.16826 43.2458 1.16826 43.3003C1.16999 43.3239 1.16664 43.3477 1.15843 43.3699C1.15022 43.3921 1.13735 43.4123 1.12069 43.4291C1.10403 43.4458 1.08398 43.4588 1.0619 43.467C1.03981 43.4753 1.01622 43.4787 0.992723 43.4769C0.715223 43.4769 0.437722 43.4769 0.160221 43.4769C0.138837 43.4779 0.11749 43.4743 0.0975939 43.4664C0.0776979 43.4584 0.0597082 43.4463 0.0448179 43.4308C0.0299276 43.4153 0.018477 43.3969 0.0112252 43.3766C0.00397347 43.3563 0.00108651 43.3348 0.00275557 43.3133C0.00275557 43.251 0.00275557 43.1834 0.00275557 43.1276L0.00146484 40.4747Z" fill="#4A4551"/>
<path d="M25.8632 42.3524C25.9469 42.3772 26.0347 42.3847 26.1214 42.3745H28.7105C28.9867 42.3745 29.0216 42.4082 29.0241 42.677C29.0241 42.8251 29.0241 42.9718 29.0241 43.1198C29.0241 43.4159 28.9648 43.4756 28.6757 43.4769H24.557C24.2705 43.4769 24.2292 43.4094 24.2008 43.1211C24.1595 42.7238 24.2924 42.4212 24.5454 42.1147C25.4592 41.0058 26.3524 39.8734 27.2417 38.7489C27.2804 38.7021 27.3165 38.6515 27.354 38.6022C27.3088 38.5294 27.2417 38.5606 27.1875 38.5606C26.3317 38.5606 25.4773 38.5606 24.6216 38.5606C24.5674 38.5606 24.5131 38.5606 24.4602 38.5606C24.3208 38.5515 24.2563 38.5022 24.2511 38.3671C24.2421 38.1347 24.2434 37.9009 24.2511 37.6698C24.2511 37.5322 24.3157 37.4815 24.4551 37.4685C24.5248 37.462 24.5945 37.4685 24.6642 37.4685H28.6227C28.6769 37.4685 28.7312 37.4685 28.7854 37.4685C28.9532 37.4828 29.0138 37.5464 29.019 37.7191C29.0241 37.8919 29.019 38.0762 29.019 38.2541C29.014 38.3621 28.9678 38.464 28.8899 38.5385C27.9348 39.7436 26.9801 40.9495 26.0258 42.1563C25.9691 42.2134 25.9239 42.2745 25.8632 42.3524Z" fill="#4A4551"/>
<path d="M22.4915 40.4903V43.1185C22.4915 43.1718 22.4915 43.2263 22.4915 43.2808C22.4812 43.4107 22.4412 43.4717 22.3134 43.4756C22.0437 43.4834 21.7739 43.4756 21.5042 43.4756C21.4809 43.4782 21.4574 43.4756 21.4353 43.4679C21.4132 43.4603 21.3931 43.4478 21.3763 43.4315C21.3595 43.4151 21.3466 43.3952 21.3383 43.3732C21.3301 43.3512 21.3268 43.3277 21.3286 43.3042C21.3286 43.2419 21.3286 43.1809 21.3286 43.1185V37.8165C21.3286 37.7555 21.3286 37.6867 21.3286 37.6308C21.3277 37.6094 21.3312 37.588 21.3389 37.568C21.3466 37.548 21.3584 37.5298 21.3734 37.5145C21.3884 37.4993 21.4064 37.4873 21.4263 37.4794C21.4461 37.4715 21.4673 37.4678 21.4887 37.4685C21.7662 37.4685 22.0437 37.462 22.3212 37.4685C22.3446 37.4678 22.368 37.4722 22.3896 37.4813C22.4112 37.4905 22.4307 37.5042 22.4466 37.5216C22.4625 37.5389 22.4745 37.5595 22.4818 37.582C22.4891 37.6044 22.4916 37.6282 22.489 37.6516C22.489 37.7049 22.489 37.7594 22.489 37.8139V40.4903H22.4915Z" fill="#4A4551"/>
<path d="M15.2199 44.9845C15.1449 45.1227 15.0848 45.2685 15.0405 45.4195C14.9888 45.5494 14.9424 45.6792 14.8998 45.8091C14.8914 45.8469 14.8693 45.8803 14.8378 45.9026C14.8063 45.9249 14.7677 45.9347 14.7294 45.9299C14.6352 45.9299 14.6003 45.8896 14.5694 45.8C14.4803 45.5403 14.3809 45.2806 14.2738 44.9845C14.2175 45.257 14.1791 45.5328 14.1589 45.8104C14.1357 45.9623 14.1228 45.9753 13.9769 45.974C13.8995 45.974 13.8659 45.9558 13.875 45.8675C13.9214 45.4455 13.9602 45.0235 14.004 44.6027C14.0118 44.5313 14.004 44.4482 14.1215 44.4404C14.297 44.4313 14.3474 44.4404 14.3977 44.5703C14.4893 44.8157 14.5771 45.0637 14.6636 45.3117C14.6785 45.3676 14.7069 45.4189 14.7462 45.4611C14.852 45.1663 14.9553 44.8767 15.0611 44.5871C15.075 44.5547 15.0953 44.5254 15.1208 44.5011C15.1463 44.4768 15.1765 44.458 15.2095 44.4458C15.2425 44.4337 15.2776 44.4284 15.3127 44.4304C15.3477 44.4324 15.382 44.4415 15.4135 44.4573C15.4287 44.4687 15.441 44.4836 15.4493 44.5008C15.4576 44.518 15.4617 44.5369 15.4612 44.556C15.5051 44.978 15.5516 45.4 15.5903 45.8208C15.5981 45.8909 15.6084 45.961 15.5025 45.9701C15.3735 45.9818 15.3193 45.9558 15.3064 45.8403C15.2818 45.5753 15.2547 45.3013 15.2199 44.9845Z" fill="#F2693C"/>
<path d="M24.2986 44.965C24.2986 45.252 24.2986 45.5299 24.2986 45.8078C24.2986 45.9662 24.2818 45.974 24.1514 45.9792C24.0211 45.9844 24.0081 45.9299 24.0094 45.8247C24.0094 45.5455 24.0094 45.2676 24.0094 44.9884C24.0094 44.8806 24.0094 44.7716 24.0094 44.6638C24.0094 44.5937 23.9656 44.5028 24.0624 44.4586C24.1196 44.4387 24.1815 44.4363 24.2401 44.4518C24.2986 44.4673 24.3514 44.4999 24.3915 44.5456C24.5089 44.7079 24.6225 44.8728 24.7374 45.0378C24.8229 45.1698 24.9239 45.291 25.0381 45.3988V44.7612C25.0381 44.7001 25.0381 44.6378 25.0381 44.5755C25.0381 44.4456 25.1169 44.4456 25.2072 44.4456C25.2976 44.4456 25.3453 44.4807 25.3453 44.5755C25.3453 44.978 25.3453 45.3793 25.3453 45.7818C25.3453 45.8481 25.3711 45.9416 25.2821 45.9597C25.193 45.9779 25.0807 46.0052 25.0059 45.9065C24.9671 45.8584 24.9349 45.8052 24.9 45.7546L24.3902 45.0092C24.3811 44.9934 24.3675 44.9808 24.3511 44.9729C24.3348 44.9651 24.3165 44.9623 24.2986 44.965Z" fill="#F2693D"/>
<path d="M16.3027 45.2027C16.3027 45.0092 16.3027 44.8131 16.3027 44.6223C16.3027 44.4508 16.3027 44.4457 16.4654 44.4431C16.7235 44.4431 16.9881 44.4431 17.2501 44.4431C17.3392 44.4431 17.3921 44.4625 17.3947 44.5729C17.3972 44.6833 17.3469 44.7209 17.2437 44.7183C17.0746 44.7183 16.9055 44.7183 16.7364 44.7183C16.6073 44.7183 16.6073 44.7846 16.6073 44.8794C16.6073 44.9742 16.6073 45.0482 16.7364 45.0391C16.8655 45.03 16.9816 45.0391 17.1056 45.0391C17.2295 45.0391 17.223 45.1053 17.2243 45.1897C17.2256 45.2741 17.2075 45.3196 17.1094 45.3196C16.9868 45.3118 16.8629 45.3196 16.7403 45.3196C16.6396 45.3196 16.5983 45.3533 16.6112 45.4494C16.6144 45.4961 16.6144 45.543 16.6112 45.5897C16.6112 45.6793 16.6474 45.7117 16.7403 45.7104C16.9171 45.7104 17.0939 45.7104 17.2708 45.7104C17.3779 45.7104 17.4192 45.7403 17.4218 45.8546C17.4244 45.9689 17.365 45.9961 17.2669 45.9948C16.9971 45.9948 16.7287 45.9948 16.4589 45.9948C16.3518 45.9948 16.3092 45.9507 16.3118 45.8416C16.3066 45.6195 16.3027 45.4105 16.3027 45.2027Z" fill="#F26B3E"/>
<path d="M21.2784 45.2079C21.2784 45.4091 21.2784 45.6104 21.2784 45.8117C21.2784 45.961 21.2565 45.9792 21.1249 45.9779C20.9932 45.9766 20.9816 45.961 20.9777 45.8052C20.9777 45.6754 20.9777 45.5572 20.9777 45.4325C20.9777 45.352 20.9609 45.3027 20.8628 45.3027C20.7092 45.3092 20.5544 45.3092 20.4008 45.3027C20.2911 45.3027 20.2717 45.3533 20.2717 45.4455C20.2717 45.5754 20.2717 45.7052 20.2717 45.8351C20.2717 45.9364 20.233 45.9714 20.1349 45.9727C20.0368 45.974 19.9787 45.9494 19.98 45.8312C19.9852 45.4113 19.9852 44.9927 19.98 44.5755C19.98 44.4456 20.0471 44.4456 20.1413 44.4456C20.2356 44.4456 20.2704 44.4911 20.2704 44.5859C20.2704 44.6807 20.2704 44.8027 20.2704 44.9105C20.2704 44.9858 20.2911 45.0274 20.3737 45.0261C20.5363 45.0261 20.6976 45.0261 20.859 45.0261C20.9364 45.0261 20.9726 45.0001 20.97 44.9196C20.97 44.8027 20.97 44.6859 20.97 44.5703C20.97 44.4547 21.0229 44.4404 21.1145 44.4404C21.2062 44.4404 21.2797 44.4482 21.2746 44.5768C21.272 44.7884 21.2784 44.9988 21.2784 45.2079Z" fill="#F26A3D"/>
<path d="M29.5661 44.4157C29.7292 44.4132 29.8879 44.4688 30.014 44.5729C30.076 44.6235 30.1031 44.6806 30.0385 44.7482C29.974 44.8157 29.9353 44.8689 29.8475 44.7936C29.8025 44.7507 29.7481 44.7188 29.6888 44.7006C29.6294 44.6823 29.5667 44.6782 29.5055 44.6884C29.4254 44.7027 29.3558 44.7391 29.3454 44.8313C29.3351 44.9235 29.3971 44.9611 29.4642 44.9819C29.5855 45.0299 29.7107 45.0689 29.8307 45.1195C30.0643 45.2169 30.1753 45.3676 30.1573 45.5468C30.1404 45.6505 30.0926 45.7466 30.0202 45.8224C29.9478 45.8982 29.8543 45.9502 29.752 45.9714C29.6323 46.0026 29.5068 46.0028 29.387 45.9722C29.2672 45.9416 29.157 45.881 29.0666 45.7961C29.0111 45.7506 28.9621 45.6935 29.0305 45.6208C29.0989 45.5481 29.1505 45.4909 29.2447 45.5753C29.3094 45.6318 29.3837 45.6758 29.4642 45.7052C29.4995 45.7203 29.5374 45.7281 29.5758 45.7281C29.6142 45.7281 29.6522 45.7203 29.6875 45.7052C29.7701 45.6688 29.8423 45.6208 29.8411 45.5221C29.8398 45.4234 29.7714 45.3922 29.6978 45.3585C29.5971 45.3195 29.4926 45.2923 29.3932 45.252C29.0963 45.1325 28.9982 44.978 29.0537 44.7326C29.095 44.5404 29.3041 44.4144 29.5661 44.4157Z" fill="#F2693D"/>
<path d="M18.3176 45.2157C18.3154 45.2971 18.3334 45.3779 18.3701 45.4505C18.4068 45.5232 18.4609 45.5855 18.5276 45.6318C18.5942 45.6781 18.6713 45.7069 18.7518 45.7157C18.8324 45.7244 18.9138 45.7128 18.9888 45.6818C19.0559 45.6481 19.1294 45.5728 19.203 45.6935C19.2766 45.8143 19.2766 45.8545 19.1424 45.9208C19.0366 45.9724 18.9206 45.9994 18.803 45.9999C18.6855 46.0004 18.5693 45.9743 18.4631 45.9235C18.3569 45.8728 18.2634 45.7986 18.1895 45.7066C18.1156 45.6147 18.0632 45.5071 18.0362 45.392C18.0091 45.2769 18.0081 45.1571 18.0333 45.0416C18.0584 44.9261 18.109 44.8177 18.1814 44.7244C18.2538 44.6312 18.346 44.5555 18.4514 44.503C18.5567 44.4505 18.6724 44.4224 18.79 44.4209C18.9058 44.4154 19.0213 44.4376 19.1269 44.4859C19.2017 44.5209 19.2921 44.5508 19.2288 44.6716C19.1656 44.7923 19.1423 44.8014 19.0184 44.7482C18.9421 44.7103 18.8573 44.6933 18.7723 44.6988C18.6874 44.7042 18.6054 44.732 18.5345 44.7793C18.4636 44.8266 18.4062 44.8918 18.3682 44.9684C18.3301 45.0449 18.3127 45.1302 18.3176 45.2157Z" fill="#F2693D"/>
<path d="M27.8802 44.4223C28.0097 44.415 28.1383 44.4471 28.2494 44.5145C28.3165 44.5495 28.3384 44.6002 28.2958 44.6651C28.2532 44.73 28.2416 44.8274 28.1306 44.7729C28.0517 44.7277 27.9632 44.7023 27.8725 44.6989C27.7794 44.6964 27.6878 44.7226 27.6098 44.7739C27.5319 44.8251 27.4713 44.8991 27.4362 44.9858C27.3905 45.0807 27.3746 45.1872 27.3905 45.2913C27.4064 45.3955 27.4534 45.4923 27.5253 45.5689C27.5865 45.6397 27.6682 45.6894 27.759 45.711C27.8497 45.7327 27.9449 45.7252 28.0312 45.6897C28.0607 45.6802 28.0892 45.6681 28.1164 45.6533C28.2339 45.578 28.261 45.6819 28.3049 45.7481C28.3487 45.8143 28.3049 45.8715 28.2403 45.9104C28.1389 45.9622 28.0277 45.9916 27.9141 45.9967C27.8005 46.0018 27.6871 45.9824 27.5816 45.9399C27.476 45.8974 27.3807 45.8327 27.302 45.7501C27.2233 45.6675 27.163 45.569 27.1252 45.4611C27.0853 45.3416 27.0745 45.2142 27.0937 45.0896C27.1129 44.965 27.1616 44.8469 27.2355 44.7451C27.3095 44.6434 27.4066 44.5609 27.5188 44.5048C27.631 44.4486 27.7549 44.4203 27.8802 44.4223Z" fill="#F2693D"/>
<path d="M26.3808 45.2365C26.3808 45.4377 26.3808 45.639 26.3808 45.8416C26.3808 45.939 26.3498 45.9805 26.2517 45.9792C26.1536 45.9779 26.093 45.9611 26.0943 45.8403C26.0943 45.4209 26.0943 45.0027 26.0943 44.5833C26.0943 44.4612 26.1575 44.4534 26.2543 44.4534C26.3511 44.4534 26.3834 44.4937 26.3834 44.5911C26.3782 44.8014 26.3808 45.0196 26.3808 45.2365Z" fill="#F2693C"/>
<path d="M9.98498 37.3737C9.37749 37.3732 8.78345 37.5537 8.27779 37.8925C7.77214 38.2312 7.37751 38.713 7.14369 39.2771C6.90987 39.8412 6.84733 40.4624 6.96394 41.0622C7.08056 41.662 7.37112 42.2137 7.79898 42.6476C8.22683 43.0815 8.77282 43.3782 9.36807 43.5003C9.96332 43.6224 10.5812 43.5644 11.1437 43.3336C11.7063 43.1029 12.1883 42.7097 12.529 42.2036C12.8697 41.6976 13.0538 41.1014 13.0581 40.4902C13.0609 40.0823 12.9834 39.6778 12.8302 39.3001C12.6771 38.9223 12.4512 38.5788 12.1656 38.2892C11.88 37.9995 11.5403 37.7696 11.1661 37.6125C10.7919 37.4554 10.3905 37.3742 9.98498 37.3737ZM9.99918 42.4238C9.74358 42.4258 9.49008 42.3772 9.25316 42.2807C9.01623 42.1842 8.80052 42.0417 8.61835 41.8613C8.43617 41.6809 8.2911 41.4662 8.1914 41.2294C8.09171 40.9926 8.03935 40.7383 8.03732 40.4812C8.03528 40.224 8.08361 39.969 8.17955 39.7306C8.27548 39.4922 8.41715 39.2752 8.59644 39.0919C8.95856 38.7218 9.45199 38.5115 9.9682 38.5074C10.9775 38.4775 11.8823 39.3345 11.8875 40.437C11.8949 40.6927 11.8517 40.9473 11.7605 41.1861C11.6693 41.4249 11.5319 41.6431 11.3563 41.828C11.1806 42.013 10.9702 42.161 10.7372 42.2635C10.5043 42.366 10.2534 42.4209 9.99918 42.4251V42.4238Z" fill="#4A4551"/>
<path d="M33.8785 37.3737C33.0627 37.3737 32.2804 37.6997 31.7036 38.2801C31.1268 38.8604 30.8027 39.6475 30.8027 40.4682C30.8027 41.2889 31.1268 42.076 31.7036 42.6563C32.2804 43.2366 33.0627 43.5626 33.8785 43.5626C34.2824 43.5626 34.6823 43.4826 35.0555 43.3271C35.4287 43.1716 35.7677 42.9436 36.0533 42.6563C36.339 42.3689 36.5655 42.0278 36.7201 41.6524C36.8747 41.2769 36.9542 40.8745 36.9542 40.4682C36.9542 40.0618 36.8747 39.6594 36.7201 39.284C36.5655 38.9085 36.339 38.5674 36.0533 38.2801C35.7677 37.9927 35.4287 37.7648 35.0555 37.6093C34.6823 37.4538 34.2824 37.3737 33.8785 37.3737ZM33.8139 42.4264C33.4276 42.424 33.0507 42.3063 32.731 42.0881C32.4113 41.87 32.1632 41.5612 32.0181 41.201C31.8731 40.8407 31.8377 40.4453 31.9163 40.0647C31.995 39.6842 32.1843 39.3358 32.46 39.0636C32.7358 38.7914 33.0857 38.6078 33.4654 38.536C33.8451 38.4642 34.2374 38.5074 34.5926 38.6603C34.9478 38.8131 35.2499 39.0686 35.4605 39.3944C35.6712 39.7202 35.7809 40.1016 35.7758 40.4902C35.7755 40.7476 35.7243 41.0023 35.6251 41.2396C35.5259 41.4768 35.3808 41.6918 35.1982 41.872C35.0156 42.0522 34.7991 42.1941 34.5615 42.2892C34.3238 42.3844 34.0697 42.431 33.8139 42.4264Z" fill="#4A4551"/>
<path d="M19.5427 43.2731C19.517 43.1998 19.4859 43.1287 19.4497 43.0601C19.158 42.4796 18.8638 41.9018 18.5734 41.3213C18.4533 41.0798 18.4443 41.1343 18.6482 41.0019C18.6805 40.9811 18.7115 40.9577 18.7424 40.9357C19.0404 40.7118 19.2663 40.4046 19.3918 40.0525C19.5174 39.7003 19.5371 39.3187 19.4485 38.9554C19.3506 38.5333 19.1142 38.1567 18.7775 37.8864C18.4407 37.6162 18.0232 37.468 17.5924 37.4659C16.7909 37.4581 15.9894 37.4659 15.1891 37.4659H15.0962C15.0729 37.4643 15.0496 37.4676 15.0276 37.4755C15.0057 37.4834 14.9856 37.4958 14.9686 37.5119C14.9516 37.528 14.9381 37.5474 14.929 37.569C14.9199 37.5906 14.9153 37.6139 14.9155 37.6373C14.9116 37.6992 14.9116 37.7612 14.9155 37.823V43.0783C14.9155 43.1328 14.9155 43.1861 14.9155 43.2406C14.9233 43.425 14.9684 43.4743 15.1504 43.4782C15.3892 43.4782 15.6293 43.4782 15.868 43.4782C16.0487 43.4782 16.09 43.4263 16.0965 43.2367C16.0965 43.1666 16.0965 43.0965 16.0965 43.0276C16.0965 42.5316 16.0965 42.0355 16.0965 41.5395C16.0965 41.3863 16.0965 41.3863 16.2514 41.3863C16.5366 41.3863 16.8219 41.3954 17.1058 41.3863C17.1724 41.3754 17.2407 41.3884 17.2988 41.4231C17.3568 41.4577 17.4009 41.5118 17.4233 41.5758C17.7008 42.155 17.9964 42.7251 18.2804 43.299C18.3281 43.3951 18.3759 43.4808 18.4933 43.4808C18.8018 43.4808 19.1103 43.4873 19.4188 43.4808C19.5517 43.4769 19.5878 43.4055 19.5427 43.2731ZM17.4879 40.3357C17.0658 40.3604 16.6438 40.3357 16.2204 40.35C16.1146 40.35 16.0913 40.3046 16.0913 40.2098C16.0913 39.9397 16.0913 39.6683 16.0913 39.3982C16.0913 39.1281 16.0913 38.8567 16.0913 38.5853C16.0913 38.497 16.1223 38.4645 16.2127 38.4658C16.5999 38.4658 16.9974 38.4658 17.3885 38.4775C17.5394 38.4781 17.6877 38.5162 17.8204 38.5884C17.953 38.6607 18.0658 38.7649 18.1487 38.8917C18.5553 39.4839 18.1681 40.2942 17.4879 40.3357Z" fill="#4A4551"/>
<path d="M23.3114 45.8377C23.1462 45.4221 22.9784 45.0079 22.8171 44.5911C22.7822 44.5028 22.7435 44.4508 22.639 44.4456C22.5344 44.4404 22.4815 44.5158 22.4466 44.6028C22.2892 44.9923 22.1317 45.391 21.9781 45.7857C21.9588 45.8377 21.8994 45.9026 21.9575 45.9545C22.0155 46.0065 22.0865 45.9818 22.1562 45.9688C22.2259 45.9558 22.2363 45.8805 22.2556 45.8247C22.2641 45.7794 22.29 45.7394 22.3278 45.7134C22.3655 45.6873 22.412 45.6774 22.457 45.6857C22.5799 45.6935 22.7032 45.6935 22.8261 45.6857C22.8639 45.6809 22.9021 45.6896 22.9342 45.7102C22.9663 45.7309 22.9902 45.7622 23.0016 45.7987C23.0907 45.9987 23.0959 45.9974 23.3308 45.9468C23.3371 45.9092 23.3303 45.8707 23.3114 45.8377ZM22.4376 45.404C22.4583 45.2131 22.5563 45.0508 22.6222 44.83C22.7116 45.007 22.7838 45.1922 22.8377 45.3832C22.6854 45.4442 22.6622 45.4455 22.4376 45.404Z" fill="#F2693C"/>
</g>
<defs>
<clipPath id="clip0_279_1340">
<rect width="44" height="46" fill="white"/>
</clipPath>
</defs>
</svg>
