<svg width="204" height="223" viewBox="0 0 204 223" fill="none" xmlns="http://www.w3.org/2000/svg">
<g id="Layer_1" clip-path="url(#clip0_437_1759)">
<path id="Vector" d="M159.113 69.2089C159.125 67.3126 159.147 65.4219 159.147 63.5257C159.159 59.3042 159.125 55.0883 159.17 50.8668C159.181 50.0598 158.967 49.5913 158.222 49.1737C146.714 42.5649 135.229 35.9279 123.744 29.2965C117.809 25.8708 111.875 22.4564 105.963 19.0081C105.263 18.5904 104.727 18.5735 104.017 18.9855C86.5855 29.0313 69.1488 39.0489 51.6951 49.0495C50.9054 49.4954 50.6402 50.0203 50.6402 50.912C50.6628 70.9979 50.6628 91.0952 50.6402 111.181C50.6402 112.056 50.9166 112.513 51.6613 112.948C68.9739 122.971 86.2865 133.011 103.577 143.091C104.524 143.644 105.246 143.666 106.217 143.102C119.434 135.387 132.673 127.717 145.902 120.036C149.845 117.75 153.805 115.448 157.748 113.162C157.929 113.055 158.109 112.919 158.301 112.84C159.023 112.541 159.249 112.033 159.238 111.243C159.187 106.915 159.187 102.591 159.175 98.2627C159.164 93.934 159.164 89.6109 159.164 85.2822C159.164 84.4093 159.604 83.8806 160.484 83.6963C165.014 82.7369 169.544 81.7831 174.085 80.8236C175.416 80.5471 175.444 80.5697 175.444 81.9637C175.444 94.837 175.433 107.699 175.467 120.572C175.467 121.475 175.168 121.978 174.395 122.412C164.038 128.372 153.698 134.371 143.352 140.342C132.516 146.607 121.668 152.854 110.82 159.108C109.212 160.033 107.576 160.908 105.991 161.862C105.224 162.33 104.598 162.319 103.819 161.873C97.2246 158.03 90.6132 154.226 83.9962 150.405C74.1806 144.733 64.3538 139.055 54.5382 133.372C48.1468 129.681 41.7555 125.979 35.3528 122.305C34.6815 121.921 34.4051 121.475 34.4163 120.685C34.4502 114.895 34.4502 109.099 34.4502 103.314C34.4502 83.3351 34.4389 63.3394 34.4389 43.3607C34.4389 43.1067 34.4615 42.8584 34.4389 42.6044C34.3092 41.0298 34.862 40.0309 36.3625 39.2125C42.8273 35.6401 49.1961 31.9152 55.5988 28.2355C68.5169 20.7858 81.4295 13.3418 94.342 5.88077C97.5236 4.04092 100.711 2.21236 103.859 0.327361C104.581 -0.107205 105.122 -0.12978 105.889 0.304786C121.854 9.52661 137.835 18.7315 153.811 27.9364C160.49 31.7798 167.169 35.6175 173.848 39.4722C174.158 39.6528 174.452 39.8446 174.773 40.014C175.241 40.2566 175.433 40.6404 175.433 41.1427V72.1436C175.433 72.5669 175.456 73.0071 175.467 73.4304C175.083 73.8254 174.66 73.5771 174.265 73.4812C169.713 72.375 165.183 71.235 160.665 70.0046C160.101 69.8579 159.39 69.8974 159.113 69.1976V69.2089Z" fill="white"/>
<path id="Vector_2" d="M159.114 69.2089C161.229 69.9538 163.429 70.4336 165.59 71.0092C168.867 71.8727 172.139 72.7305 175.45 73.436C179.45 74.7341 183.45 76.0321 187.444 77.3415C187.912 77.4882 188.414 77.5728 188.696 78.1316C184.324 78.0808 180.009 78.2727 175.699 78.4589C171.276 78.6508 166.859 78.9499 162.448 79.3224C156.09 79.8529 149.738 80.5471 143.42 81.4614C131.286 83.2391 119.293 85.6941 107.498 89.1312C96.8076 92.2465 86.3884 96.1124 76.2964 100.825C75.8282 101.051 75.3092 101.197 74.8636 101.632C75.281 101.909 75.6703 101.801 76.0313 101.813C79.5739 101.824 83.1053 101.813 86.6423 101.813C87.889 101.813 87.951 101.886 87.9623 103.161C87.9848 111.813 88.0131 120.459 88.0356 129.111C88.0356 130.556 88.0131 130.567 86.7269 129.822C77.8252 124.681 68.9348 119.545 60.0218 114.426C59.3223 114.02 59.0233 113.597 59.0233 112.756C59.0459 106.424 59.0233 100.108 58.9782 93.7759C58.9669 92.9971 59.2208 92.5738 59.9033 92.1901C66.1255 88.7023 72.72 86.1456 79.4893 83.9954C88.8141 81.0494 98.2573 78.6 107.864 76.7827C113.754 75.6653 119.677 74.7849 125.634 74.1133C130.57 73.5602 135.511 73.1764 140.47 72.8886C143.031 72.7418 145.609 72.708 148.181 72.6233C148.503 72.612 148.819 72.6233 149.14 72.4653C148.3 72.4201 147.448 72.3919 146.607 72.3468C139.432 72.0194 132.251 72.0364 125.075 72.217C120.653 72.3355 116.236 72.612 111.824 72.9958C105.997 73.5037 100.204 74.1979 94.427 75.1348C85.6551 76.5626 77.0072 78.5153 68.523 81.134C65.6968 82.0088 62.8988 82.9513 60.1121 83.9615C59.8808 84.0462 59.6438 84.1308 59.4013 84.1929C59.1361 84.2663 58.9838 84.1308 58.9669 83.8712C58.9331 83.5495 58.9331 83.2335 58.9218 82.9005C58.8767 77.4318 58.8372 71.963 58.792 66.4942C58.7469 61.0989 58.7187 55.6978 58.6341 50.3024C58.6228 49.3261 58.9331 48.7278 59.7849 48.2255C68.6132 42.96 77.419 37.6605 86.2305 32.3724C86.411 32.2651 86.5915 32.141 86.7833 32.0507C87.3587 31.7854 87.8664 32.0168 87.9736 32.6489C88.0243 32.9593 88.0074 33.2866 88.0074 33.6083C88.0187 37.9709 88.03 42.3335 88.0525 46.6961C88.0864 53.0904 88.1372 59.496 88.1823 65.8904V66.8046C89.8013 66.6579 91.3188 66.5507 92.8306 66.3588C100.39 65.3994 107.983 65.072 115.587 65.0607C117.054 65.0607 118.509 65.0099 119.981 64.9874C121.025 64.9648 121.025 64.9761 121.025 63.9038C121.014 57.3289 121.002 50.7426 120.974 44.1677C120.952 40.488 120.901 36.8027 120.867 33.123C120.867 32.7392 120.794 32.3441 120.918 31.9717C121.217 31.8419 121.397 32.0676 121.6 32.1974C130.288 37.2598 138.975 42.3448 147.674 47.4016C148.565 47.9208 148.853 48.6488 148.853 49.6139C148.841 54.0499 148.853 58.4745 148.864 62.9105C148.864 63.9433 148.875 64.9874 148.875 66.0145C148.875 66.3249 148.909 66.5337 149.293 66.6297C152.581 67.4706 155.814 68.447 159.119 69.1919L159.114 69.2089Z" fill="white"/>
<path id="Vector_3" d="M148.926 98.2627C148.926 102.304 148.903 106.339 148.948 110.38C148.96 111.113 148.723 111.52 148.074 111.881C139.206 116.989 130.366 122.136 121.521 127.266C121.391 127.339 121.279 127.424 121.149 127.48C120.822 127.638 120.596 127.599 120.596 127.158C120.596 126.944 120.596 126.735 120.585 126.521C120.573 125.02 120.551 123.518 120.573 122.023C120.658 113.489 120.382 104.945 120.404 96.4115C120.404 95.4634 120.635 94.978 121.555 94.5717C130.096 90.7848 138.856 87.6243 147.899 85.2313C148.858 84.9774 148.943 85.0282 148.943 86.0384C148.931 90.1131 148.931 94.1879 148.931 98.2627H148.926Z" fill="white"/>
<path id="Vector_4" d="M38.2861 215.082L34.3542 209.263H31.4829V222.752H34.1286V213.4L38.2861 219.507L42.4436 213.389V222.752H45.0611V209.263H42.2123L38.2861 215.082Z" fill="white"/>
<path id="Vector_5" d="M54.4423 217.085H59.5249V214.732H54.4423V211.667H60.3316V209.263H51.8022V222.752H60.405V220.336H54.4423V217.085Z" fill="white"/>
<path id="Vector_6" d="M75.3485 219.405C74.9988 219.777 74.5926 220.065 74.1357 220.28C73.6787 220.494 73.1767 220.601 72.6238 220.601C71.8284 220.601 71.1233 220.41 70.5084 220.014C69.8935 219.619 69.414 219.078 69.0643 218.395C68.7145 217.712 68.5453 216.916 68.5453 216.013C68.5453 215.11 68.7145 214.32 69.053 213.643C69.3915 212.96 69.871 212.429 70.4802 212.034C71.0895 211.639 71.789 211.447 72.5618 211.447C73.1033 211.447 73.6054 211.543 74.0623 211.746C74.5193 211.95 74.9367 212.226 75.2977 212.576C75.6588 212.926 75.9465 213.344 76.1721 213.823L78.6204 212.92C78.2988 212.164 77.8419 211.492 77.2496 210.911C76.6516 210.324 75.9521 209.867 75.168 209.54C74.3726 209.212 73.5095 209.049 72.5844 209.049C71.2756 209.049 70.1192 209.348 69.1094 209.94C68.0997 210.533 67.3099 211.357 66.7289 212.407C66.1535 213.451 65.8545 214.664 65.8545 216.024C65.8545 217.385 66.1422 218.587 66.7289 219.642C67.3043 220.686 68.0997 221.516 69.1207 222.108C70.1305 222.707 71.2982 223 72.6069 223C73.5434 223 74.4121 222.831 75.2018 222.498C75.9972 222.17 76.6911 221.702 77.2834 221.092C77.8757 220.483 78.3383 219.794 78.6542 219.01L76.206 218.129C75.9916 218.598 75.7039 219.032 75.3541 219.405H75.3485Z" fill="white"/>
<path id="Vector_7" d="M93.2253 214.636H86.9806V209.241H84.3462V222.752H86.9806V217.063H93.2253V222.752H95.8597V209.263H93.2253V214.636Z" fill="white"/>
<path id="Vector_8" d="M109.156 209.263H106.516L101.196 222.752H103.994L105.134 219.783H110.719L111.858 222.752H114.656L109.336 209.263H109.156ZM106.019 217.458L107.921 212.491L109.822 217.458H106.014H106.019Z" fill="white"/>
<path id="Vector_9" d="M129.306 218.316L122.711 209.263H119.958V222.752H122.61V213.519L129.306 222.752H131.923V209.263H129.306V218.316Z" fill="white"/>
<path id="Vector_10" d="M141.293 209.263H138.653V222.752H141.293V209.263Z" fill="white"/>
<path id="Vector_11" d="M156.795 219.405C156.446 219.777 156.039 220.065 155.582 220.28C155.126 220.494 154.623 220.601 154.071 220.601C153.275 220.601 152.57 220.41 151.955 220.014C151.34 219.619 150.861 219.078 150.511 218.395C150.161 217.712 149.992 216.916 149.992 216.013C149.992 215.11 150.161 214.32 150.5 213.643C150.838 212.965 151.318 212.429 151.927 212.034C152.536 211.639 153.236 211.447 154.009 211.447C154.55 211.447 155.052 211.543 155.509 211.746C155.966 211.95 156.383 212.226 156.745 212.576C157.106 212.926 157.393 213.344 157.619 213.823L160.067 212.92C159.746 212.164 159.289 211.492 158.696 210.911C158.098 210.324 157.399 209.867 156.615 209.54C155.819 209.212 154.956 209.049 154.031 209.049C152.722 209.049 151.566 209.348 150.556 209.94C149.546 210.539 148.757 211.357 148.176 212.407C147.6 213.451 147.301 214.664 147.301 216.024C147.301 217.385 147.589 218.587 148.176 219.642C148.751 220.686 149.546 221.516 150.567 222.108C151.577 222.707 152.745 223 154.054 223C154.99 223 155.859 222.831 156.649 222.498C157.444 222.17 158.138 221.702 158.73 221.092C159.323 220.483 159.785 219.794 160.101 219.01L157.653 218.129C157.438 218.598 157.151 219.032 156.801 219.405H156.795Z" fill="white"/>
<path id="Vector_12" d="M174.299 216.549C173.662 215.816 172.759 215.302 171.597 215.025L169.82 214.58C169.318 214.45 168.929 214.269 168.641 214.027C168.353 213.784 168.207 213.451 168.207 213.028C168.207 212.486 168.387 212.068 168.76 211.775C169.121 211.476 169.634 211.329 170.271 211.329C170.909 211.329 171.422 211.487 171.834 211.786C172.251 212.096 172.528 212.469 172.686 212.903L175.247 212.113C175.016 211.487 174.683 210.934 174.248 210.477C173.814 210.019 173.273 209.658 172.624 209.41C171.975 209.162 171.219 209.037 170.356 209.037C168.816 209.037 167.626 209.387 166.785 210.104C165.945 210.821 165.522 211.809 165.522 213.084C165.522 213.756 165.663 214.337 165.945 214.839C166.221 215.342 166.616 215.765 167.112 216.103C167.609 216.442 168.184 216.702 168.844 216.871L170.599 217.328C171.197 217.475 171.654 217.701 171.992 217.988C172.33 218.276 172.5 218.637 172.5 219.061C172.5 219.552 172.285 219.941 171.851 220.252C171.428 220.562 170.864 220.709 170.181 220.697C169.544 220.686 169.013 220.517 168.585 220.206C168.156 219.896 167.863 219.512 167.705 219.078L165.121 219.845C165.206 220.263 165.409 220.641 165.708 221.013C166.007 221.386 166.39 221.725 166.859 222.024C167.316 222.323 167.846 222.554 168.432 222.723C169.03 222.893 169.657 222.977 170.334 222.977C171.377 222.977 172.257 222.808 172.99 222.475C173.724 222.142 174.277 221.679 174.672 221.081C175.066 220.483 175.247 219.783 175.247 218.999C175.258 218.084 174.937 217.266 174.299 216.544V216.549Z" fill="white"/>
<path id="Vector_13" d="M185.215 181.197V199.601C185.192 200.12 184.905 200.391 184.408 200.397C183.196 200.408 181.983 200.408 180.759 200.397C180.302 200.386 180.025 200.132 179.98 199.675C179.946 199.387 179.935 199.099 179.935 198.822V174.267C179.935 174.052 179.924 173.843 179.946 173.629C180.02 172.929 180.178 172.737 180.883 172.726C182.242 172.692 183.596 172.726 184.956 172.715C185.582 172.703 185.915 173.087 186.23 173.544C188.983 177.5 191.759 181.451 194.517 185.396C195.753 187.151 196.971 188.906 198.207 190.662C198.28 190.78 198.387 190.876 198.483 190.983C198.805 190.752 198.652 190.441 198.652 190.176C198.663 184.922 198.663 179.662 198.663 174.408C198.663 174.154 198.652 173.905 198.663 173.651C198.709 172.952 198.867 172.737 199.544 172.715C200.683 172.681 201.828 172.681 202.968 172.715C203.701 172.737 203.915 172.968 203.977 173.685C204 173.928 203.989 174.188 203.989 174.441V198.676C203.989 198.89 204 199.099 203.989 199.313C203.944 200.188 203.763 200.386 202.906 200.408C201.8 200.431 200.694 200.374 199.589 200.431C198.895 200.465 198.46 200.188 198.077 199.635C196.153 196.796 194.196 193.986 192.261 191.158C189.976 187.828 187.697 184.499 185.412 181.18C185.35 181.18 185.283 181.191 185.209 181.203L185.215 181.197Z" fill="white"/>
<path id="Vector_14" d="M23.3654 186.643V198.749C23.3654 199.003 23.3767 199.251 23.3541 199.494C23.309 200.132 23.1285 200.374 22.5362 200.386C21.2895 200.42 20.0372 200.42 18.7848 200.386C18.1587 200.363 17.9669 200.132 17.9669 199.387C17.9443 197.919 17.9556 196.463 17.9556 194.99V189.098C17.9556 188.257 17.9443 188.246 17.1658 188.246C13.516 188.235 9.88314 188.235 6.23333 188.246C5.47742 188.246 5.46614 188.269 5.46614 189.014C5.45486 192.225 5.46614 195.442 5.46614 198.664C5.46614 198.952 5.47742 199.24 5.45486 199.528C5.42101 200.081 5.13331 200.403 4.58048 200.408C3.32815 200.431 2.08147 200.42 0.829136 200.408C0.310153 200.408 0.050661 200.098 0.0111731 199.601C-0.0113914 199.359 -0.000109125 199.099 -0.000109125 198.856V174.312C-0.000109125 174.069 -0.0113914 173.809 0.0111731 173.567C0.0732255 173.048 0.338358 172.703 0.913753 172.703C2.09275 172.703 3.27738 172.681 4.4451 172.726C5.1446 172.748 5.38152 173.014 5.44358 173.713C5.46614 173.956 5.45486 174.216 5.45486 174.458V182.281C5.45486 183.184 5.46614 183.195 6.29539 183.195C9.90006 183.206 13.5047 183.206 17.1094 183.195C17.9161 183.195 17.9274 183.172 17.9387 182.354C17.9499 179.713 17.9387 177.066 17.9387 174.43C17.9387 174.142 17.9274 173.855 17.9499 173.567C18.012 172.94 18.1812 172.726 18.813 172.703C19.992 172.669 21.1767 172.658 22.3444 172.692C23.1229 172.715 23.3316 172.957 23.3316 173.764C23.3429 175.661 23.3429 177.551 23.3429 179.447C23.3654 181.852 23.3654 184.245 23.3654 186.638V186.643Z" fill="white"/>
<path id="Vector_15" d="M119.93 195.222C120.421 195.414 120.782 195.34 121.121 195.34C125.12 195.351 129.131 195.34 133.125 195.351C134.338 195.351 134.558 195.583 134.569 196.779C134.58 197.383 134.569 197.993 134.569 198.597C134.569 200.149 134.293 200.425 132.792 200.425H113.821C112.512 200.425 112.377 200.16 112.236 198.862C112.033 196.96 112.67 195.509 113.906 194.031C118.125 188.946 122.198 183.742 126.339 178.584C126.508 178.37 126.756 178.189 126.818 177.754H113.99C112.586 177.754 112.416 177.585 112.405 176.146C112.394 175.356 112.371 174.571 112.428 173.781C112.479 172.94 112.738 172.737 113.579 172.698C113.793 172.686 114.002 172.698 114.216 172.698H132.442C132.73 172.698 133.018 172.686 133.306 172.709C134.208 172.76 134.496 173.047 134.552 173.956C134.564 174.063 134.552 174.171 134.552 174.278C134.575 175.975 134.058 177.485 133.001 178.81C128.883 183.979 124.771 189.143 120.641 194.313C120.416 194.59 120.207 194.866 119.93 195.227V195.222Z" fill="white"/>
<path id="Vector_16" d="M104.316 186.525V198.63C104.316 198.918 104.338 199.206 104.304 199.494C104.242 200.143 104.028 200.386 103.357 200.397C102.178 200.431 100.993 200.431 99.8254 200.397C99.1428 200.386 98.9454 200.166 98.8664 199.505C98.8438 199.263 98.8551 199.003 98.8551 198.76V174.323C98.8551 174.142 98.8438 173.962 98.8551 173.792C98.9059 172.94 99.109 172.72 99.9495 172.698C100.982 172.675 102.025 172.686 103.052 172.709C104.084 172.731 104.299 172.94 104.299 173.996C104.31 178.178 104.299 182.348 104.31 186.53L104.316 186.525Z" fill="white"/>
<path id="Vector_17" d="M46.2743 172.28C37.5757 172.376 31.9515 179.645 32.0361 186.75C32.1094 193.529 37.5362 200.837 46.3307 200.815C54.4257 200.792 60.5802 194.42 60.5689 186.592C60.5463 178.228 53.8503 172.303 46.2743 172.28ZM46.2743 195.56C41.1296 195.549 37.4572 191.232 37.429 186.581C37.3952 181.88 41.1804 177.483 46.2856 177.483C51.3908 177.483 55.2606 181.823 55.1027 186.474C55.2832 191.412 51.1877 195.572 46.2743 195.56Z" fill="white"/>
<path id="Vector_18" d="M157.094 172.28C149.225 172.229 142.76 178.686 142.788 186.57C142.822 194.443 149.01 200.803 157.015 200.803C165.64 200.792 171.406 193.794 171.31 186.536C171.344 178.951 165.229 172.331 157.094 172.28ZM156.891 195.572C152.722 195.498 148.192 192.281 148.192 186.547C148.192 180.813 152.767 177.365 157.083 177.512C161.754 177.427 165.939 181.395 165.9 186.632C165.855 191.824 161.601 195.656 156.891 195.572Z" fill="white"/>
<path id="Vector_19" d="M90.3085 198.743C89.2424 196.638 88.1818 194.539 87.1157 192.445C86.6982 191.615 86.2977 190.786 85.8633 189.967C85.6941 189.646 85.7167 189.459 86.0439 189.273C86.3316 189.126 86.5967 188.946 86.8393 188.743C89.6034 186.542 90.8275 183.708 90.2973 180.176C89.6485 175.886 85.7562 172.63 81.3335 172.686C77.8642 172.731 74.4119 172.698 70.9426 172.698C70.5815 172.698 70.2318 172.698 69.8707 172.72C69.4533 172.754 69.222 172.997 69.1882 173.414C69.1656 173.702 69.1769 173.99 69.1769 174.278V192.597C69.1769 194.81 69.1656 197.022 69.1769 199.234C69.1769 200.245 69.3461 200.391 70.3672 200.414C71.3374 200.425 72.2908 200.425 73.2611 200.414C74.4852 200.403 74.5924 200.295 74.5924 199.054V191.553C74.5924 190.774 74.6149 190.774 75.3596 190.774C76.7191 190.774 78.0729 190.808 79.4325 190.752C80.1037 190.729 80.4535 190.944 80.7412 191.548C82.0612 194.24 83.4433 196.898 84.7633 199.59C85.0623 200.194 85.4459 200.442 86.0946 200.431C87.1664 200.408 88.2439 200.38 89.3044 200.431C90.9629 200.504 90.9291 199.94 90.3142 198.738L90.3085 198.743ZM81.153 185.91C79.1617 186.113 77.1647 185.943 75.1678 185.994C74.6657 186.005 74.5811 185.74 74.5924 185.323C74.6037 184.075 74.6037 182.822 74.5924 181.575C74.5924 180.362 74.6037 179.148 74.5811 177.935C74.5698 177.478 74.7108 177.297 75.1847 177.309C77.0011 177.342 78.8232 177.275 80.6397 177.371C82.7325 177.489 84.1146 178.607 84.7013 180.446C85.5079 183.02 83.8382 185.639 81.1474 185.904L81.153 185.91Z" fill="white"/>
</g>
<defs>
<clipPath id="clip0_437_1759">
<rect width="204" height="223" fill="white"/>
</clipPath>
</defs>
</svg>
