<svg width="26" height="26" viewBox="0 0 26 26" fill="none" xmlns="http://www.w3.org/2000/svg">
<g id="mail-01">
<path id="Icon" d="M2.1665 7.58325L11.0118 13.775C11.7281 14.2764 12.0862 14.5271 12.4758 14.6242C12.8199 14.7099 13.1798 14.7099 13.5239 14.6242C13.9134 14.5271 14.2716 14.2764 14.9878 13.775L23.8332 7.58325M7.3665 21.6666H18.6332C20.4533 21.6666 21.3634 21.6666 22.0586 21.3124C22.6702 21.0008 23.1674 20.5036 23.4789 19.8921C23.8332 19.1968 23.8332 18.2868 23.8332 16.4666V9.53325C23.8332 7.71308 23.8332 6.803 23.4789 6.10778C23.1674 5.49626 22.6702 4.99907 22.0586 4.68748C21.3634 4.33325 20.4533 4.33325 18.6332 4.33325H7.3665C5.54633 4.33325 4.63625 4.33325 3.94103 4.68748C3.32951 4.99907 2.83232 5.49626 2.52073 6.10778C2.1665 6.803 2.1665 7.71308 2.1665 9.53325V16.4666C2.1665 18.2868 2.1665 19.1968 2.52073 19.8921C2.83232 20.5036 3.32951 21.0008 3.94103 21.3124C4.63625 21.6666 5.54633 21.6666 7.3665 21.6666Z" stroke="#2C2931" stroke-width="2" stroke-linecap="round" stroke-linejoin="round"/>
</g>
</svg>
