<svg width="60" height="60" viewBox="0 0 60 60" fill="none" xmlns="http://www.w3.org/2000/svg">
<path d="M34.6875 41.7188H55.7812V55.7812H34.6875V41.7188Z" stroke="#FF6835" stroke-width="4"/>
<path d="M49.9219 41.7188V38.2031C49.9219 35.6142 47.8233 33.5156 45.2344 33.5156C42.6455 33.5156 40.5469 35.6142 40.5469 38.2031V41.7188" stroke="#FF6835" stroke-width="4"/>
<path d="M11.25 10.0781C11.25 11.6321 11.8673 13.1225 12.9662 14.2213C14.065 15.3202 15.5554 15.9375 17.1094 15.9375C18.6634 15.9375 20.1537 15.3202 21.2526 14.2213C22.3514 13.1225 22.9688 11.6321 22.9688 10.0781C22.9688 8.52412 22.3514 7.03377 21.2526 5.93492C20.1537 4.83608 18.6634 4.21875 17.1094 4.21875C15.5554 4.21875 14.065 4.83608 12.9662 5.93492C11.8673 7.03377 11.25 8.52412 11.25 10.0781Z" stroke="#FF6835" stroke-width="4"/>
<path d="M8.90625 58.125V42.8906H4.21875V26.4844C4.21875 26.4844 8.90625 22.9688 17.1094 22.9688C25.3125 22.9688 30 26.4844 30 26.4844V34.6875" stroke="#FF6835" stroke-width="4"/>
<path d="M25.3125 42.8906V58.125" stroke="#FF6835" stroke-width="4"/>
</svg>
