<svg width="60" height="60" viewBox="0 0 60 60" fill="none" xmlns="http://www.w3.org/2000/svg">
<path d="M55.7812 30C55.7812 44.2385 44.2385 55.7812 30 55.7812C15.7614 55.7812 4.21875 44.2385 4.21875 30C4.21875 15.7614 15.7614 4.21875 30 4.21875" stroke="#FF6835" stroke-width="4"/>
<path d="M42.8906 30C42.8906 37.1194 37.1194 42.8906 30 42.8906C22.8807 42.8906 17.1094 37.1194 17.1094 30C17.1094 22.8807 22.8807 17.1094 30 17.1094" stroke="#FF6835" stroke-width="4"/>
<path d="M30 30L39.0234 20.9766" stroke="#FF6835" stroke-width="4"/>
<path d="M37.7344 14.5312L39.0234 20.9766L45.4688 22.2656L53.2031 14.5312L46.7578 13.2422L45.4688 6.79688L37.7344 14.5312Z" stroke="#FF6835" stroke-width="4"/>
</svg>
